<?xml version="1.0" encoding="UTF-8" standalone="no"?>
<!DOCTYPE svg PUBLIC "-//W3C//DTD SVG 1.1//EN" "http://www.w3.org/Graphics/SVG/1.1/DTD/svg11.dtd">
<svg width="827px" height="827px" version="1.1" xmlns="http://www.w3.org/2000/svg" xmlns:xlink="http://www.w3.org/1999/xlink" xml:space="preserve" xmlns:serif="http://www.serif.com/" style="fill-rule:evenodd;clip-rule:evenodd;stroke-linejoin:round;stroke-miterlimit:2;">
    <g transform="matrix(1,0,0,1,-2007.874016,-1062.992126)">
        <g transform="matrix(2.657765,0,0,3.786588,-3191.903145,-2100.951278)">
            <g id="C" transform="matrix(1.305377,0,0,0.461713,1170.8181,431.386571)">
                <path d="M720.993,875.39C786.755,875.39 840.146,981.339 840.146,1111.838C840.146,1242.337 786.755,1348.286 720.993,1348.286C655.231,1348.286 601.841,1242.337 601.841,1111.838C601.841,981.339 655.231,875.39 720.993,875.39ZM720.993,883.31C657.434,883.31 605.831,985.71 605.831,1111.838C605.831,1237.967 657.434,1340.367 720.993,1340.367C784.553,1340.367 836.155,1237.967 836.155,1111.838C836.155,985.71 784.553,883.31 720.993,883.31ZM746.073,1314.34C744.614,1305.385 747.434,1299.189 750.665,1296.33C751.672,1295.422 751.479,1292.009 752.764,1291.185C753.421,1290.763 753.991,1292.035 754.185,1293.221C754.745,1296.66 755.338,1301.519 755.899,1304.959C756.488,1308.576 757.315,1312.237 759.616,1310.761C760.214,1310.378 760.633,1309.912 760.964,1309.11C760.696,1313.54 759.682,1315.827 758.188,1316.786C756.903,1317.61 755.886,1316.429 754.789,1315.167C753.651,1318.517 753.446,1319.893 751.713,1321.004C749.173,1322.634 746.826,1318.965 746.073,1314.34ZM748.052,1309.468C748.815,1314.153 750.881,1316.299 753.241,1314.785C753.66,1314.516 754.071,1313.597 754.204,1312.792L751.548,1296.484C750.901,1296.768 747.074,1303.873 748.052,1309.468ZM829.723,1143.485C829.334,1148.031 826.333,1151.824 823.898,1150.876C820.176,1150.443 810.753,1141.071 809.674,1153.666C809.632,1154.157 809.472,1154.166 809.219,1154.144C808.058,1153.942 808.215,1143.186 808.077,1141.812L808.088,1141.689C808.125,1141.259 808.378,1141.281 808.6,1141.293C813.777,1142.217 817.574,1144.003 822.558,1146.063L822.713,1146.115C825.67,1146.543 829.014,1141.349 827.319,1135.847C829.309,1134.558 829.955,1140.781 829.723,1143.485ZM825.602,1131.269C820.861,1131.064 818.837,1123.745 818.537,1116.751C818.435,1114.565 816.747,1113.806 816.777,1111.127C816.792,1109.756 817.584,1109.105 818.212,1109.132C820.033,1109.211 822.541,1109.693 824.362,1109.772C826.277,1109.855 828.291,1109.506 828.344,1104.708C828.358,1103.462 828.274,1102.523 828.001,1101.639C830.021,1103.596 830.777,1106.247 830.743,1109.362C830.714,1112.042 829.817,1113.561 828.857,1115.203C830.078,1118.435 830.666,1119.27 830.626,1122.884C830.568,1128.18 828.051,1131.375 825.602,1131.269ZM823.933,1125.961C826.413,1126.068 828.113,1122.9 828.167,1117.978C828.177,1117.106 827.874,1116.033 827.534,1115.519L818.9,1115.146C818.823,1116.452 820.949,1125.956 823.933,1125.961ZM651.668,1249.306C650.84,1246.703 649.973,1242.418 651.545,1239.761C652.795,1237.022 654.832,1237.522 656.166,1237.923C662.644,1239.805 679.696,1269.525 683.352,1272.391L683.402,1272.464C683.478,1272.575 683.517,1272.787 683.442,1272.987C678.977,1277.452 672.166,1259.758 657.677,1241.524C656.608,1239.885 654.786,1239.854 653.947,1241.801C653.17,1243.684 654.135,1246.023 654.342,1248.724L654.286,1248.875C654.162,1249.313 652.953,1251.416 651.668,1249.306ZM740.367,925.211C741.337,918.937 745.717,916.015 748.505,917.668C750.983,919.084 752.966,923.836 752.492,929.497C751.416,942.992 746.992,945.482 742.208,941.654C739.758,937.804 739.455,931.313 740.367,925.211ZM743.169,924.287C742.274,930.263 743.73,937.585 746.605,939.354C747.967,940.163 748.6,939.555 749.051,936.535C750.004,930.387 749.203,923.285 745.977,921.326C745.85,921.257 745.14,920.938 744.736,921.127C744.696,921.173 744.623,921.201 744.583,921.247C743.756,922.022 743.471,922.343 743.169,924.287ZM817.864,1178.512C814.869,1176.63 813.507,1168.348 814.322,1163.107C815.021,1158.447 817.313,1154.75 820.018,1155.691C826.469,1157.835 827.624,1166.194 825.751,1175.18C823.887,1179.767 820.777,1180.282 817.864,1178.512ZM817.445,1173.223C820.298,1174.959 823.816,1172.277 824.687,1166.872C825.086,1164.311 824.8,1163.114 823.359,1162.237C820.424,1160.389 817.017,1161.839 816.052,1167.903C816.017,1168.143 815.859,1169.479 815.946,1170.24C815.968,1170.317 815.981,1170.454 816.002,1170.531C816.366,1172.097 816.517,1172.635 817.445,1173.223ZM612.493,1145.51C611.071,1128.29 622.114,1144.087 622.221,1129.969C622.211,1129.846 622.371,1129.478 622.377,1129.54C623.256,1131.716 624.939,1135.906 625.142,1138.366C625.168,1138.673 625.234,1139.094 625.058,1139.277L624.345,1139.509C621.308,1140.496 613.959,1138.592 614.807,1148.863C614.959,1150.708 615.402,1151.827 616.208,1151.565C617.943,1151 620.185,1150.019 621.787,1149.372C623.941,1148.482 622.153,1141.864 623.114,1141.551C624.137,1141.219 626.492,1151.631 626.485,1153.085C626.5,1153.27 626.324,1153.832 626.262,1153.853C626.138,1153.893 625.523,1154.156 625.43,1154.186C622.765,1155.053 619.17,1155.843 616.412,1156.74C615.482,1157.042 615.454,1159.009 615.508,1160.823C612.446,1161.503 614.147,1152.045 614.177,1152.414C614.106,1151.553 612.666,1147.601 612.493,1145.51ZM672.168,1306.756C668.418,1303.105 667.572,1294.784 668.914,1289.357C670.353,1283.538 675.179,1278.589 679.042,1282.349C680.001,1283.282 681.281,1287.583 679.967,1292.899C681.448,1294.688 683.952,1295.738 683.869,1295.934C683.047,1297.842 678.662,1297.043 672.375,1290.922C672.065,1290.62 671.839,1290.4 671.687,1291.016C670.567,1295.548 672.334,1302.405 674.928,1304.931C675.577,1305.562 676.591,1306.272 676.936,1304.873C677.282,1303.474 676.645,1302.09 676.949,1300.859C677.337,1299.293 678.503,1299.387 679.377,1300.238C680.307,1301.143 680.105,1303.376 679.759,1304.775C678.652,1309.251 674.48,1309.007 672.168,1306.756ZM672.57,1286.877C672.473,1287.269 672.503,1287.575 672.756,1287.822C674.223,1289.25 675.786,1290.285 677.418,1291.181C678.171,1289.692 677.789,1285.155 676.254,1284.147C674.536,1283.03 673.124,1284.639 672.57,1286.877ZM657.831,1293.761C651.709,1280.093 657.65,1255.572 666.983,1256.595C666.959,1256.869 666.866,1257.12 666.635,1257.635C660.158,1261.636 656.536,1277.704 660.058,1291.753C662.328,1296.462 662.8,1293.824 665.219,1294.031C665.301,1294.229 665.391,1294.515 665.272,1294.729L665.216,1294.879C663.97,1295.611 659.271,1295.555 657.831,1293.761ZM708.303,1325.835C706.595,1328.297 702.069,1332.799 705.181,1309.108C705.378,1307.723 705.602,1304.065 704.461,1303.632C703.628,1303.316 701.083,1305.841 700.41,1306.855C699.98,1311.324 699.263,1316.445 699.099,1319.809L699.076,1320.054C698.952,1321.339 699.146,1321.984 699.619,1323.051L699.607,1323.174C699.448,1324.827 697.82,1324.463 697.296,1324.265C696.895,1324.113 695.993,1323.517 696.105,1322.354C696.517,1318.069 697.157,1313.743 697.582,1309.336C697.623,1308.908 697.792,1306.815 697.833,1306.386C697.474,1303.141 696.4,1301.021 694.703,1300.378L694.715,1300.255C695.701,1298.979 700.415,1299.497 701.025,1299.474C701.086,1299.498 701.241,1299.556 701.217,1299.801L700.828,1303.841C700.769,1304.453 700.985,1304.535 701.17,1304.605C702.373,1305.061 704.781,1300.644 706.817,1301.416C708.513,1302.059 708.173,1307.259 707.949,1309.586C707.695,1312.218 705.187,1324.655 708.303,1325.835ZM625.835,1192.015L627.009,1190.821C629.63,1189.626 632.558,1193.861 634.689,1198.557C635.505,1201.718 635.19,1203.369 634.547,1206.754C635.869,1207.09 637.566,1203.824 638.584,1202.298C639.403,1200.415 639.751,1194.248 640.227,1193.765C641.568,1192.401 643.285,1201.509 643.642,1202.617L641.533,1205.111L628.034,1218.84C627.643,1219.238 628.16,1221.513 628.065,1222.239L627.982,1222.325C627.367,1222.95 625.662,1219.082 625.332,1217.806C625.304,1217.695 625.189,1217.112 625.16,1217.001C625.35,1215.687 627.271,1215.064 626.97,1213.899C626.97,1213.899 626.928,1213.872 626.914,1213.817C624.349,1212.084 623.329,1210.32 622.152,1205.354C621.77,1199.23 623.04,1194.857 625.835,1192.015ZM629.608,1193.64C626.29,1195.963 623.895,1202.811 625.628,1209.522C626.611,1212.234 627.784,1213.633 628.426,1212.979L632.563,1208.772C632.334,1207.885 631.855,1207.671 631.64,1206.839C631.024,1204.454 632.974,1201.211 631.843,1196.829C631.399,1195.11 630.648,1193.843 629.608,1193.64ZM697.239,949.142C695.304,933.738 695.128,925.396 689.685,923.018L689.564,922.875L689.516,922.763C689.357,921.49 694,916.692 694.385,916.501C695.444,915.978 694.865,920.05 695.763,919.606C697.046,918.971 697.465,914.978 698.876,914.28C699.614,913.915 701.137,914.649 701.762,915.557L701.794,915.541C702.25,917.817 702.466,920.888 700.862,921.681C700.477,921.872 698.995,917.128 697.552,917.842C697.488,917.874 697.271,918.049 697.239,918.065C695.907,920.481 695.746,921.913 695.842,922.677C696.242,925.859 697.075,928.693 697.387,931.986C697.467,932.352 697.723,933.037 698.02,932.958C699.062,932.307 701.564,931.34 705.453,929.213C707.433,932.223 700.224,935.316 698.836,935.934L698.612,936.045C698.419,936.141 698.259,936.22 698.227,936.777C698.689,943.173 698.566,939.359 699.373,946.329L699.389,946.456C699.557,947.793 698.033,948.952 697.616,949.159C697.456,949.238 697.424,949.254 697.239,949.142ZM720.995,944.184C767.627,944.184 805.486,1019.312 805.486,1111.848C805.486,1204.385 767.627,1279.513 720.995,1279.513C674.364,1279.513 636.505,1204.385 636.505,1111.848C636.505,1019.312 674.364,944.184 720.995,944.184ZM720.995,952.103C676.566,952.103 640.495,1023.683 640.495,1111.848C640.495,1200.014 676.566,1271.594 720.995,1271.594C765.424,1271.594 801.495,1200.014 801.495,1111.848C801.495,1023.683 765.424,952.103 720.995,952.103ZM775.571,1008.32L775.567,1008.343L775.566,1008.524C775.566,1009.007 775.497,1009.48 775.368,1009.89C772.133,1020.186 769.345,1031.923 767.057,1045.098C764.748,1058.399 762.552,1073.488 760.524,1090.365C760.392,1091.463 759.917,1092.263 759.35,1092.342C758.783,1092.421 758.255,1091.761 758.047,1090.71C756.205,1081.407 754.31,1073.321 752.301,1066.454L752.293,1066.427C750.367,1059.659 747.948,1053.219 745.144,1047.209C743.799,1044.765 742.145,1042.836 740.237,1041.4C738.275,1040.036 736.156,1039.194 733.924,1039.086C732.155,1039.09 730.489,1039.603 728.925,1040.527C725.764,1042.882 722.666,1047.169 719.666,1053.548L719.651,1053.58C716.51,1060.032 713.974,1066.919 711.99,1074.246L711.984,1074.268C708.973,1085.13 707.445,1097.19 707.445,1110.442C707.445,1118.066 707.995,1125.581 709.092,1133.096C710.186,1140.584 711.714,1147.425 713.792,1153.611C720.245,1172.49 728.539,1183.828 738.596,1187.437C739.184,1187.541 739.975,1187.641 740.968,1187.641C745.422,1187.641 749.502,1185.523 753.15,1181.158L753.163,1181.143C756.96,1176.71 761.314,1170.276 766.229,1161.964C766.681,1161.199 767.337,1161.139 767.823,1161.819C768.309,1162.499 768.501,1163.746 768.289,1164.849C767.817,1167.308 767.286,1169.649 766.695,1171.874C766.116,1174.059 765.422,1176.359 764.668,1178.773C763.939,1181.11 763.267,1183.335 762.65,1185.45L762.63,1185.514C758.636,1198.337 753.056,1207.783 745.947,1213.729C738.945,1219.585 731.076,1222.471 722.395,1222.471C718.568,1222.471 714.798,1221.554 710.97,1219.943L710.966,1219.941C707.21,1218.336 703.455,1216.043 699.815,1213.062C699.788,1213.04 699.762,1213.016 699.736,1212.991C695.776,1209.119 692.506,1205.585 689.923,1202.283C687.306,1198.936 684.922,1195.129 682.712,1190.975L682.699,1190.95C680.484,1186.671 678.502,1181.93 676.695,1176.609C674.918,1171.376 673.082,1165.007 671.075,1157.498C671.062,1157.449 671.05,1157.399 671.038,1157.348C669.472,1150.442 668.312,1143.306 667.5,1135.94C666.687,1128.571 666.28,1120.858 666.28,1112.914C666.28,1102.696 666.917,1092.707 668.19,1082.834C669.465,1072.942 671.377,1063.854 673.811,1055.343C673.82,1055.311 673.83,1055.28 673.84,1055.249C676.154,1047.901 678.757,1041.358 681.649,1035.388L681.658,1035.37C684.554,1029.509 687.74,1024.223 691.157,1019.741C694.575,1015.257 698.341,1011.348 702.513,1008.243C706.621,1005.143 710.903,1002.961 715.301,1001.698C715.337,1001.687 715.374,1001.68 715.411,1001.676C719.287,1001.223 723.163,1000.997 727.039,1000.997C730.622,1000.997 734.49,1001.11 738.699,1001.449L738.7,1001.449C742.842,1001.786 747.267,1002.237 751.975,1002.8C756.662,1003.36 760.727,1003.808 764.115,1004.032C767.498,1004.256 770.938,1004.481 774.434,1004.481C774.96,1004.481 775.435,1005.11 775.636,1006.075C775.791,1006.815 775.761,1007.642 775.571,1008.32ZM731.852,1216.068C735.306,1215.169 738.647,1213.596 741.874,1211.349C745.102,1209.214 748.047,1206.292 750.821,1202.584C753.596,1198.988 755.974,1194.494 758.069,1189.1C759.372,1186.403 760.844,1181.908 762.429,1175.728C759.032,1180.785 755.521,1184.942 751.841,1188.201C748.216,1191.46 744.366,1193.033 740.402,1193.033C735.363,1193.033 730.606,1190.111 726.019,1184.38C720.583,1177.751 716.053,1169.435 712.542,1159.435C709.032,1149.434 706.597,1137.86 705.294,1124.713C704.955,1119.881 704.785,1115.499 704.785,1111.566C704.785,1103.925 705.294,1096.059 706.37,1088.193C707.446,1080.327 708.918,1073.023 710.787,1066.393C712.712,1059.764 714.864,1054.258 717.356,1049.763C719.677,1044.931 722.282,1041.111 725.17,1037.964C728.058,1034.93 730.946,1033.357 733.89,1033.357C735.136,1033.357 736.325,1033.582 737.401,1034.144C739.949,1035.942 742.044,1037.74 743.573,1039.313C745.159,1040.998 746.631,1043.246 747.99,1046.167C752.463,1056.617 756.144,1068.528 758.975,1082.013C760.334,1068.978 762.09,1056.28 764.298,1043.92C766.507,1031.559 769.055,1020.21 771.886,1010.097C768.828,1009.985 765.77,1009.76 762.599,1009.423C759.485,1009.086 755.861,1008.524 751.727,1007.85C747.594,1007.175 743.63,1006.613 739.893,1006.164C736.155,1005.715 732.588,1005.49 729.247,1005.49C725,1005.49 721.036,1005.939 717.242,1006.726C713.448,1007.625 709.768,1009.086 706.087,1011.108C702.406,1013.243 698.839,1016.165 695.385,1019.985C682.984,1035.942 674.886,1055.943 670.979,1079.99C669.394,1089.541 668.601,1099.767 668.601,1110.442C668.601,1123.477 669.79,1136.174 672.112,1148.76C674.433,1161.233 677.604,1172.02 681.512,1180.785C682.531,1182.807 683.437,1184.605 684.173,1186.178C684.909,1187.751 685.702,1189.212 686.381,1190.561C687.118,1191.909 687.74,1192.92 688.193,1193.482C690.968,1198.089 694.139,1202.022 697.763,1205.506C701.387,1208.877 705.124,1211.574 709.032,1213.484C712.939,1215.394 716.903,1216.63 720.98,1217.192C724.83,1217.529 728.398,1217.08 731.852,1216.068ZM691.478,1187.19C688.137,1181.346 685.136,1174.717 682.531,1167.188C679.926,1159.659 677.831,1151.569 676.189,1142.916C674.603,1134.264 673.584,1125.275 673.301,1115.948C673.301,1107.296 673.754,1099.093 674.603,1091.339C675.509,1083.586 676.812,1076.17 678.624,1069.09C680.436,1062.011 682.474,1055.606 684.853,1049.875C687.231,1044.257 689.949,1038.976 693.063,1034.144C697.82,1026.84 703.199,1021.671 709.145,1018.749C715.091,1015.828 721.716,1014.367 728.907,1014.367C732.135,1014.367 735.079,1014.479 737.797,1014.816C740.515,1015.153 743.46,1015.603 746.688,1016.052C749.915,1016.614 753.483,1017.176 757.39,1017.738C761.297,1018.3 764.242,1018.749 766.054,1018.862L758.183,1061.562C756.484,1055.718 754.559,1050.1 752.407,1044.706C750.255,1039.313 747.877,1034.368 745.159,1029.874C742.441,1025.379 739.609,1022.12 736.722,1019.873C735.759,1019.199 734.74,1018.974 733.664,1018.974C731.342,1018.974 729.19,1020.098 727.208,1022.233C725.227,1024.368 722.792,1027.402 720.074,1031.11C717.865,1035.38 716.11,1038.751 714.921,1041.223C713.732,1043.695 712.486,1046.617 711.24,1050.1C707.786,1057.966 705.011,1067.517 702.916,1078.642C700.821,1089.766 699.802,1101.003 699.802,1112.465C699.802,1119.656 700.198,1126.398 701.047,1132.579C702.746,1145.95 705.747,1157.974 709.994,1168.649C714.241,1179.324 719.394,1188.089 725.396,1194.943C729.36,1198.988 733.494,1201.123 737.797,1201.123C741.478,1201.123 744.876,1199.775 747.99,1196.966C746.518,1200.337 744.139,1202.921 740.912,1205.056C737.684,1207.079 734.513,1208.652 731.342,1209.551C728.171,1210.562 726.133,1211.012 725.113,1211.012C722.678,1210.899 720.187,1210.45 717.752,1209.663C715.26,1208.764 713.165,1207.865 711.467,1206.966C709.711,1205.955 706.71,1204.27 702.463,1201.685C698.443,1197.752 694.819,1193.033 691.478,1187.19ZM680.606,1128.87C679.416,1126.286 678.454,1123.027 677.831,1119.319C677.548,1116.622 677.435,1113.588 677.435,1110.442C677.435,1101.34 678.68,1092.8 681.229,1084.934L680.436,1077.743C678.341,1081.451 676.868,1086.058 675.906,1091.789C674.943,1097.52 674.49,1103.925 674.49,1110.891C674.49,1115.161 674.66,1119.544 675,1124.039C675.792,1127.971 676.868,1131.23 678.341,1133.815C679.813,1136.399 681.738,1138.871 684.06,1141.343C684.4,1141.006 684.569,1140.669 684.683,1140.444C684.796,1140.22 684.853,1139.882 684.909,1139.321C684.966,1138.871 685.079,1137.86 685.249,1136.511C683.38,1133.927 681.795,1131.455 680.606,1128.87ZM694.592,1062.123C694.875,1062.123 695.158,1061.562 695.385,1060.55C695.611,1059.539 695.725,1058.415 695.725,1057.292C695.555,1057.292 695.102,1057.067 694.422,1056.73C693.743,1056.393 693.176,1056.056 692.837,1055.831C694.139,1053.022 696.461,1050.212 699.972,1047.291C703.426,1044.369 705.861,1042.234 707.276,1040.661C708.692,1039.088 709.938,1036.279 711.07,1032.233C710.617,1031.11 709.938,1030.548 708.975,1030.548C708.182,1030.548 706.88,1031.222 705.068,1032.458C705.294,1032.458 705.577,1032.683 705.917,1033.245C706.257,1033.694 706.483,1034.144 706.71,1034.481C706.71,1035.717 706.54,1036.503 706.257,1036.841C705.011,1038.301 702.859,1040.099 699.745,1042.122C696.631,1044.145 694.252,1046.167 692.554,1048.077C690.855,1049.988 689.609,1052.797 688.76,1056.505C688.76,1058.078 688.873,1059.09 689.043,1059.764C689.213,1060.326 689.552,1060.887 690.062,1061.225C690.515,1061.562 690.911,1061.899 691.138,1062.123L694.592,1062.123ZM720.583,1206.742C723.528,1206.742 726.302,1205.843 728.851,1204.157C727.775,1202.921 725.283,1199.55 721.433,1193.819C717.525,1188.201 714.298,1183.481 711.693,1179.773C709.088,1176.065 707.22,1174.043 706.2,1173.593C704.275,1173.593 703.199,1174.267 703.086,1175.728L704.162,1180.897L708.069,1182.245C708.409,1182.695 709.088,1183.369 710.221,1184.38C711.297,1185.392 711.976,1186.066 712.259,1186.403C713.618,1187.864 714.694,1189.437 715.6,1191.123C716.45,1192.808 717.809,1195.393 719.564,1198.876C714.977,1198.764 710.844,1197.64 707.276,1195.73C703.709,1193.819 700.878,1189.886 698.782,1184.156C698.273,1183.144 697.48,1182.695 696.461,1182.695C695.725,1182.695 695.045,1183.032 694.479,1183.706C694.649,1185.504 695.102,1187.19 695.838,1188.763C696.574,1190.224 697.367,1191.684 698.329,1193.033C699.292,1194.381 700.198,1195.617 701.104,1196.741C707.786,1203.371 714.298,1206.742 720.583,1206.742ZM705.464,1163.143C704.445,1160.558 702.973,1157.524 701.104,1153.929C700.311,1152.917 699.235,1151.456 697.82,1149.434C696.404,1147.411 695.328,1145.838 694.536,1144.939C693.743,1143.928 692.723,1143.141 691.478,1142.355C691.138,1143.029 690.911,1143.928 690.742,1145.051C691.648,1146.625 693.29,1148.984 695.781,1152.131C698.216,1155.277 700.255,1158.199 701.784,1160.895C703.312,1163.48 704.502,1166.739 705.351,1170.671L706.257,1170.671C706.483,1170.671 706.767,1170.784 707.05,1170.784C706.993,1168.199 706.483,1165.615 705.464,1163.143ZM708.069,1048.415C709.541,1046.504 711.07,1044.032 712.769,1040.998C714.411,1037.964 715.997,1035.155 717.469,1032.571C720.357,1027.626 722.395,1023.244 723.698,1019.536C722.225,1019.086 720.696,1018.749 718.998,1018.749C715.713,1018.749 712.486,1019.423 709.258,1020.884C706.03,1022.345 703.143,1024.48 700.594,1027.402C698.329,1031.896 697.197,1036.054 697.197,1039.762C697.99,1039.762 698.782,1039.313 699.462,1038.526C700.085,1035.605 701.047,1033.357 702.237,1031.559C703.482,1029.761 704.841,1028.413 706.314,1027.402C707.843,1026.39 709.428,1025.604 711.07,1025.042C712.712,1024.48 714.468,1023.806 716.393,1023.132C716.619,1023.132 716.733,1023.244 716.789,1023.356C716.846,1023.581 716.959,1024.143 717.186,1025.042C716.959,1026.503 716.223,1028.413 714.921,1030.773C713.618,1033.132 712.826,1034.593 712.656,1035.155C709.032,1042.122 705.691,1046.841 702.52,1049.201C702.52,1050.887 702.576,1052.01 702.633,1052.46C702.69,1052.909 702.859,1053.134 703.143,1053.134C704.898,1052.01 706.597,1050.325 708.069,1048.415ZM698.273,1179.324C698.273,1178.65 698.046,1177.638 697.65,1176.29C697.254,1174.829 697.027,1174.267 697.027,1174.38C691.195,1173.144 686.891,1167.3 683.947,1156.85C683.607,1155.726 683.324,1154.266 683.21,1152.468C683.097,1150.67 682.927,1148.872 682.814,1147.186C682.701,1145.501 682.418,1144.152 682.021,1143.254C681.398,1142.692 680.945,1142.355 680.606,1142.355C680.209,1142.355 679.813,1142.692 679.416,1143.254C679.416,1146.737 679.643,1149.996 680.153,1153.03C680.662,1156.064 681.342,1158.985 682.135,1161.682C682.984,1164.379 683.833,1167.076 684.796,1169.548C688.25,1176.065 692.497,1179.661 697.423,1180.56C697.99,1180.56 698.273,1180.11 698.273,1179.324ZM711.41,1190.561C710.617,1189.325 710.108,1188.426 709.881,1187.864C709.258,1188.538 708.465,1188.875 707.559,1188.875C706.087,1188.875 704.841,1187.527 703.765,1184.718C702.69,1181.908 701.614,1177.975 700.481,1172.694C699.349,1167.525 698.386,1163.48 697.593,1160.783C696.801,1158.086 695.895,1156.625 694.819,1156.625C693.573,1158.423 692.95,1161.12 692.95,1164.828C692.95,1166.289 693.176,1167.862 693.573,1169.323C693.686,1169.548 694.252,1169.773 695.272,1169.773C695.328,1169.098 695.385,1168.649 695.442,1168.312C695.498,1167.975 695.498,1167.638 695.555,1167.3C695.611,1166.963 695.668,1166.739 695.725,1166.514C695.781,1166.401 695.951,1166.289 696.234,1166.064C697.027,1167.862 697.763,1170.11 698.386,1172.806C699.009,1175.503 699.688,1178.2 700.481,1181.122C701.217,1184.043 702.01,1186.291 702.859,1188.089C703.652,1189.886 704.785,1191.347 706.2,1192.471C707.956,1193.033 710.108,1193.37 712.656,1193.37C712.656,1192.808 712.259,1191.797 711.41,1190.561ZM687.854,1105.947C687.854,1105.385 687.74,1104.711 687.457,1104.037C687.231,1103.587 687.061,1103.363 686.834,1103.363C686.721,1103.363 686.381,1103.475 685.872,1103.7C685.362,1103.925 684.909,1104.037 684.456,1104.037C684.343,1103.138 684.286,1102.576 684.286,1102.127C684.286,1099.992 685.022,1097.07 686.551,1093.25C688.816,1088.193 690.515,1084.035 691.648,1080.44C692.78,1076.956 693.516,1072.799 693.799,1067.967C693.573,1067.292 693.063,1066.955 692.384,1066.955C691.591,1066.955 690.515,1067.292 689.156,1068.079C687.797,1068.866 686.948,1069.203 686.665,1069.203C686.438,1069.877 686.325,1070.551 686.325,1071.338C686.381,1071.787 686.438,1072.237 686.551,1072.911C686.665,1073.585 686.778,1074.147 686.891,1074.821C687.231,1074.596 687.627,1074.259 688.08,1073.81C688.533,1073.473 688.986,1073.136 689.383,1073.023C689.836,1073.023 690.119,1073.585 690.175,1074.596C689.326,1077.518 688.024,1081.001 686.325,1085.159C684.626,1089.317 683.38,1093.025 682.474,1096.284C681.568,1099.542 681.115,1103.25 681.115,1107.408C681.115,1109.768 681.229,1112.015 681.512,1114.15C681.568,1114.038 681.682,1114.038 681.738,1114.038C681.851,1114.038 681.908,1113.925 681.965,1113.925L687.854,1105.947ZM697.933,1126.848C697.933,1121.229 697.31,1115.723 696.121,1110.217C695.215,1106.734 694.083,1103.587 692.61,1100.554C691.138,1097.632 689.722,1095.722 688.25,1094.823C688.024,1094.935 687.684,1095.722 687.287,1097.295C688.76,1100.441 690.119,1103.363 691.308,1106.284C692.497,1109.206 693.516,1112.24 694.252,1115.499C694.989,1118.757 695.385,1122.128 695.385,1125.499C695.385,1128.084 695.045,1131.118 694.366,1134.601C694.309,1135.275 694.083,1136.062 693.799,1137.186C693.46,1138.197 693.29,1139.096 693.29,1139.658C693.29,1140.107 693.346,1140.444 693.516,1140.669C694.026,1141.231 694.422,1141.793 694.705,1142.355C694.989,1142.916 695.158,1143.141 695.158,1143.141C695.215,1143.141 695.442,1142.916 695.781,1142.467C697.254,1137.972 697.933,1132.803 697.933,1126.848ZM756.427,1032.009C756.427,1031.784 756.314,1031.335 756.087,1030.997L746.291,1023.356C746.291,1022.795 746.404,1022.345 746.688,1022.008C746.971,1021.671 747.254,1021.446 747.594,1021.446C749.519,1021.446 751.331,1021.671 753.086,1022.12C753.143,1021.896 753.256,1021.671 753.426,1021.221C753.539,1020.884 753.709,1020.66 753.879,1020.547C752.407,1019.199 750.425,1018.525 748.047,1018.525C745.555,1018.525 743.403,1018.974 741.591,1019.873C742.384,1021.446 743.29,1022.795 744.253,1024.031C745.215,1025.267 746.178,1026.278 747.084,1027.177C747.99,1028.076 749.009,1028.862 750.142,1029.649C751.274,1030.436 752.633,1031.447 754.275,1032.571C755.634,1032.683 756.314,1032.458 756.427,1032.009ZM684.739,1072.686C684.739,1067.967 685.306,1062.91 686.495,1057.404C686.891,1055.157 687.74,1052.685 689.156,1049.875C690.515,1047.066 691.874,1044.369 693.12,1041.785C694.366,1039.2 695.158,1036.616 695.498,1034.368C692.723,1037.627 690.175,1041.56 687.854,1046.392C685.475,1051.224 683.833,1056.28 682.927,1061.562C682.588,1064.034 682.418,1066.955 682.418,1070.439C682.418,1074.035 682.701,1078.305 683.324,1083.249C683.324,1084.71 683.494,1085.384 683.833,1085.384C684.06,1085.384 684.4,1084.934 684.853,1084.148C685.249,1083.361 685.532,1082.575 685.589,1081.9C685.022,1078.754 684.739,1075.72 684.739,1072.686ZM759.485,1038.301C759.485,1033.919 759.032,1030.211 758.069,1027.402C757.73,1027.402 757.56,1027.963 757.56,1029.2C757.56,1029.312 757.673,1030.436 757.843,1032.683C758.013,1034.93 758.126,1036.953 758.126,1038.638C758.126,1040.886 757.899,1042.908 757.503,1044.819C756.88,1044.819 756.427,1044.482 756.144,1043.807C755.861,1043.133 755.578,1042.122 755.408,1040.886C755.238,1039.65 755.012,1038.189 754.785,1036.503C754.559,1036.391 754.389,1036.279 754.275,1036.054C754.162,1035.829 753.992,1035.717 753.822,1035.717C753.766,1035.717 753.596,1035.829 753.313,1036.166C753.313,1037.964 753.426,1039.537 753.653,1040.998C753.879,1042.459 754.275,1044.032 754.785,1045.718C755.295,1047.403 755.804,1048.864 756.314,1049.988C756.767,1051.111 757.446,1052.572 758.183,1054.37L758.183,1054.145C759.032,1047.403 759.485,1042.122 759.485,1038.301ZM760.108,1020.435C757.956,1020.435 756.087,1021.558 754.445,1023.806C753.992,1024.705 753.766,1025.379 753.766,1025.828C753.766,1026.053 754.219,1026.39 755.068,1026.727C757.163,1023.581 759.089,1022.008 760.901,1022.008C761.297,1022.345 761.467,1022.907 761.467,1023.469C761.41,1023.918 761.184,1024.592 760.787,1025.491C760.334,1026.39 760.108,1027.065 760.051,1027.626L760.051,1030.436C760.957,1029.986 761.693,1028.862 762.373,1027.177C763.052,1025.491 763.392,1023.693 763.392,1021.783C762.429,1020.884 761.297,1020.435 760.108,1020.435ZM697.763,1087.519C698.839,1083.923 699.745,1079.653 700.538,1074.709C701.047,1067.63 701.274,1063.135 701.274,1061.112C701.274,1057.516 700.991,1054.482 700.425,1051.786C700.311,1051.336 700.141,1051.111 699.858,1051.111C699.688,1051.111 699.349,1051.224 698.896,1051.561C698.443,1051.786 698.103,1052.01 697.876,1052.01C697.933,1053.583 697.99,1056.168 697.99,1059.764C697.99,1066.506 697.593,1072.574 696.744,1078.08C695.895,1083.586 694.536,1087.856 692.554,1091.115C692.327,1091.901 691.987,1092.688 691.591,1093.587C691.704,1094.036 691.874,1094.486 692.157,1094.935C692.44,1095.385 692.78,1096.059 693.233,1096.845L693.63,1096.845C695.272,1094.149 696.687,1091.002 697.763,1087.519ZM693.176,1153.929C693.12,1153.367 693.007,1153.03 692.893,1152.805C692.78,1152.58 692.61,1152.355 692.327,1152.131C692.044,1151.906 691.761,1151.681 691.421,1151.344C691.025,1153.816 690.458,1155.052 689.779,1155.052C689.666,1155.052 689.439,1154.94 689.156,1154.603C688.363,1154.153 687.967,1151.794 687.967,1147.636C690.119,1138.646 691.195,1131.005 691.195,1124.713C691.195,1120.218 690.628,1116.06 689.496,1112.127L688.76,1110.667C687.74,1111.79 686.948,1113.139 686.268,1114.712C685.645,1116.285 685.079,1118.083 684.569,1119.993C684.06,1121.904 683.437,1124.263 682.701,1126.96L683.947,1129.769C684.456,1129.095 685.022,1127.859 685.589,1126.061C686.155,1124.151 686.721,1122.915 687.174,1122.241C687.514,1122.241 687.74,1122.69 687.91,1123.701C688.08,1124.713 688.137,1125.724 688.137,1126.96C687.91,1128.533 687.514,1131.005 686.891,1134.601C686.268,1138.197 685.872,1140.894 685.645,1142.692C685.419,1144.602 685.306,1146.512 685.306,1148.535C685.306,1152.917 686.155,1156.401 687.91,1158.985C688.816,1160.446 689.439,1161.12 689.892,1161.345C691.364,1161.233 692.44,1158.648 693.176,1153.929ZM673.891,963.595C674.183,961.681 664.284,931.722 664.279,932.813C662.736,930.168 661.144,933.398 659.911,933.698C659.781,933.164 663.967,922.35 664.582,921.581C665.716,926.754 667.403,933.794 675.532,958.056C675.896,957.601 675.828,956.524 676.135,956.139C676.163,956.104 676.209,956.125 676.209,956.125C676.209,956.125 676.381,956.298 676.399,956.353C676.399,956.353 676.462,956.429 676.479,956.485L676.469,956.575C676.447,958.23 675.286,961.465 674.543,963.556C674.467,963.807 674.428,963.932 674.334,964.127C674.138,964.372 673.962,963.817 673.891,963.595ZM730.25,937.81C721.807,935.199 719.987,923.004 720.645,908.961C720.865,904.258 722.517,901.598 724.303,898.896C724.408,898.784 724.48,898.665 724.585,898.553C727.348,894.846 730.218,892.41 733.805,893.072C737.492,893.752 739.596,899.871 740.526,906.96L740.552,907.097C740.127,907.677 738.659,908.527 738.177,908.899L738.046,908.875C737.681,893.259 724.381,892.981 723.665,908.266C722.891,924.792 731.067,943.758 737.585,926.513C738.231,932.561 734.254,938.811 730.25,937.81ZM692.146,942.721C691.417,946.886 688.872,956.177 684.379,931.997C684.13,930.566 683.214,927.138 682.097,928.126C681.282,928.848 679.849,934.067 679.575,935.746C680.558,940.12 681.491,945.399 682.369,948.501L682.423,948.741C682.706,949.999 683.069,950.324 683.801,950.682L683.827,950.802C684.191,952.419 682.675,954.048 682.162,954.503C681.769,954.85 680.81,955.412 680.554,954.274C679.611,950.08 678.853,945.579 677.884,941.266C677.789,940.846 677.301,938.836 677.207,938.417C675.913,936.042 674.342,935.493 672.681,936.963L672.655,936.843C673.12,934.564 677.349,929.384 677.869,928.637C677.929,928.583 678.08,928.45 678.134,928.689L679.022,932.644C679.157,933.243 679.368,933.056 679.55,932.895C680.727,931.853 681.468,925.164 683.46,923.4C685.121,921.931 686.403,926.83 686.915,929.106C687.494,931.683 689.097,945.42 692.146,942.721ZM713.628,1328.292C713.777,1323.815 714.155,1319.055 714.195,1314.064C714.255,1306.577 710.061,1308.714 710.123,1306.849C710.125,1306.787 716.315,1303.286 716.722,1303.339C716.91,1303.364 717.174,1303.961 717.157,1304.458L716.055,1325.361C715.978,1326.725 718.054,1325.81 718.013,1327.054C717.953,1328.857 715.356,1329.33 714.638,1329.173C714.293,1329.128 713.729,1329.055 713.628,1328.292ZM737.24,1303.228C736.477,1305.126 736.174,1307.186 736.145,1309.471L737.254,1321.045C737.369,1322.397 738.375,1322.25 738.501,1323.725C738.678,1325.815 737.346,1326.639 736.541,1326.908C735.612,1327.218 735.121,1326.687 734.888,1325.437C733.402,1307.164 733.28,1303.097 732.485,1297.485C731.816,1293.727 730.101,1291.899 728.381,1291.904C728.196,1291.966 728.159,1291.536 728.133,1291.229C727.846,1287.849 732.89,1287.618 733.358,1284.87L733.544,1284.808C733.823,1284.715 734.107,1285.063 734.154,1285.616C734.247,1286.722 734.104,1287.655 734.197,1288.761C734.526,1292.633 734.917,1296.863 735.604,1303.838L735.655,1303.694C736.211,1301.992 736.819,1300.146 737.841,1299.804C739.235,1299.339 742.582,1301.633 742.616,1304.656C742.664,1307.104 741.245,1314.403 741.255,1314.526C741.357,1325.868 747.316,1326.658 747.492,1327.231C747.927,1328.603 741.649,1329.309 738.951,1318.898L737.898,1319.25C739.49,1315.116 740.82,1312.397 740.538,1309.078C740.309,1306.374 738.376,1304.239 737.24,1303.228ZM620.344,1192.915C618.435,1191.129 614.268,1185.424 626.23,1179.433C626.937,1179.11 628.661,1177.739 628.303,1175.546C628.041,1173.945 625.701,1170.733 624.929,1170.051C622.748,1171.453 620.141,1172.671 618.576,1174.005L618.457,1174.082C617.829,1174.486 617.638,1175.133 617.394,1176.469L617.334,1176.507C616.528,1177.026 615.905,1174.02 615.74,1173.012C615.614,1172.242 615.443,1170.386 616.011,1170.021C618.102,1168.676 620.321,1167.708 622.472,1166.324C622.681,1166.19 623.687,1165.477 623.896,1165.343C625.157,1163.156 625.576,1160.266 625.043,1157.006L625.103,1156.967C626.141,1158.068 628.182,1166.517 628.485,1167.567C628.504,1167.686 628.553,1167.982 628.433,1168.059L626.462,1169.327C626.163,1169.519 626.231,1169.934 626.289,1170.29C626.666,1172.602 629.776,1174.664 630.415,1178.576C630.948,1181.837 628.487,1183.747 627.351,1184.478C626.067,1185.304 619.366,1186.927 620.344,1192.915ZM633.208,1115.007C630.621,1114.364 627.662,1114.056 615.335,1115.412C612.356,1115.729 613.379,1124.517 614.681,1134.909C614.754,1135.527 606.92,1109.969 613.672,1109.783C618.101,1109.684 627.223,1110.28 628.713,1109.187C630.546,1107.884 629.975,1103.743 630.443,1101.593C630.726,1101.637 633.185,1113.637 633.208,1115.007ZM705.269,923.856C705.041,917.309 708.602,911.465 711.503,911.025C714.072,910.585 716.782,913.611 717.362,919.232C718.795,932.596 715.115,938.067 709.958,937.897C706.975,936.046 705.52,930.201 705.269,923.856ZM707.717,921.001C707.961,927.215 710.643,933.015 713.647,932.621C715.065,932.408 715.545,931.39 715.421,928.25C715.2,921.834 713.169,915.773 709.804,916.239C709.672,916.264 708.952,916.472 708.61,916.935C708.58,917.007 708.518,917.085 708.488,917.157C707.856,918.468 707.649,918.971 707.717,921.001ZM782.924,1251.362C782.793,1251.094 783.268,1246.965 783.494,1246.531C783.809,1245.923 784.874,1246.043 785.337,1246.542C786.169,1248.153 785.92,1248.718 785.838,1250.875C785.41,1251.612 784.351,1250.611 782.924,1251.362ZM788.036,1265.66C785.917,1261.058 786.824,1252.535 788.851,1248.805C790.631,1245.464 793.547,1244.536 795.653,1248.036C800.699,1256.295 799.592,1264.68 795.706,1270.603C792.936,1272.725 790.113,1270.085 788.036,1265.66ZM789.007,1260.665C791.04,1265 794.762,1266.168 796.878,1262.352C797.869,1260.53 797.923,1259.21 796.896,1257.02C794.82,1252.507 791.505,1250.382 789.14,1254.675C789.05,1254.849 788.576,1255.848 788.46,1256.594C788.459,1256.682 788.436,1256.814 788.435,1256.902C788.356,1258.618 788.351,1259.235 789.007,1260.665ZM810.796,1188.716C811.184,1191.018 811.891,1192.642 812.842,1193.932L818.341,1198.373C818.975,1198.917 819.46,1197.16 820.152,1197.753C821.133,1198.593 820.758,1201.259 820.434,1202.746C820.06,1204.463 819.569,1204.992 818.914,1204.702C810.376,1197.249 808.589,1195.242 805.783,1193.517C803.83,1192.589 802.124,1194.454 801.192,1197.321C801.117,1197.664 800.916,1197.491 800.771,1197.368C799.186,1196.009 801.829,1187.48 800.92,1185.208L800.995,1184.865C801.107,1184.35 801.409,1184.066 801.668,1184.288C802.187,1184.733 802.504,1185.479 803.023,1185.924C804.839,1187.48 806.841,1189.128 810.165,1191.773L810.132,1191.609C809.714,1189.758 809.263,1187.742 809.674,1185.854C810.234,1183.28 813.024,1178.95 814.321,1180.536C815.383,1181.786 817.7,1188.116 817.757,1188.166C822.611,1194.158 826.183,1184.661 826.521,1184.679C827.338,1184.7 824.225,1195.541 818.355,1194.38L817.932,1196.325C817.048,1191.427 816.62,1187.734 815.063,1186.399C813.794,1185.312 811.841,1187.372 810.796,1188.716ZM632.754,1226.818C633.477,1228.856 632.702,1232.301 633.223,1234.851C633.365,1237.092 634.865,1239.264 635.895,1238.054C636.822,1236.987 636.998,1233.693 636.401,1232.011L633.689,1224.367C632.851,1220.813 633.693,1219.18 635.152,1217.447C637.16,1215.097 641.274,1218.573 642.467,1221.936C643.443,1224.688 644.142,1231.637 642.416,1233.592C641.712,1234.423 641.073,1233.487 640.308,1232.955L640.163,1232.547C639.278,1230.05 641.002,1225.278 639.339,1220.589C638.978,1219.57 637.842,1218.642 637.266,1219.294C635.866,1220.869 636.241,1224.308 637.019,1226.499C637.652,1228.282 638.523,1229.656 639.138,1231.389C639.915,1233.58 640.447,1238.325 639.039,1239.987C636.884,1242.464 632.281,1240.207 630.78,1235.978C629.551,1232.512 630.405,1227.127 630.492,1225.099C631.118,1225.673 631.829,1226.052 632.47,1226.452C632.514,1226.467 632.532,1226.518 632.576,1226.533C632.656,1226.65 632.717,1226.716 632.754,1226.818ZM793.349,1238.57C797.041,1232.021 799.743,1223.327 802.539,1215.409C802.732,1222.469 800.009,1227.747 799.293,1232.553C800.918,1246.322 802.011,1231.239 805.128,1229.948C811.992,1229.948 812.955,1244.732 809.879,1253.654L809.764,1253.951C807.466,1255.786 805.983,1252.968 806.619,1247.961L806.657,1247.863C809.34,1251.571 811.995,1240.446 808.697,1237.606C804.092,1231.904 799.322,1256.985 798.417,1235.933C798.436,1235.884 798.35,1235.595 798.325,1235.557L798.3,1235.519C797.827,1234.796 794.296,1244.503 793.6,1243.438C793.102,1242.677 792.985,1239.508 793.349,1238.57ZM810.403,1223.068C811.039,1220.918 812.94,1220.891 813.894,1218.894C814.863,1217.71 815.238,1214.1 814.256,1212.741C813.382,1211.508 811.799,1212.555 811.275,1214.329L808.892,1222.393C807.609,1225.379 806.511,1224.535 805.112,1222.618C803.202,1219.963 803.093,1211.093 804.141,1207.545C804.999,1204.642 807.897,1200.501 809.509,1202.81C810.181,1203.737 810.017,1205.28 810.09,1206.881L809.962,1207.312C809.184,1209.946 806.28,1208.807 804.819,1213.752C804.501,1214.828 804.546,1217.264 805.083,1218.033C806.385,1219.91 807.807,1217.808 808.49,1215.496C809.046,1213.615 809.316,1211.472 809.856,1209.644C810.539,1207.332 812.495,1204.407 813.841,1206.261C815.87,1209.128 816.74,1218.378 815.422,1222.84C814.342,1226.495 811.517,1227.182 810.551,1227.864C810.555,1226.496 810.435,1225.056 810.353,1223.732C810.341,1223.647 810.357,1223.593 810.346,1223.508C810.367,1223.315 810.371,1223.176 810.403,1223.068ZM722.543,1321.248C723.798,1321.135 724.844,1324.285 726.208,1324.787C727.236,1325.755 728.966,1324.415 729.006,1322.04C729.052,1319.915 727.747,1317.849 726.712,1317.942L722.006,1318.364C720.045,1317.853 719.805,1315.567 719.853,1312.194C719.937,1307.57 723.627,1302.56 725.697,1302.374C727.391,1302.222 730.719,1304.793 730.62,1308.732C730.595,1310.357 729.853,1310.922 729.215,1311.915L728.964,1311.938C727.427,1312.076 726.328,1306.622 723.442,1306.881C722.815,1306.937 721.809,1308.338 721.776,1309.651C721.692,1312.84 723.354,1314.063 724.703,1313.942C725.801,1313.844 726.854,1313.125 727.92,1313.03C729.269,1312.909 731.571,1314.574 731.519,1317.822C731.412,1322.76 727.975,1329.245 725.371,1329.478C723.238,1329.67 721.41,1325.342 720.596,1324.105C721.177,1323.367 721.72,1322.382 722.235,1321.525C722.265,1321.46 722.297,1321.457 722.326,1321.392C722.419,1321.321 722.481,1321.253 722.543,1321.248ZM775.538,1301.17C774.513,1296.829 767.726,1276.821 766.917,1274.672C764.895,1269.411 763.64,1269.29 762.523,1271.242C762.237,1271.626 762.099,1272.112 761.787,1272.531C760.933,1269.916 764.921,1264.485 765.129,1261.872C765.389,1261.522 765.702,1261.328 765.913,1261.947L765.931,1261.999C766.098,1262.601 766.558,1264.392 772.682,1281.678C772.751,1276.768 773.984,1270.597 776.116,1267.733C780.745,1261.514 787.579,1267.762 788.81,1278.151C788.81,1278.151 788.897,1278.184 788.966,1278.166L788.992,1278.131C789.539,1277.397 789.706,1275.442 789.998,1274.297C790.024,1274.262 790.111,1274.295 790.129,1274.347C790.481,1275.379 789.414,1276.811 788.88,1283.249L787.762,1284.751C787.632,1284.925 787.5,1284.651 787.447,1284.496C787.306,1284.083 787.174,1283.584 787.033,1283.171C784.382,1274.842 781.334,1265.464 775.249,1273.639C771.623,1280.241 776.008,1296.099 777.969,1296.4C778.242,1297.312 776.294,1300.606 775.982,1301.026L775.748,1301.34C775.705,1301.323 775.556,1301.222 775.538,1301.17ZM689.478,1295.612C688.353,1296.565 687.594,1298.094 687.022,1300.078L685.233,1311.311C685.011,1312.609 685.932,1313.428 685.69,1314.844C685.346,1316.85 683.977,1316.323 683.204,1315.802C682.312,1315.201 682.007,1314.271 682.1,1312.952C685.158,1295.465 686.023,1291.77 686.664,1286.081C686.973,1282.143 685.9,1278.919 684.385,1277.306C684.207,1277.186 684.277,1276.773 684.328,1276.478C684.883,1273.232 689.379,1277.775 690.447,1275.796L690.626,1275.917C690.893,1276.097 691.061,1276.67 690.97,1277.202C690.788,1278.264 690.438,1278.95 690.257,1280.012C689.621,1283.73 688.954,1287.821 687.892,1294.609L687.971,1294.531C688.868,1293.555 689.844,1292.502 690.826,1293.163C692.164,1294.065 694.562,1299.235 693.87,1301.927C693.327,1304.129 690.333,1309.22 690.313,1309.338C687.693,1319.419 692.75,1325.722 692.768,1326.392C692.823,1328.009 687.127,1322.723 687.24,1311.018L686.229,1310.337C688.618,1308.195 690.439,1307.053 690.984,1303.866C691.428,1301.27 690.237,1297.571 689.478,1295.612ZM786.081,1245.109C785.949,1244.841 786.425,1240.712 786.65,1240.278C786.965,1239.67 788.031,1239.79 788.493,1240.288C789.325,1241.9 789.077,1242.465 788.994,1244.622C788.566,1245.359 787.508,1244.358 786.081,1245.109ZM753.914,947.813C755.144,942.578 756.625,937.67 757.65,931.934C757.66,929.293 756.785,925.761 755.589,925.216C755.53,925.157 755.472,924.804 755.502,924.687C755.562,924.453 755.845,924.076 761.088,925.468C761.088,925.468 761.28,925.588 761.309,925.618C762.326,926.717 760.868,929.367 761.69,930.933L761.718,931.256C763.66,929.757 765.288,929.486 766.157,930.437C767.468,931.834 766.606,937.367 767.582,937.321C768.513,937.158 770.547,934.868 772.639,936.98C775.232,939.597 774.393,947.067 773.329,951.218L773.074,952.212C772.174,955.721 771.336,958.848 772.342,962.882C771.079,964.771 769.217,964.364 768.024,963.086C767.965,963.027 767.597,962.582 767.538,962.522C767.347,962.109 767.585,961.76 767.631,961.438C768.381,958.221 769.426,955.302 770.161,952.143C771.062,948.342 771.86,944.216 770.63,940.62C768.128,933.31 764.943,947.759 764.177,951.328C764.102,951.62 764.071,951.884 764.041,952.001C763.756,953.258 764.209,954.673 764.309,955.73L764.279,955.847C763.919,957.397 761.323,955.807 760.969,955.45C760.453,955.003 760.486,954.152 760.71,953.422C762.625,946.964 766.779,930.035 760.306,933.584L756.948,946.828C756.738,947.646 756.958,948.236 756.793,949.026C756.432,950.576 754.675,949.907 754.116,949.341C753.762,948.985 753.689,948.69 753.914,947.813Z"/>
            </g>
        </g>
    </g>
</svg>
