<?xml version="1.0" encoding="UTF-8" standalone="no"?>
<!DOCTYPE svg PUBLIC "-//W3C//DTD SVG 1.1//EN" "http://www.w3.org/Graphics/SVG/1.1/DTD/svg11.dtd">
<svg width="827px" height="827px" version="1.1" xmlns="http://www.w3.org/2000/svg" xmlns:xlink="http://www.w3.org/1999/xlink" xml:space="preserve" xmlns:serif="http://www.serif.com/" style="fill-rule:evenodd;clip-rule:evenodd;stroke-linejoin:round;stroke-miterlimit:2;">
    <g transform="matrix(1,0,0,1,-2007.874016,-118.110236)">
        <g transform="matrix(2.657765,0,0,3.786588,-3191.903145,-2100.951278)">
            <g id="C" transform="matrix(1.305377,0,0,0.461713,1170.8181,181.852722)">
                <g>
                    <g transform="matrix(0.142527,0,-0,0.282832,599.574498,870.751991)">
                        <circle cx="851.9" cy="852.4" r="822" style="fill:rgb(153,102,204);"/>
                    </g>
                    <g transform="matrix(0.142527,0,-0,0.282832,599.574498,870.751991)">
                        <path d="M851.9,16.4C1313.301,16.4 1687.9,390.999 1687.9,852.4C1687.9,1313.801 1313.301,1688.4 851.9,1688.4C390.499,1688.4 15.9,1313.801 15.9,852.4C15.9,390.999 390.499,16.4 851.9,16.4ZM851.9,44.4C405.953,44.4 43.9,406.453 43.9,852.4C43.9,1298.347 405.953,1660.4 851.9,1660.4C1297.847,1660.4 1659.9,1298.347 1659.9,852.4C1659.9,406.453 1297.847,44.4 851.9,44.4Z"/>
                    </g>
                    <g transform="matrix(0.142528,0,0,0.282835,599.575467,870.759734)">
                        <circle cx="851.9" cy="852.4" r="578.8" style="fill:white;"/>
                    </g>
                    <g transform="matrix(0.142528,0,0,0.282835,599.575467,870.759734)">
                        <path d="M851.9,259.6C1179.075,259.6 1444.7,525.225 1444.7,852.4C1444.7,1179.575 1179.075,1445.2 851.9,1445.2C524.725,1445.2 259.1,1179.575 259.1,852.4C259.1,525.225 524.725,259.6 851.9,259.6ZM851.9,287.6C540.178,287.6 287.1,540.678 287.1,852.4C287.1,1164.122 540.178,1417.2 851.9,1417.2C1163.622,1417.2 1416.7,1164.122 1416.7,852.4C1416.7,540.678 1163.622,287.6 851.9,287.6Z"/>
                    </g>
                </g>
                <g>
                    <g transform="matrix(0.566255,0,0,1.123685,601.839547,875.704162)">
                        <path d="M306.807,118.019L306.8,118.039L306.798,118.2C306.798,118.63 306.678,119.051 306.45,119.416C300.736,128.579 295.812,139.024 291.773,150.749C287.695,162.585 283.816,176.013 280.236,191.033C280.003,192.01 279.163,192.722 278.161,192.793C277.159,192.863 276.228,192.275 275.861,191.34C272.608,183.061 269.261,175.865 265.713,169.754L265.699,169.73C262.299,163.707 258.025,157.976 253.075,152.628C250.698,150.452 247.777,148.735 244.408,147.458C240.944,146.244 237.202,145.495 233.26,145.398C230.136,145.402 227.194,145.859 224.431,146.68C218.849,148.777 213.378,152.591 208.08,158.268L208.053,158.297C202.506,164.038 198.028,170.168 194.524,176.688L194.514,176.708C189.197,186.374 186.498,197.106 186.498,208.9C186.498,215.685 187.469,222.372 189.407,229.06C191.339,235.724 194.038,241.812 197.707,247.318C209.103,264.118 223.751,274.208 241.51,277.42C242.549,277.513 243.946,277.602 245.7,277.602C253.565,277.602 260.77,275.717 267.213,271.832L267.235,271.819C273.941,267.874 281.63,262.148 290.309,254.751C291.108,254.07 292.267,254.017 293.125,254.622C293.983,255.227 294.321,256.337 293.948,257.318C293.114,259.506 292.176,261.59 291.134,263.57C290.111,265.514 288.884,267.561 287.554,269.71C286.267,271.789 285.078,273.77 283.989,275.651L283.955,275.708C276.9,287.121 267.046,295.527 254.493,300.818C242.126,306.03 228.23,308.598 212.9,308.598C206.14,308.598 199.483,307.782 192.723,306.348L192.716,306.347C186.084,304.918 179.452,302.877 173.023,300.224C172.976,300.205 172.93,300.184 172.884,300.161C165.891,296.716 160.116,293.571 155.555,290.632C150.934,287.653 146.722,284.266 142.819,280.568L142.797,280.547C138.886,276.738 135.385,272.519 132.194,267.784C129.056,263.127 125.813,257.459 122.27,250.777C122.246,250.733 122.225,250.688 122.204,250.643C119.439,244.497 117.389,238.147 115.955,231.591C114.521,225.034 113.802,218.169 113.802,211.1C113.802,202.007 114.926,193.117 117.174,184.33C119.425,175.527 122.802,167.44 127.101,159.866C127.117,159.837 127.134,159.81 127.151,159.782C131.238,153.243 135.835,147.42 140.943,142.107L140.959,142.091C146.073,136.875 151.699,132.172 157.733,128.183C163.77,124.192 170.421,120.713 177.788,117.95C185.043,115.191 192.605,113.25 200.371,112.126C200.435,112.116 200.5,112.11 200.565,112.106C207.41,111.703 214.255,111.502 221.1,111.502C227.429,111.502 234.259,111.602 241.693,111.904L241.694,111.904C249.008,112.204 256.823,112.605 265.138,113.106C273.414,113.605 280.594,114.004 286.577,114.203C292.551,114.402 298.626,114.602 304.8,114.602C305.73,114.602 306.568,115.162 306.923,116.021C307.196,116.68 307.144,117.415 306.807,118.019Z"/>
                    </g>
                    <g transform="matrix(0.566255,0,0,1.123685,601.839547,875.704162)">
                        <path d="M229.6,302.9C235.7,302.1 241.6,300.7 247.3,298.7C253,296.8 258.2,294.2 263.1,290.9C268,287.7 272.2,283.7 275.9,278.9C278.2,276.5 280.8,272.5 283.6,267C277.6,271.5 271.4,275.2 264.9,278.1C258.5,281 251.7,282.4 244.7,282.4C235.8,282.4 227.4,279.8 219.3,274.7C209.7,268.8 201.7,261.4 195.5,252.5C189.3,243.6 185,233.3 182.7,221.6C182.1,217.3 181.8,213.4 181.8,209.9C181.8,203.1 182.7,196.1 184.6,189.1C186.5,182.1 189.1,175.6 192.4,169.7C195.8,163.8 199.6,158.9 204,154.9C208.1,150.6 212.7,147.2 217.8,144.4C222.9,141.7 228,140.3 233.2,140.3C235.4,140.3 237.5,140.5 239.4,141C243.9,142.6 247.6,144.2 250.3,145.6C253.1,147.1 255.7,149.1 258.1,151.7C266,161 272.5,171.6 277.5,183.6C279.9,172 283,160.7 286.9,149.7C290.8,138.7 295.3,128.6 300.3,119.6C294.9,119.5 289.5,119.3 283.9,119C278.4,118.7 272,118.2 264.7,117.6C257.4,117 250.4,116.5 243.8,116.1C237.2,115.7 230.9,115.5 225,115.5C217.5,115.5 210.5,115.9 203.8,116.6C197.1,117.4 190.6,118.7 184.1,120.5C177.6,122.4 171.3,125 165.2,128.4C143.3,142.6 129,160.4 122.1,181.8C119.3,190.3 117.9,199.4 117.9,208.9C117.9,220.5 120,231.8 124.1,243C128.2,254.1 133.8,263.7 140.7,271.5C142.5,273.3 144.1,274.9 145.4,276.3C146.7,277.7 148.1,279 149.3,280.2C150.6,281.4 151.7,282.3 152.5,282.8C157.4,286.9 163,290.4 169.4,293.5C175.8,296.5 182.4,298.9 189.3,300.6C196.2,302.3 203.2,303.4 210.4,303.9C217.2,304.2 223.5,303.8 229.6,302.9Z" style="fill:rgb(153,102,204);fill-rule:nonzero;"/>
                    </g>
                    <g transform="matrix(0.566255,0,0,1.123685,601.839547,875.704162)">
                        <path d="M158.3,277.2C152.4,272 147.1,266.1 142.5,259.4C137.9,252.7 134.2,245.5 131.3,237.8C128.5,230.1 126.7,222.1 126.2,213.8C126.2,206.1 127,198.8 128.5,191.9C130.1,185 132.4,178.4 135.6,172.1C138.8,165.8 142.4,160.1 146.6,155C150.8,150 155.6,145.3 161.1,141C169.5,134.5 179,129.9 189.5,127.3C200,124.7 211.7,123.4 224.4,123.4C230.1,123.4 235.3,123.5 240.1,123.8C244.9,124.1 250.1,124.5 255.8,124.9C261.5,125.4 267.8,125.9 274.7,126.4C281.6,126.9 286.8,127.3 290,127.4L276.1,165.4C273.1,160.2 269.7,155.2 265.9,150.4C262.1,145.6 257.9,141.2 253.1,137.2C248.3,133.2 243.3,130.3 238.2,128.3C236.5,127.7 234.7,127.5 232.8,127.5C228.7,127.5 224.9,128.5 221.4,130.4C217.9,132.3 213.6,135 208.8,138.3C204.9,142.1 201.8,145.1 199.7,147.3C197.6,149.5 195.4,152.1 193.2,155.2C187.1,162.2 182.2,170.7 178.5,180.6C174.8,190.5 173,200.5 173,210.7C173,217.1 173.7,223.1 175.2,228.6C178.2,240.5 183.5,251.2 191,260.7C198.5,270.2 207.6,278 218.2,284.1C225.2,287.7 232.5,289.6 240.1,289.6C246.6,289.6 252.6,288.4 258.1,285.9C255.5,288.9 251.3,291.2 245.6,293.1C239.9,294.9 234.3,296.3 228.7,297.1C223.1,298 219.5,298.4 217.7,298.4C213.4,298.3 209,297.9 204.7,297.2C200.3,296.4 196.6,295.6 193.6,294.8C190.5,293.9 185.2,292.4 177.7,290.1C170.6,286.6 164.2,282.4 158.3,277.2Z" style="fill-rule:nonzero;"/>
                    </g>
                    <g transform="matrix(0.283409,0,0,0.5624,302.575039,812.924898)">
                        <path d="M1614.393,368.972C1606.801,368.972 1600.207,370.97 1594.413,374.966C1592.815,376.565 1592.016,377.763 1592.016,378.563C1592.016,378.962 1593.614,379.562 1596.611,380.161C1604.004,374.567 1610.797,371.769 1617.191,371.769C1618.589,372.369 1619.189,373.368 1619.189,374.367C1618.989,375.166 1618.19,376.365 1616.791,377.963C1615.193,379.562 1614.393,380.76 1614.194,381.759L1614.194,386.754C1617.39,385.955 1619.988,383.957 1622.385,380.96C1624.783,377.963 1625.982,374.766 1625.982,371.37C1622.585,369.771 1618.589,368.972 1614.393,368.972M1612.196,400.741C1612.196,392.948 1610.597,386.355 1607.201,381.36C1606.002,381.36 1605.402,382.359 1605.402,384.557C1605.402,384.756 1605.802,386.754 1606.401,390.75C1607.001,394.746 1607.4,398.343 1607.4,401.34C1607.4,405.336 1606.601,408.932 1605.202,412.329C1603.005,412.329 1601.406,411.73 1600.407,410.531C1599.408,409.332 1598.409,407.534 1597.81,405.336C1597.21,403.138 1596.411,400.541 1595.612,397.544C1594.813,397.344 1594.213,397.144 1593.814,396.745C1593.414,396.345 1592.815,396.145 1592.215,396.145C1592.016,396.145 1591.416,396.345 1590.417,396.944C1590.417,400.141 1590.817,402.938 1591.616,405.536C1592.415,408.133 1593.814,410.93 1595.612,413.927C1597.41,416.924 1599.208,419.522 1601.007,421.52C1602.605,423.518 1605.003,426.115 1607.6,429.312L1607.6,428.913C1610.597,416.924 1612.196,407.534 1612.196,400.741ZM1601.406,389.552C1601.406,389.152 1601.007,388.353 1600.207,387.753L1565.642,374.167C1565.642,373.168 1566.041,372.369 1567.04,371.769C1568.039,371.17 1569.038,370.77 1570.237,370.77C1577.03,370.77 1583.424,371.17 1589.618,371.969C1589.818,371.569 1590.217,371.17 1590.817,370.371C1591.216,369.771 1591.816,369.372 1592.415,369.172C1587.22,366.774 1580.227,365.575 1571.836,365.575C1563.044,365.575 1555.452,366.375 1549.058,367.973C1551.855,370.77 1555.052,373.168 1558.449,375.366C1561.846,377.564 1565.242,379.362 1568.439,380.96C1571.636,382.559 1575.232,383.957 1579.228,385.356C1583.224,386.754 1588.02,388.553 1593.814,390.551C1598.609,390.75 1601.007,390.351 1601.406,389.552ZM1430.776,418.723C1435.97,415.326 1441.365,410.93 1447.359,405.536C1453.153,400.141 1458.748,395.146 1463.943,390.551C1474.133,381.759 1481.325,373.967 1485.921,367.374C1480.726,366.574 1475.331,365.975 1469.337,365.975C1457.749,365.975 1446.36,367.174 1434.971,369.771C1423.583,372.369 1413.393,376.165 1404.402,381.36C1396.41,389.352 1392.414,396.745 1392.414,403.338C1395.211,403.338 1398.008,402.539 1400.406,401.14C1402.604,395.945 1406,391.949 1410.196,388.752C1414.592,385.556 1419.387,383.158 1424.582,381.36C1429.976,379.562 1435.571,378.163 1441.365,377.164C1447.159,376.165 1453.353,374.966 1460.146,373.767C1460.946,373.767 1461.345,373.967 1461.545,374.167C1461.745,374.567 1462.144,375.566 1462.944,377.164C1462.144,379.761 1459.547,383.158 1454.952,387.354C1450.356,391.55 1447.559,394.147 1446.96,395.146C1434.172,407.534 1422.384,415.925 1411.195,420.121C1411.195,423.118 1411.395,425.116 1411.595,425.916C1411.794,426.715 1412.394,427.114 1413.393,427.114C1419.587,425.116 1425.581,422.119 1430.776,418.723ZM1474.932,700.243C1485.321,700.243 1495.112,698.645 1504.103,695.648C1500.307,693.45 1491.515,687.456 1477.929,677.266C1464.142,667.276 1452.754,658.884 1443.563,652.291C1434.372,645.697 1427.779,642.101 1424.182,641.302C1417.389,641.302 1413.593,642.501 1413.193,645.098L1416.989,654.289L1430.776,656.687C1431.974,657.486 1434.372,658.685 1438.368,660.483C1442.164,662.281 1444.562,663.48 1445.561,664.079C1450.356,666.677 1454.152,669.474 1457.349,672.471C1460.346,675.468 1465.141,680.063 1471.335,686.257C1455.151,686.057 1440.566,684.059 1427.978,680.663C1415.391,677.266 1405.401,670.273 1398.008,660.083C1396.21,658.285 1393.413,657.486 1389.816,657.486C1387.219,657.486 1384.821,658.085 1382.823,659.284C1383.423,662.481 1385.021,665.478 1387.618,668.275C1390.216,670.872 1393.013,673.47 1396.41,675.868C1399.806,678.265 1403.003,680.463 1406.2,682.461C1429.777,694.249 1452.754,700.243 1474.932,700.243ZM1442.564,671.472C1439.767,669.274 1437.968,667.676 1437.169,666.677C1434.971,667.875 1432.174,668.475 1428.977,668.475C1423.783,668.475 1419.387,666.077 1415.591,661.082C1411.794,656.087 1407.998,649.094 1404.002,639.703C1400.006,630.513 1396.609,623.32 1393.812,618.524C1391.015,613.729 1387.818,611.132 1384.022,611.132C1379.626,614.329 1377.429,619.124 1377.429,625.717C1377.429,628.315 1378.228,631.112 1379.626,633.709C1380.026,634.109 1382.024,634.509 1385.62,634.509C1385.82,633.31 1386.02,632.511 1386.22,631.911C1386.42,631.312 1386.42,630.712 1386.619,630.113C1386.819,629.514 1387.019,629.114 1387.219,628.714C1387.419,628.515 1388.018,628.315 1389.017,627.915C1391.814,631.112 1394.412,635.108 1396.609,639.903C1398.807,644.698 1401.205,649.494 1404.002,654.689C1406.6,659.883 1409.397,663.879 1412.394,667.076C1415.191,670.273 1419.187,672.871 1424.182,674.869C1430.376,675.868 1437.968,676.467 1446.96,676.467C1446.96,675.468 1445.561,673.67 1442.564,671.472ZM1394.412,488.254C1398.208,481.86 1401.405,474.268 1404.202,465.476C1406,452.889 1406.799,444.897 1406.799,441.3C1406.799,434.907 1405.8,429.512 1403.802,424.717C1403.403,423.918 1402.803,423.518 1401.804,423.518C1401.205,423.518 1400.006,423.718 1398.408,424.317C1396.809,424.717 1395.61,425.116 1394.811,425.116C1395.011,427.914 1395.211,432.509 1395.211,438.903C1395.211,450.891 1393.812,461.68 1390.815,471.47C1387.818,481.261 1383.023,488.853 1376.03,494.647C1375.231,496.046 1374.032,497.445 1372.633,499.043C1373.033,499.842 1373.632,500.641 1374.631,501.441C1375.63,502.24 1376.829,503.439 1378.428,504.837L1379.826,504.837C1385.62,500.042 1390.615,494.448 1394.412,488.254ZM1421.585,622.72C1417.988,618.125 1412.793,612.73 1406.2,606.337C1403.403,604.538 1399.606,601.941 1394.611,598.344C1389.616,594.748 1385.82,591.951 1383.023,590.352C1380.226,588.554 1376.629,587.156 1372.234,585.757C1371.035,586.956 1370.236,588.554 1369.636,590.552C1372.833,593.349 1378.627,597.545 1387.419,603.14C1396.01,608.734 1403.203,613.929 1408.598,618.724C1413.992,623.32 1418.188,629.114 1421.185,636.107L1424.382,636.107C1425.181,636.107 1426.18,636.307 1427.179,636.307C1426.979,631.711 1425.181,627.116 1421.585,622.72ZM1383.223,443.099C1384.222,443.099 1385.221,442.099 1386.02,440.301C1386.819,438.503 1387.219,436.505 1387.219,434.507C1386.619,434.507 1385.021,434.107 1382.623,433.508C1380.226,432.909 1378.228,432.309 1377.029,431.91C1381.624,426.915 1389.816,421.92 1402.204,416.725C1414.392,411.53 1422.983,407.734 1427.978,404.936C1432.973,402.139 1437.369,397.144 1441.365,389.951C1439.767,387.953 1437.369,386.954 1433.972,386.954C1431.175,386.954 1426.58,388.153 1420.186,390.351C1420.985,390.351 1421.984,390.75 1423.183,391.749C1424.382,392.549 1425.181,393.348 1425.98,393.947C1425.98,396.145 1425.381,397.544 1424.382,398.143C1419.986,400.741 1412.394,403.937 1401.405,407.534C1390.416,411.13 1382.024,414.727 1376.03,418.123C1370.036,421.52 1365.64,426.515 1362.643,433.108C1362.643,435.906 1363.043,437.704 1363.642,438.903C1364.242,439.902 1365.44,440.901 1367.239,441.5C1368.837,442.099 1370.236,442.699 1371.035,443.099L1383.223,443.099ZM1395.011,558.184C1395.011,548.194 1392.813,538.404 1388.617,528.614C1385.421,522.42 1381.425,516.825 1376.23,511.431C1371.035,506.236 1366.04,502.839 1360.845,501.241C1360.046,501.441 1358.847,502.839 1357.448,505.636C1362.643,511.231 1367.438,516.426 1371.634,521.621C1375.83,526.815 1379.427,532.21 1382.024,538.004C1384.621,543.799 1386.02,549.793 1386.02,555.787C1386.02,560.382 1384.821,565.777 1382.424,571.971C1382.224,573.169 1381.425,574.568 1380.426,576.566C1379.227,578.364 1378.627,579.963 1378.627,580.962C1378.627,581.761 1378.827,582.36 1379.427,582.76C1381.225,583.759 1382.623,584.758 1383.622,585.757C1384.621,586.756 1385.221,587.156 1385.221,587.156C1385.421,587.156 1386.22,586.756 1387.419,585.957C1392.613,577.965 1395.011,568.774 1395.011,558.184ZM1378.228,606.337C1378.028,605.338 1377.628,604.738 1377.229,604.339C1376.829,603.939 1376.23,603.539 1375.231,603.14C1374.232,602.74 1373.233,602.34 1372.034,601.741C1370.635,606.137 1368.637,608.335 1366.24,608.335C1365.84,608.335 1365.041,608.135 1364.042,607.535C1361.245,606.736 1359.846,602.54 1359.846,595.148C1367.438,579.163 1371.235,565.577 1371.235,554.388C1371.235,546.396 1369.237,539.003 1365.241,532.01C1363.842,530.612 1362.843,529.613 1362.643,529.413C1359.047,531.411 1356.25,533.808 1353.852,536.606C1351.654,539.403 1349.656,542.6 1347.858,545.996C1346.06,549.393 1343.862,553.589 1341.264,558.384L1345.66,563.379C1347.458,562.18 1349.456,559.983 1351.454,556.786C1353.452,553.389 1355.45,551.191 1357.049,549.992C1358.248,549.992 1359.047,550.792 1359.646,552.59C1360.246,554.388 1360.445,556.186 1360.445,558.384C1359.646,561.181 1358.248,565.577 1356.05,571.971C1353.852,578.364 1352.453,583.16 1351.654,586.356C1350.855,589.753 1350.455,593.15 1350.455,596.746C1350.455,604.538 1353.452,610.732 1359.646,615.328C1362.843,617.925 1365.041,619.124 1366.639,619.523C1371.834,619.324 1375.63,614.728 1378.228,606.337ZM1348.457,461.88C1348.457,453.488 1350.455,444.497 1354.651,434.707C1356.05,430.711 1359.047,426.315 1364.042,421.32C1368.837,416.325 1373.632,411.53 1378.028,406.934C1382.424,402.339 1385.221,397.744 1386.42,393.747C1376.629,399.542 1367.638,406.535 1359.446,415.126C1351.055,423.718 1345.26,432.709 1342.064,442.099C1340.865,446.495 1340.265,451.69 1340.265,457.884C1340.265,464.277 1341.264,471.87 1343.462,480.661C1343.462,483.259 1344.062,484.457 1345.26,484.457C1346.06,484.457 1347.258,483.658 1348.857,482.26C1350.255,480.861 1351.254,479.462 1351.454,478.264C1349.456,472.669 1348.457,467.275 1348.457,461.88ZM1359.446,521.021C1359.446,520.022 1359.047,518.823 1358.048,517.625C1357.249,516.825 1356.649,516.426 1355.85,516.426C1355.45,516.426 1354.252,516.626 1352.453,517.025C1350.655,517.425 1349.057,517.625 1347.458,517.625C1347.059,516.026 1346.859,515.027 1346.859,514.228C1346.859,510.432 1349.456,505.237 1354.851,498.444C1362.843,489.453 1368.837,482.06 1372.833,475.666C1376.829,469.472 1379.427,462.08 1380.426,453.488C1379.626,452.289 1377.828,451.69 1375.43,451.69C1372.633,451.69 1368.837,452.289 1364.042,453.688C1359.247,455.087 1356.25,455.686 1355.251,455.686C1354.451,456.885 1354.052,458.084 1354.052,459.482C1354.252,460.281 1354.451,461.081 1354.851,462.279C1355.251,463.478 1355.65,464.477 1356.05,465.676C1357.249,465.276 1358.647,464.677 1360.246,463.878C1361.844,463.278 1363.442,462.679 1364.841,462.479C1366.439,462.479 1367.438,463.478 1367.638,465.276C1364.641,470.471 1360.046,476.665 1354.052,484.058C1348.058,491.451 1343.662,498.044 1340.465,503.838C1337.268,509.632 1335.67,516.226 1335.67,523.619C1335.67,527.814 1336.07,531.81 1337.069,535.607C1337.268,535.407 1337.668,535.407 1337.868,535.407C1338.267,535.407 1338.467,535.207 1338.667,535.207L1359.446,521.021ZM1396.21,651.492C1396.21,650.293 1395.411,648.495 1394.012,646.097C1392.613,643.5 1391.814,642.501 1391.814,642.7C1371.235,640.503 1356.05,630.113 1345.66,611.531C1344.461,609.533 1343.462,606.936 1343.063,603.739C1342.663,600.542 1342.064,597.345 1341.664,594.348C1341.264,591.351 1340.265,588.954 1338.867,587.355C1336.669,586.356 1335.071,585.757 1333.872,585.757C1332.473,585.757 1331.075,586.356 1329.676,587.355C1329.676,593.549 1330.475,599.343 1332.273,604.738C1334.072,610.133 1336.469,615.328 1339.266,620.123C1342.263,624.918 1345.26,629.713 1348.657,634.109C1360.845,645.697 1375.83,652.091 1393.213,653.69C1395.211,653.69 1396.21,652.89 1396.21,651.492ZM1333.872,561.781C1329.676,557.185 1326.279,551.391 1324.081,544.798C1323.082,540.002 1322.683,534.608 1322.683,529.013C1322.683,512.829 1327.078,497.644 1336.07,483.658L1333.272,470.871C1325.88,477.464 1320.685,485.656 1317.288,495.846C1313.892,506.036 1312.293,517.425 1312.293,529.812C1312.293,537.405 1312.893,545.197 1314.091,553.189C1316.889,560.182 1320.685,565.977 1325.88,570.572C1331.075,575.167 1337.868,579.563 1346.06,583.959C1347.258,583.359 1347.858,582.76 1348.257,582.36C1348.657,581.961 1348.857,581.361 1349.057,580.362C1349.256,579.563 1349.656,577.765 1350.255,575.367C1343.662,570.772 1338.068,566.376 1333.872,561.781Z" style="fill:white;fill-rule:nonzero;"/>
                    </g>
                </g>
                <g transform="matrix(0.700557,0,0,0.700557,237.793164,354.064082)">
                    <path d="M622.502,870.066C622.918,867.333 608.789,824.569 608.781,826.127C606.579,822.35 604.306,826.961 602.546,827.39C602.36,826.627 608.335,811.192 609.214,810.094C610.832,817.478 613.24,827.526 624.844,862.159C625.363,861.51 625.266,859.972 625.705,859.423C625.745,859.373 625.81,859.403 625.81,859.403C625.81,859.403 626.056,859.649 626.081,859.729C626.081,859.729 626.171,859.837 626.196,859.916L626.181,860.045C626.15,862.408 624.493,867.025 623.432,870.01C623.323,870.368 623.268,870.547 623.134,870.826C622.854,871.175 622.603,870.383 622.502,870.066ZM648.56,840.269C647.519,846.214 643.886,859.477 637.472,824.962C637.116,822.919 635.81,818.025 634.215,819.437C633.052,820.467 631.006,827.916 630.615,830.313C632.018,836.556 633.35,844.093 634.603,848.52L634.68,848.862C635.084,850.658 635.602,851.123 636.647,851.633L636.685,851.804C637.204,854.113 635.04,856.439 634.307,857.087C633.747,857.583 632.377,858.385 632.012,856.76C630.667,850.774 629.584,844.349 628.2,838.192C628.066,837.593 627.369,834.724 627.235,834.125C625.388,830.736 623.145,829.952 620.775,832.05L620.736,831.879C621.4,828.626 627.437,821.232 628.179,820.165C628.265,820.089 628.481,819.898 628.558,820.24L629.826,825.885C630.018,826.74 630.32,826.473 630.579,826.244C632.259,824.757 633.317,815.208 636.161,812.691C638.531,810.593 640.361,817.586 641.092,820.836C641.918,824.513 644.207,844.122 648.56,840.269ZM655.829,849.435C653.068,827.447 652.816,815.54 645.046,812.145L644.874,811.94L644.806,811.781C644.577,809.964 651.206,803.114 651.756,802.843C653.267,802.095 652.441,807.908 653.723,807.274C655.554,806.368 656.151,800.669 658.166,799.672C659.219,799.151 661.393,800.199 662.285,801.495L662.331,801.472C662.982,804.721 663.29,809.104 661.001,810.237C660.451,810.509 658.336,803.738 656.276,804.757C656.184,804.802 655.875,805.051 655.829,805.074C653.928,808.524 653.699,810.567 653.836,811.658C654.406,816.201 655.595,820.245 656.04,824.947C656.154,825.469 656.52,826.446 656.943,826.333C658.432,825.404 662.003,824.024 667.555,820.988C670.38,825.285 660.089,829.699 658.109,830.582L657.789,830.74C657.514,830.876 657.285,830.99 657.239,831.784C657.9,840.915 657.723,835.471 658.875,845.42L658.898,845.601C659.138,847.509 656.962,849.164 656.367,849.459C656.138,849.572 656.093,849.595 655.829,849.435ZM667.291,813.342C666.965,803.996 672.049,795.654 676.19,795.026C679.858,794.398 683.725,798.717 684.553,806.741C686.599,825.817 681.346,833.627 673.984,833.384C669.726,830.741 667.649,822.399 667.291,813.342ZM670.786,809.265C671.135,818.136 674.963,826.415 679.25,825.853C681.274,825.548 681.96,824.096 681.783,819.614C681.467,810.454 678.569,801.803 673.765,802.468C673.577,802.505 672.549,802.801 672.06,803.462C672.018,803.565 671.929,803.676 671.886,803.779C670.984,805.65 670.688,806.367 670.786,809.265ZM702.95,833.259C690.898,829.532 688.301,812.125 689.239,792.079C689.554,785.366 691.911,781.569 694.461,777.713C694.611,777.552 694.714,777.383 694.863,777.223C698.808,771.931 702.904,768.454 708.025,769.399C713.288,770.369 716.291,779.104 717.618,789.224L717.656,789.419C717.049,790.247 714.954,791.46 714.266,791.991L714.078,791.956C713.558,769.666 694.572,769.269 693.551,791.087C692.446,814.677 704.117,841.75 713.42,817.133C714.343,825.767 708.665,834.689 702.95,833.259ZM717.392,815.276C718.776,806.319 725.028,802.148 729.008,804.508C732.545,806.53 735.376,813.313 734.699,821.393C733.163,840.656 726.849,844.211 720.02,838.747C716.522,833.251 716.09,823.986 717.392,815.276ZM721.391,813.956C720.114,822.486 722.193,832.938 726.296,835.463C728.241,836.618 729.144,835.75 729.788,831.44C731.148,822.664 730.004,812.526 725.4,809.73C725.218,809.63 724.204,809.176 723.629,809.445C723.571,809.511 723.467,809.552 723.409,809.617C722.229,810.723 721.823,811.182 721.391,813.956ZM736.729,847.538C738.485,840.066 740.599,833.06 742.063,824.871C742.076,821.103 740.827,816.06 739.12,815.283C739.036,815.198 738.954,814.694 738.996,814.527C739.082,814.194 739.485,813.655 746.97,815.642C746.97,815.642 747.243,815.813 747.285,815.855C748.736,817.425 746.655,821.207 747.829,823.443L747.869,823.904C750.641,821.764 752.964,821.378 754.205,822.735C756.076,824.729 754.845,832.627 756.238,832.562C757.569,832.329 760.471,829.06 763.458,832.075C767.159,835.811 765.961,846.473 764.442,852.399L764.078,853.818C762.795,858.826 761.597,863.29 763.033,869.047C761.23,871.745 758.573,871.164 756.87,869.34C756.786,869.255 756.261,868.62 756.177,868.535C755.904,867.945 756.244,867.447 756.309,866.987C757.38,862.395 758.871,858.228 759.921,853.719C761.206,848.293 762.345,842.403 760.591,837.27C757.018,826.835 752.472,847.461 751.378,852.555C751.271,852.972 751.228,853.349 751.185,853.516C750.778,855.311 751.425,857.33 751.568,858.839L751.525,859.006C751.011,861.219 747.304,858.948 746.8,858.439C746.063,857.801 746.11,856.587 746.43,855.544C749.163,846.327 755.093,822.161 745.853,827.227L741.06,846.132C740.76,847.3 741.074,848.142 740.838,849.27C740.324,851.482 737.816,850.526 737.017,849.72C736.512,849.21 736.408,848.79 736.729,847.538ZM564.429,1086.197C560.736,1085.278 556.512,1084.839 538.917,1086.775C534.664,1087.227 536.125,1099.772 537.983,1114.605C538.087,1115.488 526.904,1079.005 536.543,1078.74C542.865,1078.599 555.886,1079.45 558.013,1077.889C560.629,1076.029 559.815,1070.118 560.482,1067.049C560.887,1067.111 564.397,1084.241 564.429,1086.197ZM534.86,1129.738C532.83,1105.157 548.593,1127.706 548.746,1107.554C548.731,1107.378 548.961,1106.853 548.968,1106.941C550.224,1110.048 552.626,1116.028 552.916,1119.54C552.952,1119.979 553.047,1120.579 552.796,1120.841L551.778,1121.171C547.443,1122.581 536.952,1119.863 538.163,1134.523C538.38,1137.157 539.012,1138.754 540.162,1138.38C542.639,1137.575 545.84,1136.174 548.126,1135.25C551.201,1133.98 548.649,1124.533 550.02,1124.087C551.48,1123.612 554.842,1138.474 554.832,1140.551C554.854,1140.814 554.602,1141.617 554.514,1141.646C554.337,1141.704 553.459,1142.079 553.327,1142.122C549.522,1143.36 544.391,1144.487 540.454,1145.767C539.127,1146.199 539.086,1149.007 539.164,1151.596C534.792,1152.567 537.221,1139.066 537.264,1139.593C537.163,1138.364 535.107,1132.723 534.86,1129.738ZM546.066,1197.405C543.341,1194.856 537.393,1186.712 554.469,1178.161C555.477,1177.7 557.938,1175.743 557.427,1172.612C557.054,1170.327 553.713,1165.742 552.611,1164.768C549.498,1166.77 545.777,1168.509 543.543,1170.413L543.372,1170.523C542.477,1171.099 542.204,1172.022 541.855,1173.93L541.77,1173.985C540.619,1174.725 539.729,1170.434 539.494,1168.996C539.315,1167.896 539.071,1165.247 539.881,1164.726C542.866,1162.806 546.033,1161.424 549.104,1159.449C549.402,1159.257 550.838,1158.24 551.137,1158.048C552.936,1154.927 553.535,1150.801 552.775,1146.147L552.86,1146.092C554.342,1147.664 557.254,1159.724 557.687,1161.223C557.715,1161.392 557.784,1161.815 557.613,1161.925L554.799,1163.735C554.372,1164.009 554.469,1164.602 554.552,1165.109C555.091,1168.41 559.53,1171.353 560.442,1176.938C561.203,1181.592 557.689,1184.319 556.069,1185.361C554.235,1186.541 544.671,1188.858 546.066,1197.405ZM553.905,1196.12L555.58,1194.416C559.321,1192.711 563.501,1198.755 566.542,1205.459C567.708,1209.971 567.259,1212.327 566.34,1217.16C568.227,1217.64 570.65,1212.977 572.103,1210.8C573.272,1208.111 573.769,1199.309 574.448,1198.619C576.362,1196.671 578.813,1209.672 579.323,1211.254L576.313,1214.814L557.044,1234.411C556.486,1234.979 557.224,1238.227 557.088,1239.264L556.969,1239.386C556.091,1240.278 553.657,1234.756 553.187,1232.936C553.146,1232.777 552.982,1231.945 552.941,1231.787C553.212,1229.911 555.954,1229.022 555.525,1227.359C555.525,1227.359 555.465,1227.321 555.444,1227.241C551.783,1224.767 550.327,1222.25 548.647,1215.162C548.102,1206.42 549.915,1200.177 553.905,1196.12ZM559.29,1198.441C554.555,1201.757 551.135,1211.532 553.609,1221.111C555.012,1224.982 556.686,1226.978 557.604,1226.045L563.508,1220.04C563.181,1218.774 562.498,1218.469 562.191,1217.281C561.312,1213.877 564.095,1209.247 562.48,1202.993C561.846,1200.538 560.775,1198.73 559.29,1198.441ZM563.78,1245.799C564.813,1248.709 563.707,1253.627 564.45,1257.267C564.652,1260.465 566.794,1263.565 568.264,1261.838C569.588,1260.315 569.839,1255.613 568.987,1253.212L565.116,1242.301C563.919,1237.228 565.121,1234.897 567.203,1232.423C570.071,1229.069 575.942,1234.03 577.646,1238.831C579.039,1242.759 580.037,1252.679 577.573,1255.469C576.568,1256.655 575.656,1255.319 574.564,1254.56L574.357,1253.978C573.093,1250.414 575.555,1243.601 573.181,1236.909C572.665,1235.454 571.043,1234.129 570.222,1235.059C568.224,1237.307 568.759,1242.216 569.869,1245.344C570.772,1247.89 572.016,1249.851 572.893,1252.324C574.003,1255.452 574.762,1262.225 572.752,1264.597C569.676,1268.134 563.105,1264.912 560.963,1258.874C559.208,1253.928 560.428,1246.24 560.553,1243.346C561.446,1244.165 562.461,1244.706 563.376,1245.277C563.438,1245.298 563.464,1245.371 563.526,1245.393C563.641,1245.56 563.729,1245.654 563.78,1245.799ZM599.577,1341.356C590.839,1321.847 599.319,1286.844 612.64,1288.304C612.606,1288.696 612.473,1289.054 612.145,1289.789C602.899,1295.501 597.728,1318.436 602.756,1338.489C605.995,1345.212 606.669,1341.446 610.123,1341.742C610.24,1342.025 610.368,1342.432 610.199,1342.738L610.119,1342.952C608.339,1343.997 601.632,1343.918 599.577,1341.356ZM590.78,1277.9C589.598,1274.184 588.361,1268.068 590.603,1264.275C592.388,1260.365 595.297,1261.08 597.2,1261.652C606.447,1264.338 630.788,1306.761 636.006,1310.851L636.078,1310.957C636.187,1311.115 636.242,1311.417 636.135,1311.703C629.762,1318.077 620.039,1292.82 599.356,1266.792C597.831,1264.452 595.231,1264.408 594.032,1267.186C592.923,1269.875 594.301,1273.213 594.596,1277.069L594.516,1277.284C594.339,1277.91 592.613,1280.911 590.78,1277.9ZM620.042,1359.906C614.69,1354.694 613.482,1342.817 615.397,1335.07C617.45,1326.764 624.34,1319.699 629.854,1325.067C631.222,1326.399 633.05,1332.538 631.174,1340.125C633.289,1342.68 636.863,1344.178 636.744,1344.458C635.572,1347.181 629.312,1346.041 620.337,1337.304C619.895,1336.873 619.573,1336.559 619.355,1337.438C617.756,1343.907 620.279,1353.696 623.982,1357.3C624.908,1358.202 626.355,1359.214 626.848,1357.218C627.342,1355.221 626.432,1353.246 626.867,1351.489C627.42,1349.252 629.084,1349.387 630.332,1350.601C631.66,1351.894 631.371,1355.081 630.878,1357.078C629.298,1363.467 623.342,1363.119 620.042,1359.906ZM620.616,1331.531C620.478,1332.09 620.52,1332.527 620.882,1332.879C622.975,1334.917 625.206,1336.395 627.536,1337.673C628.611,1335.549 628.065,1329.072 625.874,1327.633C623.422,1326.038 621.406,1328.336 620.616,1331.531ZM644.751,1343.998C643.145,1345.359 642.061,1347.541 641.245,1350.373L638.691,1366.408C638.374,1368.261 639.689,1369.429 639.343,1371.451C638.853,1374.315 636.899,1373.562 635.795,1372.818C634.522,1371.96 634.086,1370.633 634.219,1368.75C638.585,1343.789 639.819,1338.514 640.735,1330.394C641.176,1324.773 639.643,1320.17 637.481,1317.868C637.226,1317.696 637.327,1317.107 637.399,1316.685C638.192,1312.052 644.61,1318.538 646.134,1315.713L646.389,1315.885C646.771,1316.142 647.01,1316.961 646.88,1317.719C646.621,1319.235 646.122,1320.214 645.862,1321.73C644.954,1327.037 644.002,1332.878 642.486,1342.567L642.6,1342.455C643.88,1341.063 645.274,1339.559 646.674,1340.503C648.584,1341.79 652.009,1349.17 651.02,1353.014C650.245,1356.156 645.972,1363.423 645.943,1363.591C642.203,1377.981 649.421,1386.979 649.447,1387.935C649.525,1390.243 641.395,1382.698 641.556,1365.99L640.113,1365.017C643.523,1361.961 646.122,1360.33 646.901,1355.781C647.535,1352.075 645.834,1346.795 644.751,1343.998ZM671.622,1387.141C669.185,1390.654 662.724,1397.081 667.166,1363.263C667.447,1361.286 667.767,1356.064 666.138,1355.447C664.949,1354.996 661.316,1358.6 660.356,1360.047C659.742,1366.426 658.719,1373.737 658.485,1378.538L658.451,1378.888C658.274,1380.723 658.551,1381.643 659.226,1383.167L659.209,1383.341C658.982,1385.701 656.658,1385.182 655.91,1384.898C655.338,1384.681 654.05,1383.831 654.21,1382.171C654.799,1376.055 655.712,1369.88 656.318,1363.589C656.377,1362.977 656.619,1359.99 656.678,1359.378C656.165,1354.746 654.631,1351.719 652.209,1350.801L652.226,1350.626C653.633,1348.805 660.363,1349.544 661.233,1349.512C661.321,1349.545 661.541,1349.629 661.507,1349.978L660.952,1355.745C660.868,1356.619 661.176,1356.736 661.441,1356.836C663.158,1357.487 666.594,1351.182 669.501,1352.283C671.922,1353.201 671.436,1360.625 671.116,1363.945C670.755,1367.702 667.175,1385.455 671.622,1387.141ZM679.224,1390.647C679.436,1384.256 679.976,1377.462 680.033,1370.337C680.118,1359.65 674.131,1362.702 674.22,1360.039C674.223,1359.95 683.059,1354.953 683.64,1355.029C683.909,1355.064 684.285,1355.916 684.261,1356.626L682.687,1386.464C682.578,1388.411 685.541,1387.104 685.482,1388.88C685.397,1391.454 681.691,1392.129 680.665,1391.905C680.173,1391.841 679.367,1391.736 679.224,1390.647ZM691.949,1380.592C693.741,1380.431 695.234,1384.928 697.18,1385.644C698.648,1387.026 701.117,1385.112 701.174,1381.723C701.24,1378.69 699.378,1375.74 697.9,1375.873L691.182,1376.475C688.384,1375.747 688.04,1372.483 688.11,1367.668C688.229,1361.068 693.496,1353.916 696.451,1353.651C698.87,1353.434 703.62,1357.104 703.479,1362.727C703.442,1365.046 702.383,1365.853 701.473,1367.271L701.115,1367.303C698.921,1367.5 697.352,1359.715 693.232,1360.084C692.337,1360.165 690.901,1362.164 690.854,1364.038C690.734,1368.59 693.107,1370.336 695.032,1370.164C696.6,1370.023 698.102,1368.998 699.625,1368.861C701.551,1368.688 704.836,1371.065 704.762,1375.702C704.608,1382.751 699.703,1392.007 695.986,1392.34C692.941,1392.614 690.332,1386.436 689.17,1384.67C689.999,1383.616 690.775,1382.211 691.51,1380.987C691.552,1380.895 691.597,1380.891 691.64,1380.798C691.772,1380.697 691.86,1380.6 691.949,1380.592ZM712.928,1354.87C711.839,1357.579 711.407,1360.52 711.365,1363.782L712.948,1380.302C713.112,1382.232 714.549,1382.023 714.727,1384.128C714.98,1387.111 713.08,1388.287 711.93,1388.671C710.604,1389.114 709.904,1388.356 709.57,1386.573C707.449,1360.489 707.275,1354.683 706.141,1346.673C705.186,1341.308 702.737,1338.698 700.283,1338.706C700.018,1338.795 699.966,1338.181 699.928,1337.742C699.519,1332.917 706.719,1332.587 707.387,1328.666L707.652,1328.577C708.05,1328.444 708.455,1328.94 708.522,1329.73C708.656,1331.309 708.451,1332.64 708.585,1334.219C709.054,1339.746 709.611,1345.784 710.592,1355.74L710.666,1355.535C711.46,1353.105 712.327,1350.47 713.786,1349.983C715.775,1349.318 720.554,1352.594 720.601,1356.908C720.67,1360.403 718.645,1370.822 718.66,1370.998C718.805,1387.187 727.311,1388.315 727.562,1389.133C728.183,1391.091 719.222,1392.099 715.37,1377.238L713.867,1377.74C716.14,1371.839 718.038,1367.958 717.636,1363.221C717.309,1359.361 714.55,1356.313 712.928,1354.87ZM725.536,1370.731C723.454,1357.95 727.479,1349.104 732.091,1345.024C733.528,1343.728 733.253,1338.856 735.087,1337.679C736.026,1337.077 736.84,1338.893 737.115,1340.586C737.915,1345.495 738.762,1352.431 739.562,1357.34C740.403,1362.504 741.584,1367.73 744.868,1365.623C745.722,1365.076 746.32,1364.411 746.793,1363.266C746.41,1369.589 744.963,1372.854 742.83,1374.223C740.996,1375.399 739.543,1373.713 737.978,1371.912C736.354,1376.694 736.062,1378.658 733.588,1380.245C729.962,1382.57 726.612,1377.333 725.536,1370.731ZM728.361,1363.777C729.45,1370.464 732.399,1373.528 735.769,1371.366C736.366,1370.983 736.953,1369.671 737.143,1368.521L733.351,1345.244C732.428,1345.649 726.966,1355.791 728.361,1363.777ZM767.597,1351.932C766.132,1345.735 756.444,1317.176 755.289,1314.108C752.403,1306.599 750.612,1306.426 749.018,1309.212C748.61,1309.761 748.413,1310.454 747.968,1311.053C746.748,1307.319 752.44,1299.566 752.738,1295.836C753.109,1295.338 753.556,1295.06 753.857,1295.944L753.882,1296.018C754.122,1296.878 754.777,1299.435 763.519,1324.109C763.618,1317.1 765.377,1308.292 768.421,1304.203C775.029,1295.326 784.784,1304.245 786.54,1319.073C786.54,1319.073 786.665,1319.121 786.764,1319.095L786.801,1319.045C787.581,1317.998 787.819,1315.207 788.236,1313.572C788.273,1313.522 788.398,1313.57 788.423,1313.644C788.926,1315.117 787.404,1317.162 786.641,1326.351L785.044,1328.495C784.859,1328.744 784.671,1328.352 784.595,1328.131C784.394,1327.542 784.205,1326.829 784.004,1326.24C780.22,1314.351 775.87,1300.965 767.183,1312.634C762.007,1322.057 768.267,1344.694 771.066,1345.123C771.456,1346.426 768.675,1351.128 768.23,1351.726L767.896,1352.175C767.834,1352.151 767.622,1352.006 767.597,1351.932ZM785.436,1301.245C782.411,1294.676 783.707,1282.509 786.6,1277.185C789.14,1272.415 793.303,1271.092 796.309,1276.087C803.512,1287.876 801.932,1299.845 796.384,1308.3C792.43,1311.328 788.401,1307.56 785.436,1301.245ZM786.821,1294.114C789.723,1300.302 795.037,1301.969 798.058,1296.522C799.472,1293.921 799.55,1292.036 798.083,1288.911C795.12,1282.469 790.387,1279.435 787.012,1285.564C786.884,1285.812 786.207,1287.239 786.041,1288.303C786.04,1288.429 786.007,1288.617 786.006,1288.742C785.892,1291.193 785.886,1292.073 786.821,1294.114ZM778.14,1280.835C777.952,1280.452 778.631,1274.558 778.952,1273.939C779.403,1273.071 780.923,1273.242 781.583,1273.954C782.771,1276.254 782.416,1277.061 782.298,1280.14C781.688,1281.191 780.177,1279.763 778.14,1280.835ZM782.645,1271.909C782.458,1271.526 783.136,1265.633 783.457,1265.013C783.908,1264.145 785.428,1264.316 786.089,1265.028C787.276,1267.328 786.921,1268.135 786.803,1271.214C786.193,1272.266 784.682,1270.837 782.645,1271.909ZM793.02,1262.575C798.29,1253.226 802.146,1240.817 806.138,1229.514C806.413,1239.592 802.527,1247.126 801.504,1253.985C803.825,1273.64 805.384,1252.111 809.834,1250.268C819.631,1250.268 821.007,1271.371 816.616,1284.107L816.452,1284.53C813.171,1287.15 811.054,1283.128 811.962,1275.98L812.016,1275.839C815.846,1281.133 819.635,1265.253 814.927,1261.199C808.354,1253.059 801.546,1288.861 800.253,1258.811C800.281,1258.74 800.158,1258.328 800.122,1258.273L800.087,1258.219C799.412,1257.188 794.372,1271.043 793.378,1269.523C792.668,1268.437 792.5,1263.914 793.02,1262.575ZM817.364,1240.447C818.271,1237.377 820.985,1237.339 822.346,1234.489C823.729,1232.798 824.264,1227.646 822.863,1225.706C821.616,1223.945 819.356,1225.44 818.607,1227.972L815.206,1239.483C813.375,1243.746 811.808,1242.541 809.81,1239.804C807.085,1236.014 806.928,1223.354 808.425,1218.289C809.65,1214.145 813.787,1208.234 816.087,1211.53C817.047,1212.853 816.812,1215.055 816.916,1217.341L816.735,1217.955C815.623,1221.716 811.479,1220.089 809.393,1227.149C808.939,1228.684 809.003,1232.161 809.77,1233.26C811.628,1235.939 813.658,1232.938 814.633,1229.638C815.427,1226.953 815.811,1223.894 816.582,1221.284C817.557,1217.985 820.35,1213.81 822.27,1216.457C825.166,1220.549 826.41,1233.752 824.528,1240.121C822.986,1245.339 818.954,1246.32 817.575,1247.293C817.581,1245.34 817.409,1243.284 817.292,1241.394C817.276,1241.273 817.298,1241.196 817.282,1241.074C817.312,1240.799 817.318,1240.6 817.364,1240.447ZM817.924,1191.412C818.479,1194.697 819.488,1197.016 820.845,1198.857L828.695,1205.196C829.6,1205.972 830.292,1203.465 831.28,1204.311C832.679,1205.51 832.144,1209.315 831.682,1211.439C831.149,1213.889 830.447,1214.644 829.512,1214.23C817.324,1203.592 814.774,1200.727 810.769,1198.264C807.98,1196.94 805.546,1199.602 804.216,1203.695C804.109,1204.185 803.821,1203.938 803.615,1203.761C801.352,1201.821 805.124,1189.647 803.828,1186.405L803.934,1185.915C804.094,1185.18 804.525,1184.773 804.895,1185.091C805.636,1185.726 806.088,1186.791 806.828,1187.426C809.421,1189.648 812.278,1192 817.023,1195.776L816.977,1195.542C816.38,1192.898 815.737,1190.021 816.323,1187.326C817.123,1183.651 821.105,1177.471 822.956,1179.735C824.472,1181.519 827.779,1190.555 827.861,1190.626C834.789,1199.179 839.888,1185.623 840.371,1185.649C841.536,1185.678 837.094,1201.154 828.714,1199.496L828.11,1202.273C826.848,1195.281 826.238,1190.009 824.015,1188.105C822.205,1186.553 819.416,1189.493 817.924,1191.412ZM828.014,1176.845C823.738,1174.16 821.794,1162.338 822.958,1154.856C823.956,1148.205 827.227,1142.927 831.089,1144.27C840.297,1147.33 841.946,1159.263 839.272,1172.09C836.611,1178.637 832.172,1179.373 828.014,1176.845ZM827.416,1169.296C831.488,1171.775 836.51,1167.945 837.753,1160.231C838.322,1156.575 837.915,1154.866 835.857,1153.614C831.667,1150.977 826.805,1153.046 825.427,1161.702C825.378,1162.045 825.151,1163.952 825.276,1165.039C825.306,1165.149 825.325,1165.344 825.356,1165.454C825.875,1167.688 826.091,1168.457 827.416,1169.296ZM844.942,1126.847C844.386,1133.337 840.103,1138.75 836.626,1137.398C831.314,1136.779 817.863,1123.401 816.324,1141.379C816.263,1142.081 816.035,1142.094 815.674,1142.063C814.016,1141.774 814.24,1126.42 814.044,1124.459L814.059,1124.283C814.111,1123.67 814.472,1123.701 814.789,1123.718C822.179,1125.037 827.599,1127.586 834.714,1130.526L834.935,1130.601C839.157,1131.213 843.929,1123.799 841.51,1115.944C844.35,1114.105 845.272,1122.988 844.942,1126.847ZM839.059,1109.41C832.292,1109.117 829.402,1098.67 828.974,1088.686C828.829,1085.565 826.419,1084.482 826.461,1080.658C826.483,1078.701 827.614,1077.772 828.51,1077.81C831.11,1077.923 834.689,1078.612 837.289,1078.724C840.023,1078.842 842.898,1078.344 842.973,1071.496C842.993,1069.717 842.873,1068.377 842.483,1067.115C845.367,1069.909 846.447,1073.693 846.398,1078.139C846.356,1081.964 845.076,1084.133 843.705,1086.476C845.448,1091.089 846.287,1092.282 846.23,1097.441C846.147,1105 842.555,1109.561 839.059,1109.41ZM836.676,1101.832C840.217,1101.985 842.643,1097.464 842.72,1090.437C842.734,1089.192 842.302,1087.661 841.817,1086.928L829.492,1086.395C829.382,1088.259 832.417,1101.826 836.676,1101.832Z"/>
                </g>
            </g>
        </g>
    </g>
</svg>
