<?xml version="1.0" encoding="UTF-8" standalone="no"?>
<!DOCTYPE svg PUBLIC "-//W3C//DTD SVG 1.1//EN" "http://www.w3.org/Graphics/SVG/1.1/DTD/svg11.dtd">
<svg width="406px" height="414px" version="1.1" xmlns="http://www.w3.org/2000/svg" xmlns:xlink="http://www.w3.org/1999/xlink" xml:space="preserve" xmlns:serif="http://www.serif.com/" style="fill-rule:evenodd;clip-rule:evenodd;stroke-linejoin:round;stroke-miterlimit:2;">
    <g transform="matrix(1,0,0,1,-505.953455,-2627.952756)">
        <g transform="matrix(2.657765,0,0,3.786588,-3191.903145,-2100.951278)">
            <g id="symbol_infocom" transform="matrix(0.789152,0,0,0.553897,1301.533777,1187.09569)">
                <path d="M306.807,118.019L306.8,118.039L306.798,118.2C306.798,118.63 306.678,119.051 306.45,119.416C300.736,128.579 295.812,139.024 291.773,150.749C287.695,162.585 283.816,176.013 280.236,191.033C280.003,192.01 279.163,192.722 278.161,192.793C277.159,192.863 276.228,192.275 275.861,191.34C272.608,183.061 269.261,175.865 265.713,169.754L265.699,169.73C262.299,163.707 258.025,157.976 253.075,152.628C250.698,150.452 247.777,148.735 244.408,147.458C240.944,146.244 237.202,145.495 233.26,145.398C230.136,145.402 227.194,145.859 224.431,146.68C218.849,148.777 213.378,152.591 208.08,158.268L208.053,158.297C202.506,164.038 198.028,170.168 194.524,176.688L194.514,176.708C189.197,186.374 186.498,197.106 186.498,208.9C186.498,215.685 187.469,222.372 189.407,229.06C191.339,235.724 194.038,241.812 197.707,247.318C209.103,264.118 223.751,274.208 241.51,277.42C242.549,277.513 243.946,277.602 245.7,277.602C253.565,277.602 260.77,275.717 267.213,271.832L267.235,271.819C273.941,267.874 281.63,262.148 290.309,254.751C291.108,254.07 292.267,254.017 293.125,254.622C293.983,255.227 294.321,256.337 293.948,257.318C293.114,259.506 292.176,261.59 291.134,263.57C290.111,265.514 288.884,267.561 287.554,269.71C286.267,271.789 285.078,273.77 283.989,275.651L283.955,275.708C276.9,287.121 267.046,295.527 254.493,300.818C242.126,306.03 228.23,308.598 212.9,308.598C206.14,308.598 199.483,307.782 192.723,306.348L192.716,306.347C186.084,304.918 179.452,302.877 173.023,300.224C172.976,300.205 172.93,300.184 172.884,300.161C165.891,296.716 160.116,293.571 155.555,290.632C150.934,287.653 146.722,284.266 142.819,280.568L142.797,280.547C138.886,276.738 135.385,272.519 132.194,267.784C129.056,263.127 125.813,257.459 122.27,250.777C122.246,250.733 122.225,250.688 122.204,250.643C119.439,244.497 117.389,238.147 115.955,231.591C114.521,225.034 113.802,218.169 113.802,211.1C113.802,202.007 114.926,193.117 117.174,184.33C119.425,175.527 122.802,167.44 127.101,159.866C127.117,159.837 127.134,159.81 127.151,159.782C131.238,153.243 135.835,147.42 140.943,142.107L140.959,142.091C146.073,136.875 151.699,132.172 157.733,128.183C163.77,124.192 170.421,120.713 177.788,117.95C185.043,115.191 192.605,113.25 200.371,112.126C200.435,112.116 200.5,112.11 200.565,112.106C207.41,111.703 214.255,111.502 221.1,111.502C227.429,111.502 234.259,111.602 241.693,111.904L241.694,111.904C249.008,112.204 256.823,112.605 265.138,113.106C273.414,113.605 280.594,114.004 286.577,114.203C292.551,114.402 298.626,114.602 304.8,114.602C305.73,114.602 306.568,115.162 306.923,116.021C307.196,116.68 307.144,117.415 306.807,118.019ZM229.6,302.9C235.7,302.1 241.6,300.7 247.3,298.7C253,296.8 258.2,294.2 263.1,290.9C268,287.7 272.2,283.7 275.9,278.9C278.2,276.5 280.8,272.5 283.6,267C277.6,271.5 271.4,275.2 264.9,278.1C258.5,281 251.7,282.4 244.7,282.4C235.8,282.4 227.4,279.8 219.3,274.7C209.7,268.8 201.7,261.4 195.5,252.5C189.3,243.6 185,233.3 182.7,221.6C182.1,217.3 181.8,213.4 181.8,209.9C181.8,203.1 182.7,196.1 184.6,189.1C186.5,182.1 189.1,175.6 192.4,169.7C195.8,163.8 199.6,158.9 204,154.9C208.1,150.6 212.7,147.2 217.8,144.4C222.9,141.7 228,140.3 233.2,140.3C235.4,140.3 237.5,140.5 239.4,141C243.9,142.6 247.6,144.2 250.3,145.6C253.1,147.1 255.7,149.1 258.1,151.7C266,161 272.5,171.6 277.5,183.6C279.9,172 283,160.7 286.9,149.7C290.8,138.7 295.3,128.6 300.3,119.6C294.9,119.5 289.5,119.3 283.9,119C278.4,118.7 272,118.2 264.7,117.6C257.4,117 250.4,116.5 243.8,116.1C237.2,115.7 230.9,115.5 225,115.5C217.5,115.5 210.5,115.9 203.8,116.6C197.1,117.4 190.6,118.7 184.1,120.5C177.6,122.4 171.3,125 165.2,128.4C143.3,142.6 129,160.4 122.1,181.8C119.3,190.3 117.9,199.4 117.9,208.9C117.9,220.5 120,231.8 124.1,243C128.2,254.1 133.8,263.7 140.7,271.5C142.5,273.3 144.1,274.9 145.4,276.3C146.7,277.7 148.1,279 149.3,280.2C150.6,281.4 151.7,282.3 152.5,282.8C157.4,286.9 163,290.4 169.4,293.5C175.8,296.5 182.4,298.9 189.3,300.6C196.2,302.3 203.2,303.4 210.4,303.9C217.2,304.2 223.5,303.8 229.6,302.9ZM158.3,277.2C152.4,272 147.1,266.1 142.5,259.4C137.9,252.7 134.2,245.5 131.3,237.8C128.5,230.1 126.7,222.1 126.2,213.8C126.2,206.1 127,198.8 128.5,191.9C130.1,185 132.4,178.4 135.6,172.1C138.8,165.8 142.4,160.1 146.6,155C150.8,150 155.6,145.3 161.1,141C169.5,134.5 179,129.9 189.5,127.3C200,124.7 211.7,123.4 224.4,123.4C230.1,123.4 235.3,123.5 240.1,123.8C244.9,124.1 250.1,124.5 255.8,124.9C261.5,125.4 267.8,125.9 274.7,126.4C281.6,126.9 286.8,127.3 290,127.4L276.1,165.4C273.1,160.2 269.7,155.2 265.9,150.4C262.1,145.6 257.9,141.2 253.1,137.2C248.3,133.2 243.3,130.3 238.2,128.3C236.5,127.7 234.7,127.5 232.8,127.5C228.7,127.5 224.9,128.5 221.4,130.4C217.9,132.3 213.6,135 208.8,138.3C204.9,142.1 201.8,145.1 199.7,147.3C197.6,149.5 195.4,152.1 193.2,155.2C187.1,162.2 182.2,170.7 178.5,180.6C174.8,190.5 173,200.5 173,210.7C173,217.1 173.7,223.1 175.2,228.6C178.2,240.5 183.5,251.2 191,260.7C198.5,270.2 207.6,278 218.2,284.1C225.2,287.7 232.5,289.6 240.1,289.6C246.6,289.6 252.6,288.4 258.1,285.9C255.5,288.9 251.3,291.2 245.6,293.1C239.9,294.9 234.3,296.3 228.7,297.1C223.1,298 219.5,298.4 217.7,298.4C213.4,298.3 209,297.9 204.7,297.2C200.3,296.4 196.6,295.6 193.6,294.8C190.5,293.9 185.2,292.4 177.7,290.1C170.6,286.6 164.2,282.4 158.3,277.2ZM169.7,223.5C169.7,218.5 168.6,213.6 166.5,208.7C164.9,205.6 162.9,202.8 160.3,200.1C157.7,197.5 155.2,195.8 152.6,195C152.2,195.1 151.6,195.8 150.9,197.2C153.5,200 155.9,202.6 158,205.2C160.1,207.8 161.9,210.5 163.2,213.4C164.5,216.3 165.2,219.3 165.2,222.3C165.2,224.6 164.6,227.3 163.4,230.4C163.3,231 162.9,231.7 162.4,232.7C161.8,233.6 161.5,234.4 161.5,234.9C161.5,235.3 161.6,235.6 161.9,235.8C162.8,236.3 163.5,236.8 164,237.3C164.5,237.8 164.8,238 164.8,238C164.9,238 165.3,237.8 165.9,237.4C168.5,233.4 169.7,228.8 169.7,223.5ZM183,255.8C181.2,253.5 178.6,250.8 175.3,247.6C173.9,246.7 172,245.4 169.5,243.6C167,241.8 165.1,240.4 163.7,239.6C162.3,238.7 160.5,238 158.3,237.3C157.7,237.9 157.3,238.7 157,239.7C158.6,241.1 161.5,243.2 165.9,246C170.2,248.8 173.8,251.4 176.5,253.8C179.2,256.1 181.3,259 182.8,262.5L184.4,262.5C184.8,262.5 185.3,262.6 185.8,262.6C185.7,260.3 184.8,258 183,255.8ZM163.8,165.9C164.3,165.9 164.8,165.4 165.2,164.5C165.6,163.6 165.8,162.6 165.8,161.6C165.5,161.6 164.7,161.4 163.5,161.1C162.3,160.8 161.3,160.5 160.7,160.3C163,157.8 167.1,155.3 173.3,152.7C179.4,150.1 183.7,148.2 186.2,146.8C188.7,145.4 190.9,142.9 192.9,139.3C192.1,138.3 190.9,137.8 189.2,137.8C187.8,137.8 185.5,138.4 182.3,139.5C182.7,139.5 183.2,139.7 183.8,140.2C184.4,140.6 184.8,141 185.2,141.3C185.2,142.4 184.9,143.1 184.4,143.4C182.2,144.7 178.4,146.3 172.9,148.1C167.4,149.9 163.2,151.7 160.2,153.4C157.2,155.1 155,157.6 153.5,160.9C153.5,162.3 153.7,163.2 154,163.8C154.3,164.3 154.9,164.8 155.8,165.1C156.6,165.4 157.3,165.7 157.7,165.9L163.8,165.9ZM278.4,144.7C278.4,140.8 277.6,137.5 275.9,135C275.3,135 275,135.5 275,136.6C275,136.7 275.2,137.7 275.5,139.7C275.8,141.7 276,143.5 276,145C276,147 275.6,148.8 274.9,150.5C273.8,150.5 273,150.2 272.5,149.6C272,149 271.5,148.1 271.2,147C270.9,145.9 270.5,144.6 270.1,143.1C269.7,143 269.4,142.9 269.2,142.7C269,142.5 268.7,142.4 268.4,142.4C268.3,142.4 268,142.5 267.5,142.8C267.5,144.4 267.7,145.8 268.1,147.1C268.5,148.4 269.2,149.8 270.1,151.3C271,152.8 271.9,154.1 272.8,155.1C273.6,156.1 274.8,157.4 276.1,159L276.1,158.8C277.6,152.8 278.4,148.1 278.4,144.7ZM273,139.1C273,138.9 272.8,138.5 272.4,138.2L255.1,131.4C255.1,130.9 255.3,130.5 255.8,130.2C256.3,129.9 256.8,129.7 257.4,129.7C260.8,129.7 264,129.9 267.1,130.3C267.2,130.1 267.4,129.9 267.7,129.5C267.9,129.2 268.2,129 268.5,128.9C265.9,127.7 262.4,127.1 258.2,127.1C253.8,127.1 250,127.5 246.8,128.3C248.2,129.7 249.8,130.9 251.5,132C253.2,133.1 254.9,134 256.5,134.8C258.1,135.6 259.9,136.3 261.9,137C263.9,137.7 266.3,138.6 269.2,139.6C271.6,139.7 272.8,139.5 273,139.1ZM279.5,128.8C275.7,128.8 272.4,129.8 269.5,131.8C268.7,132.6 268.3,133.2 268.3,133.6C268.3,133.8 269.1,134.1 270.6,134.4C274.3,131.6 277.7,130.2 280.9,130.2C281.6,130.5 281.9,131 281.9,131.5C281.8,131.9 281.4,132.5 280.7,133.3C279.9,134.1 279.5,134.7 279.4,135.2L279.4,137.7C281,137.3 282.3,136.3 283.5,134.8C284.7,133.3 285.3,131.7 285.3,130C283.6,129.2 281.6,128.8 279.5,128.8ZM209.7,294.6C214.9,294.6 219.8,293.8 224.3,292.3C222.4,291.2 218,288.2 211.2,283.1C204.3,278.1 198.6,273.9 194,270.6C189.4,267.3 186.1,265.5 184.3,265.1C180.9,265.1 179,265.7 178.8,267L180.7,271.6L187.6,272.8C188.2,273.2 189.4,273.8 191.4,274.7C193.3,275.6 194.5,276.2 195,276.5C197.4,277.8 199.3,279.2 200.9,280.7C202.4,282.2 204.8,284.5 207.9,287.6C199.8,287.5 192.5,286.5 186.2,284.8C179.9,283.1 174.9,279.6 171.2,274.5C170.3,273.6 168.9,273.2 167.1,273.2C165.8,273.2 164.6,273.5 163.6,274.1C163.9,275.7 164.7,277.2 166,278.6C167.3,279.9 168.7,281.2 170.4,282.4C172.1,283.6 173.7,284.7 175.3,285.7C187.1,291.6 198.6,294.6 209.7,294.6ZM193.5,280.2C192.1,279.1 191.2,278.3 190.8,277.8C189.7,278.4 188.3,278.7 186.7,278.7C184.1,278.7 181.9,277.5 180,275C178.1,272.5 176.2,269 174.2,264.3C172.2,259.7 170.5,256.1 169.1,253.7C167.7,251.3 166.1,250 164.2,250C162,251.6 160.9,254 160.9,257.3C160.9,258.6 161.3,260 162,261.3C162.2,261.5 163.2,261.7 165,261.7C165.1,261.1 165.2,260.7 165.3,260.4C165.4,260.1 165.4,259.8 165.5,259.5C165.6,259.2 165.7,259 165.8,258.8C165.9,258.7 166.2,258.6 166.7,258.4C168.1,260 169.4,262 170.5,264.4C171.6,266.8 172.8,269.2 174.2,271.8C175.5,274.4 176.9,276.4 178.4,278C179.8,279.6 181.8,280.9 184.3,281.9C187.4,282.4 191.2,282.7 195.7,282.7C195.7,282.2 195,281.3 193.5,280.2ZM169.4,188.5C171.3,185.3 172.9,181.5 174.3,177.1C175.2,170.8 175.6,166.8 175.6,165C175.6,161.8 175.1,159.1 174.1,156.7C173.9,156.3 173.6,156.1 173.1,156.1C172.8,156.1 172.2,156.2 171.4,156.5C170.6,156.7 170,156.9 169.6,156.9C169.7,158.3 169.8,160.6 169.8,163.8C169.8,169.8 169.1,175.2 167.6,180.1C166.1,185 163.7,188.8 160.2,191.7C159.8,192.4 159.2,193.1 158.5,193.9C158.7,194.3 159,194.7 159.5,195.1C160,195.5 160.6,196.1 161.4,196.8L162.1,196.8C165,194.4 167.5,191.6 169.4,188.5ZM161.3,247.6C161.2,247.1 161,246.8 160.8,246.6C160.6,246.4 160.3,246.2 159.8,246C159.3,245.8 158.8,245.6 158.2,245.3C157.5,247.5 156.5,248.6 155.3,248.6C155.1,248.6 154.7,248.5 154.2,248.2C152.8,247.8 152.1,245.7 152.1,242C155.9,234 157.8,227.2 157.8,221.6C157.8,217.6 156.8,213.9 154.8,210.4L153.5,209.1C151.7,210.1 150.3,211.3 149.1,212.7C148,214.1 147,215.7 146.1,217.4C145.2,219.1 144.1,221.2 142.8,223.6L145,226.1C145.9,225.5 146.9,224.4 147.9,222.8C148.9,221.1 149.9,220 150.7,219.4C151.3,219.4 151.7,219.8 152,220.7C152.3,221.6 152.4,222.5 152.4,223.6C152,225 151.3,227.2 150.2,230.4C149.1,233.6 148.4,236 148,237.6C147.6,239.3 147.4,241 147.4,242.8C147.4,246.7 148.9,249.8 152,252.1C153.6,253.4 154.7,254 155.5,254.2C158.1,254.1 160,251.8 161.3,247.6ZM170.3,270.2C170.3,269.6 169.9,268.7 169.2,267.5C168.5,266.2 168.1,265.7 168.1,265.8C157.8,264.7 150.2,259.5 145,250.2C144.4,249.2 143.9,247.9 143.7,246.3C143.5,244.7 143.2,243.1 143,241.6C142.8,240.1 142.3,238.9 141.6,238.1C140.5,237.6 139.7,237.3 139.1,237.3C138.4,237.3 137.7,237.6 137,238.1C137,241.2 137.4,244.1 138.3,246.8C139.2,249.5 140.4,252.1 141.8,254.5C143.3,256.9 144.8,259.3 146.5,261.5C152.6,267.3 160.1,270.5 168.8,271.3C169.8,271.3 170.3,270.9 170.3,270.2ZM187.6,153.7C190.2,152 192.9,149.8 195.9,147.1C198.8,144.4 201.6,141.9 204.2,139.6C209.3,135.2 212.9,131.3 215.2,128C212.6,127.6 209.9,127.3 206.9,127.3C201.1,127.3 195.4,127.9 189.7,129.2C184,130.5 178.9,132.4 174.4,135C170.4,139 168.4,142.7 168.4,146C169.8,146 171.2,145.6 172.4,144.9C173.5,142.3 175.2,140.3 177.3,138.7C179.5,137.1 181.9,135.9 184.5,135C187.2,134.1 190,133.4 192.9,132.9C195.8,132.4 198.9,131.8 202.3,131.2C202.7,131.2 202.9,131.3 203,131.4C203.1,131.6 203.3,132.1 203.7,132.9C203.3,134.2 202,135.9 199.7,138C197.4,140.1 196,141.4 195.7,141.9C189.3,148.1 183.4,152.3 177.8,154.4C177.8,155.9 177.9,156.9 178,157.3C178.1,157.7 178.4,157.9 178.9,157.9C182,156.9 185,155.4 187.6,153.7ZM146.4,175.3C146.4,171.1 147.4,166.6 149.5,161.7C150.2,159.7 151.7,157.5 154.2,155C156.6,152.5 159,150.1 161.2,147.8C163.4,145.5 164.8,143.2 165.4,141.2C160.5,144.1 156,147.6 151.9,151.9C147.7,156.2 144.8,160.7 143.2,165.4C142.6,167.6 142.3,170.2 142.3,173.3C142.3,176.5 142.8,180.3 143.9,184.7C143.9,186 144.2,186.6 144.8,186.6C145.2,186.6 145.8,186.2 146.6,185.5C147.3,184.8 147.8,184.1 147.9,183.5C146.9,180.7 146.4,178 146.4,175.3ZM151.9,204.9C151.9,204.4 151.7,203.8 151.2,203.2C150.8,202.8 150.5,202.6 150.1,202.6C149.9,202.6 149.3,202.7 148.4,202.9C147.5,203.1 146.7,203.2 145.9,203.2C145.7,202.4 145.6,201.9 145.6,201.5C145.6,199.6 146.9,197 149.6,193.6C153.6,189.1 156.6,185.4 158.6,182.2C160.6,179.1 161.9,175.4 162.4,171.1C162,170.5 161.1,170.2 159.9,170.2C158.5,170.2 156.6,170.5 154.2,171.2C151.8,171.9 150.3,172.2 149.8,172.2C149.4,172.8 149.2,173.4 149.2,174.1C149.3,174.5 149.4,174.9 149.6,175.5C149.8,176.1 150,176.6 150.2,177.2C150.8,177 151.5,176.7 152.3,176.3C153.1,176 153.9,175.7 154.6,175.6C155.4,175.6 155.9,176.1 156,177C154.5,179.6 152.2,182.7 149.2,186.4C146.2,190.1 144,193.4 142.4,196.3C140.8,199.2 140,202.5 140,206.2C140,208.3 140.2,210.3 140.7,212.2C140.8,212.1 141,212.1 141.1,212.1C141.3,212.1 141.4,212 141.5,212L151.9,204.9ZM139.1,225.3C137,223 135.3,220.1 134.2,216.8C133.7,214.4 133.5,211.7 133.5,208.9C133.5,200.8 135.7,193.2 140.2,186.2L138.8,179.8C135.1,183.1 132.5,187.2 130.8,192.3C129.1,197.4 128.3,203.1 128.3,209.3C128.3,213.1 128.6,217 129.2,221C130.6,224.5 132.5,227.4 135.1,229.7C137.7,232 141.1,234.2 145.2,236.4C145.8,236.1 146.1,235.8 146.3,235.6C146.5,235.4 146.6,235.1 146.7,234.6C146.8,234.2 147,233.3 147.3,232.1C144,229.8 141.2,227.6 139.1,225.3Z"/>
            </g>
        </g>
    </g>
</svg>
