<?xml version="1.0" encoding="UTF-8" standalone="no"?>
<!DOCTYPE svg PUBLIC "-//W3C//DTD SVG 1.1//EN" "http://www.w3.org/Graphics/SVG/1.1/DTD/svg11.dtd">
<svg width="1029px" height="296px" version="1.1" xmlns="http://www.w3.org/2000/svg" xmlns:xlink="http://www.w3.org/1999/xlink" xml:space="preserve" xmlns:serif="http://www.serif.com/" style="fill-rule:evenodd;clip-rule:evenodd;stroke-linejoin:round;stroke-miterlimit:2;">
    <g transform="matrix(1,0,0,1,-1181.102362,-2687.007874)">
        <g transform="matrix(2.657765,0,0,3.786588,-3191.903145,-2100.951278)">
            <g id="wordmark_infocom" transform="matrix(3.685616,0,0,2.586894,1645.369508,1264.369314)">
                <path d="M3.68,22.176C4.416,21.536 4.096,4.064 3.808,4.512C3.232,2.624 1.088,3.136 0,2.624C0.032,2.336 6.272,0.032 6.976,0.032C6.56,2.752 6.112,6.528 6.464,20.736C6.88,20.736 7.104,20.256 7.456,20.256C7.488,20.256 7.52,20.288 7.52,20.288C7.52,20.288 7.616,20.448 7.616,20.48C7.616,20.48 7.648,20.544 7.648,20.576L7.616,20.608C7.168,21.28 5.376,22.016 4.224,22.496C4.096,22.56 4.032,22.592 3.904,22.624C3.68,22.624 3.68,22.304 3.68,22.176ZM24.305,20.96C22.833,22.528 18.737,25.664 19.569,13.12C19.633,12.384 19.505,10.496 18.321,10.496C17.457,10.496 15.153,12.256 14.577,12.896C14.577,15.232 14.353,17.952 14.513,19.68L14.513,19.808C14.513,20.48 14.769,20.768 15.345,21.216L15.345,21.28C15.345,22.144 13.681,22.272 13.137,22.272C12.721,22.272 11.761,22.144 11.761,21.536C11.761,19.296 11.985,16.992 11.985,14.688C11.985,14.464 11.953,13.376 11.953,13.152C11.281,11.584 10.001,10.72 8.241,10.72L8.241,10.656C9.105,9.824 13.873,9.184 14.481,9.056C14.545,9.056 14.705,9.056 14.705,9.184L14.705,11.296C14.705,11.616 14.929,11.616 15.121,11.616C16.369,11.616 18.353,8.928 20.465,8.928C22.225,8.928 22.385,11.616 22.385,12.832C22.385,14.208 21.073,20.96 24.305,20.96ZM28.506,30.08C28.506,22.336 29.146,13.376 24.314,10.976L24.218,10.88L24.186,10.816C24.186,10.176 29.114,8.992 29.498,8.992C30.554,8.992 29.53,10.784 30.426,10.784C31.706,10.784 32.57,8.992 33.978,8.992C34.714,8.992 36.058,9.696 36.538,10.272L36.57,10.272C36.73,11.456 36.57,12.96 34.97,12.96C34.586,12.96 33.754,10.368 32.314,10.368C32.25,10.368 32.026,10.4 31.994,10.4C30.458,11.232 30.138,11.872 30.138,12.256C30.138,13.856 30.586,15.392 30.49,17.024C30.522,17.216 30.682,17.6 30.97,17.632C32.026,17.568 34.49,17.696 38.394,17.6C39.898,19.488 32.762,19.264 31.386,19.232L31.162,19.232C30.97,19.232 30.81,19.232 30.714,19.488C30.394,22.624 30.906,25.76 30.842,29.248L30.842,29.312C30.842,29.984 29.274,30.176 28.858,30.176C28.698,30.176 28.666,30.176 28.506,30.08ZM38.108,14.912C38.204,11.712 41.916,9.216 44.732,9.28C47.228,9.312 49.692,11.04 49.98,13.824C50.716,20.448 46.908,22.752 41.948,22.176C39.164,20.992 38.044,18.016 38.108,14.912ZM40.604,13.76C40.54,16.8 42.844,19.872 45.756,19.968C47.132,20 47.644,19.552 47.676,18.016C47.772,14.88 46.108,11.744 42.844,11.648C42.716,11.648 42.012,11.68 41.66,11.872C41.628,11.904 41.564,11.936 41.532,11.968C40.86,12.544 40.636,12.768 40.604,13.76ZM61.901,22.304C53.645,21.792 51.341,16.032 51.341,9.152C51.341,6.848 52.813,5.408 54.413,3.936C54.509,3.872 54.573,3.808 54.669,3.744C57.165,1.696 59.821,0.256 63.309,0.256C66.893,0.256 69.197,3.04 70.413,6.4L70.445,6.464C70.061,6.784 68.685,7.328 68.237,7.552L68.109,7.552C67.053,-0 54.221,1.056 54.221,8.544C54.221,16.64 62.957,25.12 68.461,16.16C69.357,19.04 65.805,22.432 61.901,22.304ZM70.044,14.912C70.141,11.712 73.853,9.216 76.668,9.28C79.165,9.312 81.629,11.04 81.916,13.824C82.653,20.448 78.844,22.752 73.885,22.176C71.1,20.992 69.981,18.016 70.044,14.912ZM72.54,13.76C72.477,16.8 74.781,19.872 77.692,19.968C79.069,20 79.581,19.552 79.612,18.016C79.709,14.88 78.044,11.744 74.781,11.648C74.653,11.648 73.948,11.68 73.597,11.872C73.564,11.904 73.501,11.936 73.469,11.968C72.796,12.544 72.573,12.768 72.54,13.76ZM85.772,21.888C85.675,19.072 85.868,16.288 85.484,13.344C84.907,12.192 83.371,11.04 82.219,11.328C82.156,11.328 82.028,11.2 82.028,11.136C82.028,11.008 82.188,10.72 87.019,9.024C87.019,9.024 87.212,8.992 87.243,8.992C88.364,9.024 87.692,10.816 88.748,11.136L88.844,11.264C90.188,9.76 91.531,8.928 92.492,8.96C93.931,8.992 94.412,11.776 95.243,11.328C96.011,10.848 97.26,8.96 99.531,8.96C102.347,8.96 103.275,12.576 103.275,14.848L103.275,15.392C103.275,17.312 103.243,19.04 105.003,20.352C104.331,21.728 102.635,22.368 101.323,22.336C101.259,22.336 100.843,22.304 100.779,22.304C100.523,22.208 100.651,21.952 100.619,21.792C100.555,20.064 100.811,18.336 100.747,16.64C100.683,14.592 100.459,12.448 98.603,11.424C94.828,9.344 95.275,17.024 95.403,18.912C95.403,19.072 95.436,19.2 95.436,19.264C95.468,19.936 96.171,20.352 96.492,20.768L96.492,20.832C96.523,21.664 93.931,22.112 93.547,22.112C93.004,22.144 92.844,21.76 92.876,21.344C93.1,17.696 92.939,8.512 88.139,12.896L88.171,20.128C88.171,20.576 88.492,20.736 88.523,21.152C88.555,21.984 86.891,22.464 86.284,22.464C85.9,22.464 85.772,22.368 85.772,21.888Z" style="fill-rule:nonzero;"/>
            </g>
        </g>
    </g>
</svg>
