<?xml version="1.0" encoding="UTF-8" standalone="no"?>
<!DOCTYPE svg PUBLIC "-//W3C//DTD SVG 1.1//EN" "http://www.w3.org/Graphics/SVG/1.1/DTD/svg11.dtd">
<svg width="827px" height="827px" version="1.1" xmlns="http://www.w3.org/2000/svg" xmlns:xlink="http://www.w3.org/1999/xlink" xml:space="preserve" xmlns:serif="http://www.serif.com/" style="fill-rule:evenodd;clip-rule:evenodd;stroke-linejoin:round;stroke-miterlimit:2;">
    <g transform="matrix(1,0,0,1,-2952.755906,-1062.992126)">
        <g transform="matrix(2.657765,0,0,3.786588,-3191.903145,-2100.951278)">
            <g id="VR-AR" serif:id="VR/AR" transform="matrix(1.634737,0,0,1.308162,1267.607697,-55.394289)">
                <path d="M733.999,681.078C786.512,681.078 829.145,718.472 829.145,764.531C829.145,810.591 786.512,847.985 733.999,847.985C681.487,847.985 638.853,810.591 638.853,764.531C638.853,718.472 681.487,681.078 733.999,681.078ZM733.999,683.873C683.245,683.873 642.04,720.015 642.04,764.531C642.04,809.048 683.245,845.19 733.999,845.19C784.753,845.19 825.959,809.048 825.959,764.531C825.959,720.015 784.753,683.873 733.999,683.873ZM794.83,797.753L795.757,796.239L803.049,799.675L803.478,798.976C804.212,797.776 804.296,797.503 803.655,796.631L801.837,794.155L802.842,792.513L804.74,795.1C805.278,795.831 805.531,796.411 805.448,797.163C806.113,796.556 806.878,796.438 808.053,796.403L811.586,796.32L810.545,798.019L807.236,798.079C806.07,798.1 805.74,798.33 804.927,799.658L804.498,800.358L808.079,802.045L807.153,803.559L794.83,797.753ZM739.229,827.221L741.169,826.986L742.302,834.179L743.199,834.07C744.736,833.884 745.037,833.782 745.463,832.814L746.672,830.066L748.777,829.811L747.513,832.68C747.155,833.493 746.771,834.014 746.03,834.398C746.98,834.512 747.539,834.984 748.264,835.796L750.423,838.251L748.245,838.515L746.239,836.205C745.533,835.391 745.126,835.293 743.423,835.499L742.527,835.608L743.083,839.14L741.142,839.375L739.229,827.221ZM743.467,691.815L737.604,701.325L734.879,701.036L741.368,690.529C742.052,689.426 743.077,689.087 744.566,689.245C746.033,689.401 746.937,689.944 747.28,691.156L750.54,702.696L747.794,702.405L744.872,691.964C744.786,691.657 744.574,691.504 744.238,691.468C743.903,691.432 743.654,691.537 743.467,691.815ZM808.197,778.459L809.087,773.381C809.458,771.266 810.956,770.616 812.782,770.862L817.311,771.473C818.699,771.66 819.191,772.055 818.941,773.48L818.247,777.437C817.896,779.439 816.636,780.122 814.81,779.876C813.056,779.639 812.169,778.732 812.534,776.65L813.239,772.629L812.508,772.531C811.759,772.43 811.11,772.719 810.947,773.648L810.06,778.71L808.197,778.459ZM816.993,773.611C817.051,773.275 816.928,773.127 816.581,773.08L814.773,772.836L814.073,776.825C813.916,777.722 814.28,778.099 814.992,778.195C815.705,778.291 816.22,778.016 816.369,777.167L816.993,773.611ZM694.581,696.909L697.128,696.011L705.42,703.929C705.664,704.162 705.934,704.207 706.248,704.096C706.561,703.986 706.702,703.796 706.713,703.473L706.652,692.655L709.219,691.751L709.278,703.707C709.284,704.962 708.572,705.692 707.2,706.176C705.907,706.632 704.742,706.623 703.733,705.661L694.581,696.909ZM733.168,687.36L735.321,687.292L729.536,704.185L727.362,704.255L733.168,687.36ZM755.448,691.06L762.776,693.217C765.819,694.113 766.488,696.147 765.763,698.044C765.198,699.519 763.792,700.863 761.535,700.765L762.864,706.432L760.242,705.66L758.912,700.169L755.389,699.132C755.169,699.067 755.015,699.119 754.934,699.33L753.295,703.614L750.932,702.919L752.726,698.23C753.237,696.896 754.086,696.54 755.568,696.976L760.833,698.527C762.174,698.922 763.024,698.273 763.347,697.43C763.669,696.587 763.364,695.696 762.063,695.313L754.655,693.132L755.448,691.06ZM802.916,781.338L803.414,779.677L816.942,782.797L816.444,784.458L802.916,781.338ZM712.454,691.082L720.061,689.881C723.22,689.382 724.923,690.882 725.327,692.851C725.641,694.382 725.146,696.154 723.114,697.021L727.388,701.428L724.665,701.858L720.488,697.605L716.83,698.183C716.601,698.219 716.495,698.33 716.54,698.549L717.453,702.997L715,703.384L714.001,698.517C713.717,697.131 714.266,696.461 715.804,696.218L721.27,695.355C722.663,695.135 723.052,694.208 722.872,693.333C722.693,692.458 721.936,691.805 720.585,692.019L712.895,693.233L712.454,691.082ZM677.42,802.976L678.56,804.393L670.543,809.355C668.249,810.775 666.407,810.566 665.064,808.898L663.509,806.965C662.007,805.098 662.367,803.129 665.055,801.465C667.742,799.802 669.978,800.163 671.48,802.03L673.963,805.116L677.42,802.976ZM666.289,807.525C667.195,808.65 668.12,808.732 669.479,807.891L672.423,806.069L670.047,803.116C669.077,801.911 667.916,801.817 666.195,802.882C664.474,803.947 664.201,804.929 665.17,806.135L666.289,807.525ZM660.173,780.099L660.764,781.754L655.192,783.286C654.099,783.586 653.524,784.526 653.989,785.825L654.464,787.155C654.928,788.454 656.006,788.922 657.099,788.621L662.671,787.09L663.245,788.698L657.603,790.249C655.452,790.841 653.504,790.051 652.67,787.716L652.128,786.2C651.294,783.865 652.379,782.242 654.53,781.65L660.173,780.099ZM678.144,809.392L681.87,812.838L680.503,813.975L676.79,810.542C676.167,809.965 675.644,809.953 675.108,810.399C674.612,810.812 674.547,811.223 675.297,811.917L676.874,813.375C678.731,815.092 678.303,816.274 677.204,817.189C675.943,818.237 674.436,818.397 672.859,816.939L668.955,813.329L670.336,812.18L674.24,815.79C674.863,816.367 675.345,816.412 675.895,815.955C676.458,815.486 676.406,815.038 675.732,814.415L674.142,812.945C672.286,811.228 672.807,809.991 673.893,809.087C675.166,808.028 676.58,807.946 678.144,809.392ZM661.15,770.667L661.497,772.555L653.452,773.694C652.267,773.862 651.43,774.506 651.743,776.202L652.514,780.394L650.362,780.699L649.569,776.395C649.042,773.531 650.624,772.158 653.087,771.809L661.15,770.667ZM794.405,804.607L797.6,800.774L799.122,801.75L795.937,805.57C795.402,806.211 795.483,806.664 796.079,807.047C796.631,807.401 797.104,807.383 797.747,806.611L799.1,804.989C800.692,803.079 802.095,803.235 803.318,804.02C804.721,804.919 805.171,806.192 803.818,807.814L800.469,811.83L798.933,810.845L802.282,806.829C802.816,806.188 802.781,805.763 802.169,805.371C801.543,804.969 801.049,805.094 800.471,805.788L799.108,807.423C797.515,809.333 796.034,809.106 794.826,808.331C793.409,807.422 793.063,806.216 794.405,804.607ZM778.772,818.109L780.409,817.025C782.473,815.657 784.743,815.899 786.726,818.201C788.709,820.503 788.355,822.484 786.291,823.852L784.654,824.937C782.576,826.315 780.32,826.063 778.337,823.761C776.354,821.459 776.694,819.487 778.772,818.109ZM781.398,818.442L780.056,819.331C778.7,820.23 778.645,821.241 779.915,822.715C781.185,824.189 782.298,824.406 783.654,823.507L784.996,822.618C786.338,821.729 786.418,820.721 785.148,819.247C783.878,817.772 782.739,817.552 781.398,818.442ZM705.431,822.188L707.274,822.769L704.474,829.602L705.326,829.871C706.787,830.331 707.107,830.363 707.996,829.679L710.52,827.737L712.52,828.367L709.883,830.395C709.137,830.969 708.521,831.274 707.661,831.313C708.443,831.801 708.688,832.446 708.901,833.461L709.515,836.513L707.446,835.861L706.891,832.999C706.696,831.99 706.387,831.738 704.77,831.228L703.918,830.959L702.542,834.315L700.699,833.734L705.431,822.188ZM725.744,830.578L727.694,830.741L726.768,839.26L724.818,839.097L725.744,830.578ZM697.079,822.554L699.867,823.859C701.905,824.813 702.247,826.075 701.359,827.534C700.515,828.921 699.238,829.333 697.119,828.341L693.027,826.425L692.696,826.969C692.331,827.569 692.436,828.188 693.381,828.631L698.647,831.096L697.751,832.568L692.485,830.103C690.333,829.096 690.13,827.641 691,826.211L692.566,823.638C693.436,822.208 694.928,821.547 697.079,822.554ZM694.236,824.438L693.749,825.239L697.792,827.131C698.721,827.566 699.272,827.383 699.611,826.826C699.96,826.254 699.811,825.707 698.963,825.31L696.192,824.012C695.246,823.57 694.593,823.852 694.236,824.438ZM734.001,705.358C771.237,705.358 801.469,731.874 801.469,764.535C801.469,797.196 771.237,823.712 734.001,823.712C696.764,823.712 666.533,797.196 666.533,764.535C666.533,731.874 696.764,705.358 734.001,705.358ZM734.001,708.153C698.523,708.153 669.72,733.417 669.72,764.535C669.72,795.653 698.523,820.917 734.001,820.917C769.479,820.917 798.282,795.653 798.282,764.535C798.282,733.417 769.479,708.153 734.001,708.153ZM746.913,766.565C746.913,769.805 748.504,772.717 751.037,774.738L753.82,772.299C758.85,767.887 765.673,765.408 772.787,765.408L784.02,765.408L783.956,766.619C783.802,769.486 783.334,772.279 782.583,774.975L782.337,775.858L772.787,775.858C770.148,775.858 767.583,776.473 765.337,777.611L781.786,777.611L781.164,779.154C774.55,795.567 757.117,807.496 736.38,808.349L734.998,808.406L734.998,765.408L746.913,765.408L746.913,766.565ZM744.33,767.723L737.638,767.723L737.638,805.962C756.019,804.737 771.467,794.313 778.013,779.926L758.199,779.926L760.509,777.941C763.788,775.125 768.193,773.543 772.787,773.543L780.253,773.543C780.731,771.648 781.062,769.705 781.234,767.723L772.787,767.723C766.373,767.723 760.222,769.958 755.686,773.936L751.241,777.833L750.324,777.225C746.978,775.004 744.709,771.601 744.33,767.723ZM744.273,780.518L746.386,781.91C750.041,784.318 754.583,785.746 759.506,785.746L766.9,785.746L765.052,787.653C760.084,792.781 753.497,796.661 745.981,798.686L744.273,799.146L744.273,780.518ZM746.913,795.973C752.288,794.275 757.1,791.547 761.043,788.061L759.506,788.061C754.901,788.061 750.593,786.946 746.913,785.009L746.913,795.973ZM736.38,720.714C757.117,721.567 774.55,733.495 781.164,749.909L781.786,751.452L765.337,751.452C767.582,752.59 770.148,753.204 772.787,753.205L782.337,753.205L782.583,754.088C783.334,756.784 783.802,759.577 783.956,762.443L784.02,763.655L772.787,763.655C765.673,763.655 758.85,761.176 753.82,756.764L751.037,754.323C748.504,756.344 746.913,759.258 746.913,762.498L746.913,763.655L734.998,763.655L734.998,720.657L736.38,720.714ZM737.638,723.101L737.638,761.34L744.33,761.34C744.709,757.462 746.978,754.057 750.324,751.836L751.241,751.228L755.686,755.127C760.222,759.104 766.373,761.34 772.787,761.34L781.234,761.34C781.062,759.358 780.731,757.415 780.253,755.52L772.787,755.52C768.193,755.52 763.788,753.938 760.509,751.122L758.199,749.137L778.013,749.137C771.467,734.75 756.019,724.326 737.638,723.101ZM744.273,729.913L745.981,730.373C753.498,732.399 760.086,736.281 765.054,741.41L766.902,743.317L759.506,743.317C754.583,743.317 750.04,744.743 746.386,747.151L744.273,748.542L744.273,729.913ZM746.913,744.052C750.593,742.115 754.901,741.002 759.506,741.002L761.046,741.002C757.102,737.514 752.289,734.784 746.913,733.086L746.913,744.052ZM695.968,766.498C696.869,780.119 707.07,791.546 721.085,795.973L721.085,765.408L733,765.408L733,808.406L731.619,808.349C705.891,807.291 685.249,789.185 684.043,766.619L683.978,765.408L695.896,765.408L695.968,766.498ZM693.423,767.723L686.765,767.723C688.531,788.127 707.097,804.412 730.361,805.962L730.361,767.723L723.725,767.723L723.725,799.146L722.018,798.686C706.481,794.499 694.904,782.386 693.423,767.723ZM721.085,763.655L721.085,762.498C721.085,756.397 715.447,751.452 708.493,751.452L698.931,751.452C697.259,754.898 696.227,758.64 695.968,762.565L695.896,763.655L683.978,763.655L684.043,762.443C685.249,739.877 705.891,721.772 731.619,720.714L733,720.657L733,763.655L721.085,763.655ZM730.361,761.34L730.361,723.101C707.097,724.651 688.531,740.935 686.765,761.34L693.423,761.34C693.835,757.264 695.027,753.384 696.867,749.817L697.218,749.137L708.493,749.137C716.461,749.137 723,754.503 723.669,761.34L730.361,761.34ZM723.725,748.542L721.613,747.151C717.958,744.743 713.415,743.317 708.493,743.317L701.097,743.317L702.944,741.41C707.912,736.281 714.501,732.399 722.018,730.373L723.725,729.913L723.725,748.542ZM721.085,733.086C715.71,734.784 710.896,737.514 706.953,741.002L708.493,741.002C713.097,741.002 717.405,742.115 721.085,744.052L721.085,733.086ZM664.445,791.062L666.239,794.226C667.712,796.823 667.021,798.699 664.605,799.753L659.691,801.896L658.811,800.343L663.725,798.2C665.098,797.601 665.465,796.572 664.551,794.962L663.128,792.451C663.054,792.32 662.938,792.298 662.773,792.37L655.973,795.336L655.101,793.798L662.48,790.58C663.506,790.132 664.009,790.293 664.445,791.062ZM687.697,814.216L695.402,819.058L694.132,820.613L691.173,818.753L685.179,826.092L683.392,824.969L689.386,817.63L686.427,815.771L687.697,814.216ZM749.901,829.607L755.55,828.247C757.902,827.68 759.19,828.613 759.68,830.176L760.893,834.052C761.265,835.24 761.056,835.795 759.47,836.177L755.069,837.237C752.841,837.773 751.616,837.043 751.127,835.48C750.657,833.98 751.238,832.899 753.555,832.341L758.027,831.263L757.831,830.638C757.631,829.997 757.064,829.596 756.031,829.845L750.4,831.201L749.901,829.607ZM758.538,834.67C758.912,834.58 759.016,834.42 758.923,834.123L758.438,832.576L754.001,833.645C753.004,833.885 752.76,834.331 752.951,834.94C753.141,835.55 753.638,835.85 754.582,835.623L758.538,834.67ZM778.354,814.344L779.932,813.299L781.302,814.889L779.724,815.935L778.354,814.344ZM732.657,830.963L738.071,830.964L738.07,832.618L732.674,832.616C731.769,832.615 731.399,832.939 731.399,833.588C731.399,834.187 731.694,834.512 732.784,834.512L735.076,834.513C737.773,834.514 738.457,835.6 738.456,836.929C738.455,838.452 737.549,839.522 735.258,839.521L729.585,839.519L729.586,837.85L735.259,837.852C736.164,837.852 736.534,837.577 736.534,836.912C736.535,836.231 736.128,835.956 735.149,835.955L732.839,835.954C730.141,835.954 729.477,834.77 729.477,833.457C729.478,831.918 730.384,830.962 732.657,830.963ZM714.882,828.913L718.827,829.629C722.066,830.217 723.322,831.852 722.775,834.169L721.664,838.883L719.727,838.531L720.839,833.817C721.15,832.5 720.454,831.612 718.445,831.248L715.315,830.68C715.152,830.65 715.061,830.717 715.023,830.875L713.485,837.398L711.567,837.05L713.236,829.972C713.468,828.988 713.923,828.739 714.882,828.913ZM726.093,827.368L728.061,827.532L727.845,829.517L725.877,829.352L726.093,827.368ZM763.551,823.303L765.475,822.402L767.868,826.334L773.492,823.701L771.099,819.769L773.039,818.861L778.912,828.512L776.972,829.42L774.519,825.388L768.895,828.021L771.348,832.053L769.425,832.954L763.551,823.303ZM787.365,811.659L789.253,809.969C790.883,808.511 792.739,808.563 794.745,810.288L798.757,813.736C800.736,815.438 800.843,816.709 798.928,818.422L794.867,822.057L793.521,820.9L797.427,817.404C798.449,816.49 798.376,815.837 797.373,814.975L797.056,814.703L794.043,817.4C792.219,819.032 789.985,819.109 787.729,817.169C785.485,815.24 785.541,813.291 787.365,811.659ZM789.165,815.976C790.591,817.201 791.728,817.248 792.905,816.195L795.789,813.614L793.348,811.515C792.213,810.539 791.298,810.501 790.199,811.485L788.84,812.701C787.663,813.754 787.74,814.75 789.165,815.976ZM774.816,816.689L776.393,815.644L777.764,817.234L776.186,818.28L774.816,816.689ZM804.475,788.913L805.203,787.231C806.121,785.11 808.191,784.256 811.266,785.28C814.341,786.304 815.243,788.147 814.325,790.268L813.597,791.95C812.672,794.087 810.61,794.926 807.534,793.902C804.459,792.878 803.551,791.05 804.475,788.913ZM806.9,787.97L806.303,789.348C805.7,790.743 806.267,791.625 808.236,792.28C810.206,792.936 811.28,792.6 811.883,791.206L812.48,789.827C813.077,788.449 812.534,787.557 810.564,786.901C808.595,786.246 807.497,786.591 806.9,787.97Z"/>
            </g>
        </g>
    </g>
</svg>
