<?xml version="1.0" encoding="UTF-8" standalone="no"?>
<!DOCTYPE svg PUBLIC "-//W3C//DTD SVG 1.1//EN" "http://www.w3.org/Graphics/SVG/1.1/DTD/svg11.dtd">
<svg width="827px" height="827px" version="1.1" xmlns="http://www.w3.org/2000/svg" xmlns:xlink="http://www.w3.org/1999/xlink" xml:space="preserve" xmlns:serif="http://www.serif.com/" style="fill-rule:evenodd;clip-rule:evenodd;stroke-linejoin:round;stroke-miterlimit:2;">
    <g transform="matrix(1,0,0,1,-2952.755906,-118.110236)">
        <g transform="matrix(2.657765,0,0,3.786588,-3191.903145,-2100.951278)">
            <g id="VR-AR" serif:id="VR/AR" transform="matrix(1.634737,0,0,1.308162,1267.607697,-304.928139)">
                <g>
                    <g transform="matrix(0.113811,0,-0,0.099825,637.043539,679.440551)">
                        <circle cx="851.9" cy="852.4" r="822" style="fill:rgb(153,204,102);"/>
                    </g>
                    <g transform="matrix(0.113811,0,-0,0.099825,637.043539,679.440551)">
                        <path d="M851.9,16.4C1313.301,16.4 1687.9,390.999 1687.9,852.4C1687.9,1313.801 1313.301,1688.4 851.9,1688.4C390.499,1688.4 15.9,1313.801 15.9,852.4C15.9,390.999 390.499,16.4 851.9,16.4ZM851.9,44.4C405.953,44.4 43.9,406.453 43.9,852.4C43.9,1298.347 405.953,1660.4 851.9,1660.4C1297.847,1660.4 1659.9,1298.347 1659.9,852.4C1659.9,406.453 1297.847,44.4 851.9,44.4Z"/>
                    </g>
                    <g transform="matrix(0.113812,0,0,0.099826,637.044313,679.443284)">
                        <circle cx="851.9" cy="852.4" r="578.8" style="fill:white;"/>
                    </g>
                    <g transform="matrix(0.113812,0,0,0.099826,637.044313,679.443284)">
                        <path d="M851.9,259.6C1179.075,259.6 1444.7,525.225 1444.7,852.4C1444.7,1179.575 1179.075,1445.2 851.9,1445.2C524.725,1445.2 259.1,1179.575 259.1,852.4C259.1,525.225 524.725,259.6 851.9,259.6ZM851.9,287.6C540.178,287.6 287.1,540.678 287.1,852.4C287.1,1164.122 540.178,1417.2 851.9,1417.2C1163.622,1417.2 1416.7,1164.122 1416.7,852.4C1416.7,540.678 1163.622,287.6 851.9,287.6Z"/>
                    </g>
                </g>
                <g transform="matrix(2.215748,0,0,1.943458,687.70867,723.718813)">
                    <g transform="matrix(1.046502,0,0,1.046502,-1.08493,-0.97655)">
                        <path d="M4.03,22C4.448,29.208 9.357,35.208 16,37.249L16,22L20,22L20,41.976C9.198,41.469 0.531,32.802 0.024,22L4.03,22Z" style="fill:rgb(153,204,102);fill-rule:nonzero;"/>
                    </g>
                    <g transform="matrix(1.046502,0,0,1.046502,-1.08493,-0.97655)">
                        <path d="M4.599,21.967C4.987,28.664 9.387,34.282 15.431,36.459L15.431,21.431L20.569,21.431L20.569,42.572L19.973,42.544C8.878,42.024 -0.024,33.122 -0.544,22.027L-0.572,21.431L4.567,21.431L4.599,21.967ZM3.501,22.569L0.63,22.569C1.391,32.602 9.398,40.609 19.431,41.37L19.431,22.569L16.569,22.569L16.569,38.019L15.833,37.793C9.133,35.734 4.14,29.779 3.501,22.569Z"/>
                    </g>
                    <g transform="matrix(1.046502,0,0,1.046502,-1.08493,-0.97655)">
                        <path d="M26,22C26,23.956 26.936,25.692 28.384,26.787L29.95,25.222C32.013,23.159 34.81,22 37.727,22L41.976,22C41.911,23.372 41.715,24.709 41.399,26L37.727,26C35.895,26 34.139,26.719 32.831,28L40.804,28C38.026,35.857 30.707,41.567 22,41.976L22,22L26,22ZM26,37.249C29.136,36.285 31.885,34.439 33.958,32L32,32C29.749,32 27.671,31.256 26,30L26,37.249Z" style="fill:rgb(153,204,102);"/>
                    </g>
                    <g transform="matrix(1.046502,0,0,1.046502,-1.08493,-0.97655)">
                        <path d="M26.569,22C26.569,23.593 27.255,25.025 28.348,26.018L29.548,24.819C31.717,22.65 34.659,21.431 37.727,21.431L42.572,21.431L42.544,22.027C42.478,23.436 42.276,24.809 41.952,26.135L41.846,26.569L37.728,26.569C36.59,26.569 35.483,26.871 34.515,27.431L41.609,27.431L41.34,28.19C38.488,36.26 30.97,42.125 22.027,42.544L21.431,42.572L21.431,21.431L26.569,21.431L26.569,22ZM25.455,22.569L22.569,22.569L22.569,41.37C30.496,40.769 37.158,35.643 39.982,28.569L31.436,28.569L32.433,27.593C33.847,26.209 35.746,25.431 37.727,25.431L40.947,25.431C41.154,24.499 41.296,23.544 41.37,22.569L37.728,22.569C34.961,22.569 32.309,23.668 30.353,25.624L28.436,27.54L28.04,27.241C26.597,26.149 25.619,24.476 25.455,22.569ZM25.431,28.861L26.342,29.545C27.918,30.729 29.877,31.431 32,31.431L35.189,31.431L34.392,32.369C32.249,34.89 29.409,36.797 26.167,37.793L25.431,38.019L25.431,28.861ZM26.569,36.459C28.887,35.625 30.962,34.283 32.663,32.569L32,32.569C30.014,32.569 28.156,32.021 26.569,31.068L26.569,36.459Z"/>
                    </g>
                    <g transform="matrix(1.046502,0,0,1.046502,-1.08493,-0.97655)">
                        <path d="M20,20L16,20C16,16.686 13.314,14 10,14L5.505,14C4.669,15.848 4.154,17.871 4.03,20L0.024,20C0.531,9.198 9.198,0.531 20,0.024L20,20ZM16,4.749C12.863,5.713 10.114,7.56 8.041,10L10,10C12.251,10 14.329,10.744 16,11.999L16,4.749Z" style="fill:rgb(153,204,102);"/>
                    </g>
                    <g transform="matrix(1.046502,0,0,1.046502,-1.08493,-0.97655)">
                        <path d="M15.431,20.569L15.431,20C15.431,17.001 12.999,14.569 10,14.569L5.877,14.569C5.155,16.263 4.71,18.103 4.599,20.033L4.567,20.569L-0.572,20.569L-0.544,19.973C-0.024,8.878 8.878,-0.024 19.973,-0.544L20.569,-0.572L20.569,20.569L15.431,20.569ZM19.431,19.431L19.431,0.63C9.398,1.391 1.391,9.398 0.63,19.431L3.501,19.431C3.679,17.427 4.193,15.519 4.986,13.765L5.138,13.431L10,13.431C13.436,13.431 16.256,16.069 16.545,19.431L19.431,19.431ZM16.569,13.138L15.658,12.454C14.082,11.27 12.123,10.569 10,10.569L6.81,10.569L7.607,9.631C9.75,7.11 12.591,5.201 15.833,4.205L16.569,3.979L16.569,13.138ZM15.431,5.539C13.112,6.374 11.037,7.716 9.336,9.431L10,9.431C11.986,9.431 13.844,9.978 15.431,10.931L15.431,5.539Z"/>
                    </g>
                    <g transform="matrix(1.046502,0,0,1.046502,-1.08493,-0.97655)">
                        <path d="M22,0.024C30.707,0.433 38.026,6.143 40.804,14L32.831,14C34.139,15.281 35.895,16 37.727,16L41.399,16C41.715,17.291 41.911,18.628 41.976,20L37.727,20C34.81,20 32.013,18.841 29.95,16.778L28.384,15.212C26.936,16.307 26,18.044 26,20L22,20L22,0.024ZM26,11.999C27.671,10.744 29.749,10 32,10L33.959,10C31.886,7.56 29.137,5.713 26,4.749L26,11.999Z" style="fill:rgb(153,204,102);"/>
                    </g>
                    <g transform="matrix(1.046502,0,0,1.046502,-1.08493,-0.97655)">
                        <path d="M22.027,-0.544C30.97,-0.125 38.488,5.74 41.34,13.81L41.609,14.569L34.515,14.569C35.483,15.129 36.59,15.431 37.728,15.431L41.846,15.431L41.952,15.865C42.276,17.191 42.478,18.564 42.544,19.973L42.572,20.569L37.727,20.569C34.659,20.569 31.717,19.35 29.548,17.181L28.348,15.981C27.255,16.974 26.569,18.407 26.569,20L26.569,20.569L21.431,20.569L21.431,-0.572L22.027,-0.544ZM22.569,0.63L22.569,19.431L25.455,19.431C25.619,17.524 26.597,15.85 28.04,14.758L28.436,14.459L30.353,16.376C32.309,18.332 34.961,19.431 37.728,19.431L41.37,19.431C41.296,18.456 41.154,17.501 40.947,16.569L37.727,16.569C35.746,16.569 33.847,15.791 32.433,14.407L31.436,13.431L39.982,13.431C37.158,6.357 30.496,1.232 22.569,0.63ZM25.431,3.979L26.167,4.205C29.409,5.201 32.25,7.11 34.393,9.631L35.19,10.569L32,10.569C29.877,10.569 27.918,11.27 26.342,12.454L25.431,13.138L25.431,3.979ZM26.569,10.931C28.156,9.978 30.014,9.431 32,9.431L32.664,9.431C30.963,7.716 28.888,6.374 26.569,5.539L26.569,10.931Z"/>
                    </g>
                </g>
                <g transform="matrix(0.559412,0,0,0.24726,348.170721,497.092737)">
                    <path d="M559.478,1106.424L560.099,1114.059L545.719,1118.667C543.599,1119.346 542.105,1121.949 542.663,1128.809L544.042,1145.763L540.194,1146.995L538.778,1129.588C537.835,1118.005 540.663,1112.452 545.065,1111.041L559.478,1106.424ZM557.732,1144.569L558.789,1151.262L548.829,1157.457C546.875,1158.673 545.848,1162.471 546.678,1167.725L547.527,1173.104C548.357,1178.358 550.283,1180.252 552.237,1179.036L562.197,1172.841L563.225,1179.346L553.139,1185.62C549.293,1188.011 545.812,1184.819 544.32,1175.374L543.352,1169.244C541.86,1159.8 543.8,1153.235 547.646,1150.843L557.732,1144.569ZM565.37,1188.906L568.576,1201.701C571.209,1212.207 569.974,1219.794 565.656,1224.055L556.872,1232.722L555.298,1226.442L564.082,1217.775C566.537,1215.352 567.192,1211.193 565.559,1204.678L563.015,1194.524C562.883,1193.996 562.676,1193.907 562.38,1194.199L550.224,1206.193L548.665,1199.972L561.856,1186.956C563.69,1185.146 564.591,1185.795 565.37,1188.906ZM588.563,1237.089L590.601,1242.82L576.271,1262.889C572.169,1268.634 568.876,1267.789 566.477,1261.041L563.696,1253.222C561.01,1245.671 561.655,1237.708 566.459,1230.98C571.263,1224.253 575.26,1225.715 577.945,1233.266L582.383,1245.744L588.563,1237.089ZM568.666,1255.488C570.285,1260.04 571.939,1260.371 574.368,1256.97L579.63,1249.6L575.383,1237.657C573.65,1232.783 571.574,1232.402 568.497,1236.71C565.42,1241.019 564.933,1244.991 566.666,1249.865L568.666,1255.488ZM589.858,1263.039L596.519,1276.974L594.074,1281.575L587.437,1267.688C586.323,1265.358 585.389,1265.309 584.43,1267.113C583.543,1268.782 583.428,1270.445 584.769,1273.251L587.588,1279.148C590.906,1286.092 590.142,1290.874 588.177,1294.573C585.924,1298.813 583.228,1299.46 580.409,1293.562L573.431,1278.962L575.899,1274.316L582.878,1288.916C583.992,1291.247 584.854,1291.431 585.836,1289.581C586.843,1287.687 586.75,1285.874 585.546,1283.353L582.704,1277.408C579.385,1270.465 580.317,1265.46 582.258,1261.806C584.535,1257.521 587.062,1257.19 589.858,1263.039ZM606.934,1282.549L620.708,1302.132L618.438,1308.42L613.149,1300.899L602.433,1330.579L599.238,1326.036L609.953,1296.357L604.663,1288.836L606.934,1282.549ZM623.706,1316.27L628.689,1321.548C632.332,1325.406 632.943,1330.512 631.356,1336.41C629.848,1342.019 627.564,1343.687 623.776,1339.675L616.462,1331.928L615.871,1334.125C615.218,1336.554 615.406,1339.056 617.096,1340.847L626.508,1350.816L624.906,1356.772L615.494,1346.803C611.647,1342.729 611.283,1336.844 612.838,1331.062L615.638,1320.653C617.193,1314.87 619.86,1312.196 623.706,1316.27ZM618.624,1323.89L617.753,1327.128L624.98,1334.783C626.641,1336.542 627.626,1335.802 628.233,1333.547C628.855,1331.234 628.589,1329.021 627.074,1327.416L622.12,1322.169C620.43,1320.378 619.262,1321.519 618.624,1323.89ZM638.636,1314.79L641.931,1317.141L636.925,1344.775L638.448,1345.862C641.059,1347.724 641.632,1347.854 643.221,1345.087L647.733,1337.231L651.308,1339.781L646.593,1347.98C645.26,1350.303 644.159,1351.538 642.621,1351.694C644.019,1353.667 644.458,1356.279 644.839,1360.381L645.937,1372.727L642.238,1370.088L641.245,1358.514C640.896,1354.434 640.344,1353.414 637.453,1351.351L635.93,1350.265L633.472,1363.835L630.177,1361.485L638.636,1314.79ZM655.53,1341.989L662.582,1344.884C668.372,1347.261 670.617,1353.873 669.64,1363.244L667.653,1382.309L664.192,1380.888L666.179,1361.823C666.735,1356.496 665.49,1352.906 661.899,1351.432L656.303,1349.134C656.012,1349.015 655.85,1349.282 655.783,1349.924L653.032,1376.306L649.603,1374.898L652.588,1346.27C653.003,1342.29 653.816,1341.285 655.53,1341.989ZM674.946,1348.724L678.432,1349.383L676.777,1383.836L673.292,1383.177L674.946,1348.724ZM675.57,1335.738L679.088,1336.404L678.703,1344.43L675.184,1343.765L675.57,1335.738ZM687.304,1350.277L696.982,1350.285L696.981,1356.971L687.335,1356.963C685.717,1356.962 685.056,1358.272 685.055,1360.894C685.055,1363.319 685.583,1364.631 687.532,1364.632L691.628,1364.636C696.451,1364.639 697.672,1369.032 697.671,1374.407C697.67,1380.569 696.05,1384.894 691.954,1384.89L681.814,1384.882L681.815,1378.131L691.956,1378.139C693.574,1378.14 694.235,1377.026 694.236,1374.339C694.236,1371.586 693.51,1370.471 691.759,1370.47L687.63,1370.466C682.807,1370.462 681.619,1365.677 681.62,1360.367C681.621,1354.14 683.241,1350.274 687.304,1350.277ZM699.052,1335.146L702.521,1334.195L704.545,1363.285L706.148,1362.845C708.897,1362.092 709.435,1361.68 710.196,1357.766L712.357,1346.652L716.12,1345.621L713.86,1357.225C713.222,1360.51 712.535,1362.617 711.209,1364.171C712.908,1364.632 713.908,1366.542 715.204,1369.826L719.062,1379.753L715.169,1380.82L711.584,1371.48C710.321,1368.186 709.594,1367.79 706.55,1368.624L704.947,1369.064L705.941,1383.349L702.473,1384.299L699.052,1335.146ZM718.13,1344.796L728.227,1339.293C732.431,1337.002 734.735,1340.776 735.61,1347.097L737.779,1362.773C738.444,1367.576 738.07,1369.82 735.235,1371.365L727.367,1375.653C723.386,1377.823 721.196,1374.87 720.321,1368.549C719.481,1362.481 720.52,1358.108 724.661,1355.851L732.656,1351.494L732.306,1348.966C731.947,1346.374 730.935,1344.751 729.087,1345.758L719.022,1351.243L718.13,1344.796ZM733.569,1365.271C734.238,1364.907 734.423,1364.262 734.257,1363.061L733.391,1356.803L725.46,1361.126C723.676,1362.098 723.24,1363.899 723.581,1366.364C723.922,1368.829 724.81,1370.045 726.498,1369.125L733.569,1365.271ZM742.531,1319.298L745.97,1315.656L750.247,1331.558L760.3,1320.91L756.023,1305.007L759.491,1301.334L769.99,1340.367L766.522,1344.04L762.136,1327.733L752.082,1338.382L756.468,1354.689L753.03,1358.331L742.531,1319.298ZM769.74,1298.295L772.665,1293.909C776.355,1288.376 780.413,1289.357 783.957,1298.665C787.502,1307.974 786.869,1315.989 783.18,1321.521L780.255,1325.908C776.539,1331.48 772.507,1330.46 768.962,1321.151C765.418,1311.842 766.024,1303.867 769.74,1298.295ZM774.433,1299.638L772.035,1303.234C769.61,1306.87 769.512,1310.961 771.782,1316.923C774.052,1322.885 776.043,1323.762 778.467,1320.126L780.865,1316.53C783.263,1312.934 783.408,1308.856 781.138,1302.894C778.867,1296.932 776.831,1296.042 774.433,1299.638ZM762.667,1292.552L765.487,1288.323L767.937,1294.756L765.117,1298.984L762.667,1292.552ZM768.992,1283.067L771.812,1278.839L774.261,1285.271L771.442,1289.5L768.992,1283.067ZM785.1,1272.208L788.476,1265.374C791.389,1259.475 794.707,1259.687 798.293,1266.661L805.464,1280.609C809.003,1287.491 809.192,1292.633 805.77,1299.561L798.51,1314.26L796.104,1309.58L803.087,1295.443C804.913,1291.745 804.783,1289.105 802.99,1285.618L802.424,1284.517L797.037,1295.424C793.777,1302.025 789.784,1302.336 785.75,1294.491C781.74,1286.691 781.84,1278.809 785.1,1272.208ZM788.319,1289.665C790.866,1294.62 792.899,1294.812 795.003,1290.552L800.159,1280.112L795.795,1271.624C793.766,1267.678 792.131,1267.526 790.165,1271.505L787.738,1276.42C785.634,1280.68 785.771,1284.71 788.319,1289.665ZM797.684,1243.688L803.397,1228.185L806.116,1232.132L800.423,1247.582C799.468,1250.174 799.611,1252.006 800.677,1253.554C801.664,1254.986 802.509,1254.913 803.66,1251.791L806.077,1245.23C808.924,1237.505 811.432,1238.14 813.618,1241.313C816.125,1244.95 816.929,1250.096 814.511,1256.657L808.525,1272.9L805.779,1268.915L811.765,1252.672C812.72,1250.079 812.657,1248.363 811.564,1246.777C810.444,1245.152 809.562,1245.658 808.528,1248.462L806.091,1255.076C803.244,1262.801 800.596,1261.881 798.436,1258.747C795.903,1255.071 795.286,1250.196 797.684,1243.688ZM798.444,1215.966L800.101,1209.845L813.137,1223.742L813.903,1220.912C815.216,1216.061 815.366,1214.956 814.221,1211.429L810.969,1201.415L812.767,1194.775L816.159,1205.236C817.121,1208.195 817.574,1210.538 817.425,1213.58C818.614,1211.127 819.981,1210.649 822.082,1210.507L828.397,1210.171L826.537,1217.042L820.622,1217.285C818.537,1217.369 817.947,1218.302 816.493,1223.673L815.727,1226.502L822.129,1233.326L820.472,1239.447L798.444,1215.966ZM815.687,1180.217L816.988,1173.414C818.629,1164.835 822.328,1161.381 827.825,1165.522C833.322,1169.663 834.934,1177.117 833.293,1185.697L831.992,1192.499C830.339,1201.14 826.652,1204.532 821.155,1200.391C815.658,1196.251 814.034,1188.857 815.687,1180.217ZM820.02,1176.4L818.954,1181.977C817.875,1187.614 818.889,1191.182 822.409,1193.834C825.93,1196.486 827.85,1195.128 828.928,1189.49L829.995,1183.914C831.062,1178.337 830.091,1174.731 826.571,1172.079C823.05,1169.427 821.087,1170.823 820.02,1176.4ZM812.898,1149.581L813.789,1142.861L837.972,1155.48L837.081,1162.2L812.898,1149.581ZM822.339,1137.936L823.93,1117.399C824.593,1108.847 827.27,1106.215 830.535,1107.212L838.632,1109.683C841.113,1110.44 841.992,1112.034 841.545,1117.8L840.305,1133.803C839.677,1141.901 837.425,1144.662 834.16,1143.666C831.026,1142.709 829.439,1139.042 830.091,1130.619L831.351,1114.358L830.046,1113.959C828.707,1113.551 827.547,1114.722 827.256,1118.48L825.669,1138.952L822.339,1137.936ZM838.062,1118.329C838.167,1116.969 837.946,1116.371 837.326,1116.181L834.094,1115.195L832.844,1131.327C832.563,1134.955 833.213,1136.48 834.486,1136.868C835.76,1137.257 836.681,1136.145 836.947,1132.712L838.062,1118.329ZM619.24,808.121L623.793,804.491L638.616,836.511C639.051,837.456 639.535,837.635 640.095,837.188C640.656,836.741 640.908,835.976 640.928,834.668L640.818,790.919L645.406,787.26L645.513,835.614C645.524,840.692 644.25,843.645 641.798,845.599C639.486,847.442 637.404,847.407 635.6,843.517L619.24,808.121ZM651.189,784.556L664.787,779.697C670.435,777.68 673.478,783.747 674.201,791.71C674.763,797.903 673.879,805.069 670.246,808.574L677.885,826.397L673.018,828.135L665.55,810.937L659.012,813.273C658.603,813.419 658.413,813.868 658.494,814.752L660.126,832.742L655.742,834.308L653.956,814.623C653.447,809.02 654.429,806.309 657.178,805.327L666.949,801.836C669.439,800.947 670.134,797.197 669.813,793.658C669.492,790.119 668.14,787.481 665.725,788.344L651.979,793.255L651.189,784.556ZM688.218,769.504L692.066,769.226L681.725,837.549L677.839,837.83L688.218,769.504ZM706.628,787.521L696.148,825.981L691.276,824.813L702.876,782.32C704.099,777.86 705.931,776.488 708.592,777.127C711.216,777.756 712.831,779.954 713.445,784.855L719.272,831.527L714.363,830.35L709.139,788.124C708.987,786.88 708.606,786.26 708.007,786.116C707.407,785.973 706.963,786.394 706.628,787.521ZM728.046,784.467L741.144,793.192C746.584,796.815 747.781,805.04 746.484,812.71C745.475,818.676 742.962,824.114 738.927,823.718L741.302,846.636L736.614,843.513L734.238,821.306L727.94,817.11C727.546,816.848 727.271,817.06 727.127,817.912L724.196,835.241L719.973,832.428L723.18,813.466C724.093,808.068 725.611,806.63 728.259,808.394L737.672,814.663C740.069,816.261 741.588,813.638 742.165,810.229C742.741,806.82 742.196,803.217 739.87,801.667L726.628,792.847L728.046,784.467Z"/>
                </g>
            </g>
        </g>
    </g>
</svg>
