<?xml version="1.0" encoding="UTF-8" standalone="no"?>
<!DOCTYPE svg PUBLIC "-//W3C//DTD SVG 1.1//EN" "http://www.w3.org/Graphics/SVG/1.1/DTD/svg11.dtd">
<svg width="414px" height="414px" version="1.1" xmlns="http://www.w3.org/2000/svg" xmlns:xlink="http://www.w3.org/1999/xlink" xml:space="preserve" xmlns:serif="http://www.serif.com/" style="fill-rule:evenodd;clip-rule:evenodd;stroke-linejoin:round;stroke-miterlimit:2;">
    <g transform="matrix(1,0,0,1,-501.968504,-3218.503937)">
        <g transform="matrix(2.657765,0,0,3.786588,-3191.903145,-2100.951278)">
            <g id="symbol_vr-ar" transform="matrix(3.707616,0,0,2.602335,-9557.934563,-1866.937596)">
                <path d="M2956.786,1279.213C2957.204,1286.42 2962.113,1292.42 2968.756,1294.462L2968.756,1279.213L2972.756,1279.213L2972.756,1299.188C2961.954,1298.682 2953.287,1290.015 2952.78,1279.213L2956.786,1279.213ZM2978.756,1279.213C2978.756,1281.168 2979.692,1282.904 2981.14,1284L2982.706,1282.434C2984.769,1280.372 2987.566,1279.213 2990.483,1279.213L2994.732,1279.213C2994.667,1280.585 2994.471,1281.922 2994.155,1283.213L2990.483,1283.213C2988.651,1283.213 2986.894,1283.932 2985.587,1285.213L2993.56,1285.213C2990.782,1293.07 2983.463,1298.78 2974.756,1299.188L2974.756,1279.213L2978.756,1279.213ZM2978.756,1294.462C2981.892,1293.498 2984.641,1291.652 2986.714,1289.213L2984.756,1289.213C2982.505,1289.213 2980.427,1288.468 2978.756,1287.213L2978.756,1294.462ZM2972.756,1277.213L2968.756,1277.213C2968.756,1273.899 2966.07,1271.213 2962.756,1271.213L2958.261,1271.213C2957.425,1273.06 2956.91,1275.084 2956.786,1277.213L2952.78,1277.213C2953.287,1266.41 2961.954,1257.743 2972.756,1257.237L2972.756,1277.213ZM2968.756,1261.962C2965.619,1262.925 2962.87,1264.773 2960.797,1267.213L2962.756,1267.213C2965.007,1267.213 2967.085,1267.956 2968.756,1269.212L2968.756,1261.962ZM2974.756,1257.237C2983.463,1257.645 2990.782,1263.356 2993.56,1271.213L2985.587,1271.213C2986.894,1272.493 2988.651,1273.212 2990.483,1273.213L2994.155,1273.213C2994.471,1274.503 2994.667,1275.841 2994.732,1277.213L2990.483,1277.213C2987.566,1277.212 2984.769,1276.053 2982.706,1273.991L2981.14,1272.424C2979.692,1273.52 2978.756,1275.257 2978.756,1277.213L2974.756,1277.213L2974.756,1257.237ZM2978.756,1269.212C2980.427,1267.956 2982.505,1267.213 2984.756,1267.213L2986.715,1267.213C2984.642,1264.773 2981.893,1262.925 2978.756,1261.962L2978.756,1269.212Z" style="fill-rule:nonzero;"/>
            </g>
        </g>
    </g>
</svg>
