<?xml version="1.0" encoding="UTF-8" standalone="no"?>
<!DOCTYPE svg PUBLIC "-//W3C//DTD SVG 1.1//EN" "http://www.w3.org/Graphics/SVG/1.1/DTD/svg11.dtd">
<svg width="833px" height="178px" version="1.1" xmlns="http://www.w3.org/2000/svg" xmlns:xlink="http://www.w3.org/1999/xlink" xml:space="preserve" xmlns:serif="http://www.serif.com/" style="fill-rule:evenodd;clip-rule:evenodd;stroke-linejoin:round;stroke-miterlimit:2;">
    <g transform="matrix(1,0,0,1,-1181.102362,-3336.614173)">
        <g transform="matrix(2.657765,0,0,3.786588,-3191.903145,-2100.951278)">
            <g id="wordmark_vr-ar" transform="matrix(3.332976,0,0,2.33938,1645.369509,1436.00661)">
                <path d="M74,0C82.718,0.409 90.046,6.126 92.827,13.993L84.844,13.993C86.153,15.275 87.912,15.995 89.747,15.995L93.423,15.995C93.739,17.287 93.936,18.626 94,20L89.747,20C86.826,20 84.025,18.84 81.96,16.774L80.392,15.206C78.942,16.303 78.005,18.042 78.005,20L74,20L74,0ZM78.005,11.989C79.678,10.732 81.758,9.988 84.012,9.988L85.974,9.988C83.898,7.545 81.145,5.695 78.005,4.73L78.005,11.989ZM22,0C30.718,0.409 38.046,6.126 40.827,13.993L32.844,13.993C34.153,15.275 35.912,15.995 37.747,15.995L41.423,15.995C41.739,17.287 41.936,18.626 42,20L37.747,20C34.826,20 32.025,18.84 29.96,16.774L28.392,15.206C26.942,16.303 26.005,18.042 26.005,20L22,20L22,0ZM26.005,11.989C27.678,10.732 29.758,9.988 32.012,9.988L33.974,9.988C31.898,7.545 29.146,5.695 26.005,4.73L26.005,11.989ZM4.011,0C4.429,7.217 9.344,13.224 15.995,15.268L15.995,0L20,0L20,20C9.185,19.493 0.507,10.815 0,0L4.011,0ZM72,20L67.995,20C67.995,16.682 65.305,13.993 61.988,13.993L57.487,13.993C56.65,15.842 56.134,17.869 56.011,20L52,20C52.507,9.185 61.185,0.507 72,0L72,20ZM67.995,4.73C64.854,5.695 62.102,7.545 60.026,9.988L61.988,9.988C64.242,9.988 66.322,10.732 67.995,11.989L67.995,4.73ZM50,0L54,0L48,20L44,20L50,0Z"/>
            </g>
        </g>
    </g>
</svg>
