<?xml version="1.0" encoding="UTF-8" standalone="no"?>
<!DOCTYPE svg PUBLIC "-//W3C//DTD SVG 1.1//EN" "http://www.w3.org/Graphics/SVG/1.1/DTD/svg11.dtd">
<svg width="12px" height="16px" version="1.1" xmlns="http://www.w3.org/2000/svg" xmlns:xlink="http://www.w3.org/1999/xlink" xml:space="preserve" xmlns:serif="http://www.serif.com/" style="fill-rule:evenodd;clip-rule:evenodd;stroke-linejoin:round;stroke-miterlimit:2;">
    <g transform="matrix(1,0,0,1,-496.938784,-3881.637795)">
        <g transform="matrix(2.657765,0,0,3.786588,-3191.903145,-2100.951278)">
            <g id="symbol_data_12x16" transform="matrix(0.376256,0,0,0.26409,1387.196354,1579.941893)">
                <path d="M7,0.061C7.502,0 8.01,0 8.5,0C11,0 14,0 14,8C14,16 11,16 8.5,16C8.335,16 8.168,15.999 8,15.997L8,16L2,16L2,15C2.552,15 3,14.552 3,14L3,4C3,3.448 2.552,3 2,3L2,2L6,0L7,0L7,0.061ZM4,14C4,14.365 3.901,14.706 3.73,15L4.812,15C4.513,14.718 4.24,14.355 4,13.891L4,14ZM8,1C7.448,1 7,1.448 7,2L7,14C7,14.552 7.448,15 8,15L9,15C9.552,15 10,14.552 10,14L10,2C10,1.448 9.552,1 9,1L8,1ZM11,14C11,14.243 10.954,14.475 10.874,14.69C11.1,14.588 11.309,14.453 11.502,14.271C11.585,14.193 11.668,14.103 11.75,14L11,14ZM11,13L12.309,13C12.423,12.715 12.528,12.384 12.62,12L11,12L11,13ZM11,11L12.81,11C12.854,10.693 12.893,10.36 12.923,10L11,10L11,11ZM11,9L12.98,9C12.984,8.906 12.989,8.81 12.991,8.712L13,8L11,8L11,9ZM11,7L12.98,7C12.968,6.645 12.95,6.312 12.924,6L11,6L11,7ZM11,5L12.81,5C12.757,4.632 12.693,4.3 12.621,4L11,4L11,5ZM11,2L11,3L12.31,3C12.139,2.571 11.946,2.247 11.749,2L11,2ZM3.29,2.473C3.434,2.594 3.557,2.737 3.662,2.894C3.763,2.608 3.874,2.352 3.993,2.12L3.29,2.473Z"/>
            </g>
        </g>
    </g>
</svg>
