<?xml version="1.0" encoding="UTF-8" standalone="no"?>
<!DOCTYPE svg PUBLIC "-//W3C//DTD SVG 1.1//EN" "http://www.w3.org/Graphics/SVG/1.1/DTD/svg11.dtd">
<svg width="351px" height="473px" version="1.1" xmlns="http://www.w3.org/2000/svg" xmlns:xlink="http://www.w3.org/1999/xlink" xml:space="preserve" xmlns:serif="http://www.serif.com/" style="fill-rule:evenodd;clip-rule:evenodd;stroke-linejoin:round;stroke-miterlimit:2;">
    <g transform="matrix(1,0,0,1,-533.562992,-2007.874016)">
        <g transform="matrix(2.657765,0,0,3.786588,-3191.903145,-2100.951278)">
            <g id="symbol_data" transform="matrix(7.406614,0,0,5.198622,1378.694374,1085.099634)">
                <path d="M16.14,3.88C16.13,3.59 16.12,3.3 16.11,3.02L18.03,3.02C18.26,3.27 18.47,3.55 18.66,3.87L16.14,3.88ZM19.48,3.16C18.35,1.18 16.17,0.19 12.96,0.19C12.12,0.19 11.37,0.25 10.7,0.37L10.7,0L10.32,0L3.32,3.21L3.32,4.92C3.79,4.92 4.19,5.09 4.53,5.42C4.86,5.75 5.03,6.15 5.03,6.62L5.03,20.55L5.04,20.39C5.04,20.86 4.87,21.27 4.54,21.6C4.21,21.94 3.8,22.1 3.33,22.1L3.11,22.1L3.11,24L12.96,24C16.17,24 18.35,23.01 19.48,21.02C20.42,19.37 20.9,16.39 20.9,12.09C20.89,7.8 20.42,4.82 19.48,3.16ZM16.18,5.86L16.18,5.01L19.18,5.01C19.29,5.38 19.37,5.67 19.42,5.86L16.18,5.86ZM16.18,7.84L16.18,6.99L19.71,6.98C19.74,7.2 19.78,7.49 19.81,7.84L16.18,7.84ZM16.18,9.83L16.18,8.97L19.91,8.97C19.92,9.2 19.93,9.48 19.94,9.83L16.18,9.83ZM16.19,11.81L16.17,10.96L19.94,10.96L19.94,11.81L16.19,11.81ZM19.95,13.79L16.2,13.79L16.2,12.94L19.95,12.94L19.95,13.79ZM6.52,3.22L5.57,3.21L7.01,2.54C6.84,2.73 6.68,2.95 6.52,3.22ZM19.87,15.78L16.17,15.78L16.17,14.92L19.91,14.92C19.9,15.31 19.89,15.59 19.87,15.78ZM14.94,22.73C14.71,22.96 14.44,23.08 14.12,23.08L13.32,23.08L13.32,22.08L12.4,22.08C11.93,22.08 11.53,21.91 11.2,21.58C10.87,21.25 10.7,20.84 10.7,20.37L10.7,2.08C10.83,1.45 11.2,1.14 11.82,1.14L14.12,1.14C14.43,1.14 14.71,1.25 14.93,1.47C15.16,1.69 15.27,1.96 15.27,2.27L15.27,21.91C15.28,22.23 15.16,22.5 14.94,22.73ZM5.72,5.08C5.55,4.81 5.3,4.56 5,4.35L6,4.35C5.85,4.71 5.76,4.95 5.72,5.08ZM19.6,17.76L16.18,17.76L16.18,16.91L19.79,16.91C19.71,17.29 19.65,17.58 19.6,17.76ZM19.1,19.75L16.17,19.75L16.17,18.9L19.4,18.9C19.32,19.19 19.22,19.47 19.1,19.75ZM17.69,21.73L16.04,21.73C16.06,21.5 16.08,21.22 16.1,20.88L18.47,20.88C18.2,21.24 17.94,21.52 17.69,21.73ZM6.01,21.26C6.11,21.01 6.18,20.75 6.21,20.48C6.4,20.9 6.54,21.17 6.6,21.27L6.01,21.26ZM4.19,23.06L4.21,22.93C4.46,22.85 4.75,22.69 5.08,22.45L7.56,22.45C7.84,22.7 8.12,22.9 8.39,23.06L4.19,23.06Z" style="fill-rule:nonzero;"/>
            </g>
        </g>
    </g>
</svg>
