<?xml version="1.0" encoding="UTF-8" standalone="no"?>
<!DOCTYPE svg PUBLIC "-//W3C//DTD SVG 1.1//EN" "http://www.w3.org/Graphics/SVG/1.1/DTD/svg11.dtd">
<svg width="18px" height="24px" version="1.1" xmlns="http://www.w3.org/2000/svg" xmlns:xlink="http://www.w3.org/1999/xlink" xml:space="preserve" xmlns:serif="http://www.serif.com/" style="fill-rule:evenodd;clip-rule:evenodd;stroke-linejoin:round;stroke-miterlimit:2;">
    <g transform="matrix(1,0,0,1,-472.440945,-3873.637795)">
        <g transform="matrix(2.657765,0,0,3.786588,-3191.903145,-2100.951278)">
            <g id="symbol_data_18x24" transform="matrix(0.376256,0,0,0.26409,1377.602639,1577.829174)">
                <path d="M11,0.075C11.678,0 12.356,0 13,0L13.667,0.003C17.045,0.047 21,0.75 21,12C21,24 16.5,24 13,24L3,24L3,22C4.105,22 5,21.105 5,20L5,7C5,5.895 4.105,5 3,5L3,3L10,0L11,0L11,0.075ZM4,22.825C4.478,22.656 4.898,22.369 5.23,22L7.232,22C7.565,22.412 7.923,22.74 8.301,23L4,23L4,22.825ZM11,2C11,1.448 11.448,1 12,1L14,1C14.552,1 15,1.448 15,2L15,22C15,22.552 14.552,23 14,23L13,23L13,22C11.895,22 11,21.105 11,20L11,2ZM17.366,22L16,22L16,21L18.265,21C18.057,21.311 17.841,21.567 17.62,21.778C17.537,21.858 17.452,21.931 17.366,22ZM5.827,21C5.938,20.687 6,20.351 6,20L6,19.698C6.173,20.185 6.365,20.617 6.572,21L5.827,21ZM18.805,20L16,20L16,19L19.18,19C19.064,19.369 18.937,19.7 18.805,20ZM19.446,18L16,18L16,17L19.645,17C19.585,17.355 19.518,17.688 19.446,18ZM19.786,16L16,16L16,15L19.887,15C19.858,15.349 19.824,15.682 19.786,16ZM19.953,14L16,14L16,13L19.988,13L19.987,13.075C19.979,13.394 19.968,13.702 19.953,14ZM20,12L16,12L16,11L19.988,11C19.996,11.322 20,11.656 20,12ZM19.952,10L16,10L16,9L19.887,9C19.913,9.32 19.935,9.653 19.952,10ZM19.785,8L16,8L16,7L19.645,7C19.697,7.316 19.743,7.649 19.785,8ZM19.446,6L16,6L16,5L19.178,5C19.274,5.307 19.364,5.64 19.446,6ZM5.628,5.559C5.275,4.919 4.698,4.421 4,4.174L4,4L6.114,4C5.934,4.464 5.769,4.981 5.628,5.559ZM18.804,4L16,4L16,3L18.264,3C18.454,3.285 18.634,3.616 18.804,4ZM6.571,3L5.535,3L6.934,2.4C6.808,2.585 6.687,2.785 6.571,3Z"/>
            </g>
        </g>
    </g>
</svg>
