<?xml version="1.0" encoding="UTF-8" standalone="no"?>
<!DOCTYPE svg PUBLIC "-//W3C//DTD SVG 1.1//EN" "http://www.w3.org/Graphics/SVG/1.1/DTD/svg11.dtd">
<svg width="827px" height="827px" version="1.1" xmlns="http://www.w3.org/2000/svg" xmlns:xlink="http://www.w3.org/1999/xlink" xml:space="preserve" xmlns:serif="http://www.serif.com/" style="fill-rule:evenodd;clip-rule:evenodd;stroke-linejoin:round;stroke-miterlimit:2;">
    <g transform="matrix(1,0,0,1,-118.142363,-1062.992126)">
        <g transform="matrix(2.657765,0,0,3.786588,-3191.903145,-2100.951278)">
            <g id="Sektionen" transform="matrix(0.186053,0,0,0.130589,1242.467493,833.427726)">
                <path d="M851.885,16.372C1313.281,16.373 1687.877,390.968 1687.877,852.364C1687.877,1313.761 1313.282,1688.356 851.885,1688.356C390.488,1688.356 15.893,1313.761 15.893,852.364C15.893,390.968 390.489,16.373 851.885,16.372ZM851.885,44.372C405.942,44.372 43.893,406.421 43.893,852.364C43.893,1298.308 405.942,1660.357 851.885,1660.357C1297.828,1660.357 1659.877,1298.308 1659.877,852.364C1659.877,406.421 1297.828,44.372 851.885,44.372ZM361.59,1319.46C359.69,1323.06 355.19,1328.76 349.99,1333.96C348.09,1334.26 345.99,1332.46 346.09,1330.66C351.59,1321.16 351.19,1313.06 345.39,1306.66C340.39,1301.06 333.79,1300.36 329.09,1304.56C323.69,1309.36 325.39,1316.86 328.09,1324.76C332.49,1337.26 335.09,1350.66 323.69,1360.86C311.59,1371.959 295.89,1365.66 284.29,1352.66C277.291,1344.86 273.591,1336.86 273.291,1330.66C275.291,1325.26 280.391,1319.46 286.29,1314.66C287.99,1314.36 290.29,1316.16 289.89,1318.16C283.89,1327.86 282.29,1340.16 290.29,1349.16C295.09,1354.56 301.79,1355.76 306.69,1351.36C312.99,1345.76 312.59,1337.66 309.49,1328.86C305.29,1317.16 303.49,1304.06 313.19,1295.36C324.29,1285.36 339.19,1289.26 351.29,1302.86C356.89,1309.36 359.39,1315.16 361.59,1319.46ZM1335.68,383.869C1332.88,386.869 1321.581,399.269 1319.581,401.969C1318.081,401.969 1316.681,401.569 1315.381,400.669C1314.881,400.169 1314.381,399.669 1313.981,399.069C1314.381,395.569 1314.781,389.669 1314.381,371.669L1313.881,325.67C1313.881,314.97 1313.981,307.17 1313.581,303.97C1310.381,306.87 1305.681,311.97 1301.381,316.67L1291.981,326.869C1285.981,333.469 1281.781,338.869 1280.281,340.869C1275.281,347.269 1274.381,350.369 1278.681,355.169L1281.881,358.669C1282.281,360.669 1279.781,363.469 1277.481,362.769C1272.581,357.669 1269.181,354.369 1264.781,350.269C1260.381,346.169 1257.281,343.669 1251.281,338.669C1250.481,336.769 1252.781,333.669 1255.081,333.969L1258.981,336.769C1263.781,340.069 1266.681,338.769 1272.181,333.669C1274.181,331.869 1279.081,327.069 1285.081,320.47L1303.981,299.87C1311.981,291.17 1313.181,289.27 1313.381,285.97C1313.481,283.77 1310.181,278.47 1308.881,276.77L1307.881,275.07C1307.681,273.17 1310.781,270.37 1312.381,271.07C1317.781,276.87 1322.681,281.37 1326.88,285.27C1330.28,288.37 1332.68,290.27 1337.38,294.07C1335.58,298.87 1334.78,305.77 1334.88,320.37L1335.18,347.869C1335.28,354.169 1335.68,365.769 1336.08,368.669C1337.48,367.769 1338.58,366.469 1341.68,363.169L1349.68,354.469C1355.68,347.869 1359.88,342.469 1361.38,340.469C1366.38,334.069 1367.18,331.169 1363.48,326.869L1359.78,322.67C1359.38,320.67 1361.88,317.87 1364.18,318.57C1368.78,323.37 1372.18,326.769 1376.88,331.069C1381.28,335.169 1384.38,337.669 1390.38,342.669C1391.18,344.569 1388.88,347.669 1386.58,347.369L1382.68,344.569C1377.88,341.269 1374.78,342.369 1369.48,347.669C1367.48,349.469 1362.58,354.269 1356.58,360.869L1335.68,383.869ZM1400.08,1350.46C1403.28,1353.66 1404.68,1354.76 1407.68,1352.76C1408.78,1353.16 1409.58,1354.16 1409.68,1355.26C1404.98,1362.76 1397.08,1374.259 1390.08,1381.259C1379.18,1392.259 1366.78,1398.759 1354.18,1399.159C1343.98,1399.459 1333.68,1394.759 1326.68,1387.759C1319.781,1380.859 1314.481,1371.259 1314.381,1359.26C1314.381,1347.56 1320.381,1333.46 1331.98,1321.66C1339.98,1313.66 1350.68,1307.26 1353.68,1305.46C1358.68,1310.16 1363.98,1314.56 1369.48,1318.66C1370.08,1320.06 1368.08,1322.56 1366.28,1322.56C1354.18,1316.36 1344.78,1318.36 1335.78,1327.46C1323.281,1339.96 1326.88,1357.26 1340.28,1370.559C1356.18,1386.459 1374.78,1386.659 1386.28,1375.259C1391.38,1370.159 1391.48,1368.759 1387.78,1365.06L1382.38,1359.76C1377.58,1354.96 1376.28,1354.16 1369.78,1358.86L1366.08,1361.56C1364.38,1361.96 1361.98,1359.26 1362.78,1357.46C1367.88,1352.86 1372.78,1348.46 1378.58,1342.66C1382.78,1338.46 1386.18,1334.46 1390.28,1329.96C1392.08,1329.16 1394.78,1331.56 1394.18,1333.36L1392.68,1335.66C1389.78,1340.16 1390.48,1341.16 1395.48,1346.06L1400.08,1350.46ZM1399.58,1247.461C1403.48,1248.661 1409.88,1252.061 1415.88,1256.361C1416.48,1258.161 1415.08,1260.561 1413.38,1260.761C1403.08,1257.061 1395.18,1258.861 1389.88,1265.66C1385.18,1271.66 1385.78,1278.26 1390.78,1282.06C1396.48,1286.46 1403.58,1283.56 1410.88,1279.46C1422.38,1272.96 1435.079,1268.06 1447.179,1277.46C1460.179,1287.36 1456.879,1303.96 1446.079,1317.76C1439.679,1325.96 1432.479,1331.06 1426.38,1332.46C1420.78,1331.46 1414.08,1327.46 1408.38,1322.46C1407.78,1320.86 1409.18,1318.26 1411.18,1318.26C1421.78,1322.46 1434.179,1321.86 1441.579,1312.36C1445.979,1306.66 1446.079,1299.86 1440.779,1295.76C1434.079,1290.56 1426.28,1292.46 1418.08,1296.96C1407.28,1303.16 1394.68,1307.26 1384.48,1299.26C1372.68,1290.06 1373.88,1274.76 1385.08,1260.461C1390.48,1253.861 1395.68,1250.361 1399.58,1247.461ZM744.586,153.471C745.186,157.571 745.586,161.071 747.686,160.771C752.586,160.071 755.186,157.271 758.986,151.771L771.386,133.571C772.386,131.971 775.786,126.071 775.586,124.671C775.486,123.671 774.786,123.071 772.686,122.971L770.186,122.671C768.186,121.871 767.886,117.971 769.786,116.672C775.386,116.372 781.386,115.772 787.086,114.972C792.186,114.272 799.786,113.072 804.185,112.072C806.085,112.472 806.685,116.372 805.385,117.971C801.986,118.971 798.686,120.171 795.486,121.771C790.186,124.371 784.386,131.171 776.986,140.971L771.486,148.171C769.686,150.471 769.286,151.971 769.386,152.871C769.486,153.871 770.086,155.271 776.186,161.571C785.886,171.771 798.286,185.971 806.185,191.971C810.085,194.771 813.985,195.471 818.385,195.571L821.285,195.571C822.485,197.071 822.985,200.171 821.685,201.571C815.685,201.971 808.885,202.671 799.286,203.971C791.486,205.071 783.886,206.071 776.186,207.671C774.386,207.071 773.686,202.971 775.186,201.771L777.986,200.771C781.386,199.471 781.786,197.971 780.786,196.671C779.486,194.971 774.086,188.971 771.386,186.071L762.086,176.071C758.386,171.971 754.286,166.471 750.186,166.971C746.486,167.471 746.586,168.471 747.486,174.871L749.186,187.171C750.986,200.671 752.086,203.671 759.786,203.471L763.986,203.371C765.786,204.371 765.886,208.371 764.586,209.371C757.186,209.971 749.286,210.771 741.486,211.871C733.286,212.971 725.486,214.271 719.386,215.471C717.886,214.871 716.886,210.971 718.386,209.571L721.186,208.771C728.686,206.771 728.886,203.771 727.086,190.271L721.386,147.571C719.586,134.071 718.486,131.071 710.786,131.271L707.286,131.371C705.286,130.371 704.986,126.471 707.086,125.371C713.486,124.971 721.286,124.071 729.486,122.971C737.286,121.871 745.086,120.671 751.786,119.371C753.586,119.971 754.286,123.871 752.786,125.271L748.786,126.471C741.986,128.471 741.686,131.171 743.486,144.771L744.586,153.471ZM1171.382,258.97C1169.682,262.77 1162.582,277.97 1161.582,281.07C1160.182,281.57 1158.682,281.57 1157.182,281.07C1156.582,280.77 1155.982,280.47 1155.382,279.97C1154.682,276.47 1153.282,270.77 1147.482,253.67L1133.082,209.971C1129.782,199.771 1127.582,192.371 1126.182,189.471C1123.982,193.271 1121.082,199.471 1118.382,205.271L1112.583,217.871C1108.883,225.97 1106.483,232.37 1105.683,234.77C1102.883,242.37 1102.983,245.57 1108.483,248.87L1112.583,251.27C1113.583,253.07 1111.983,256.47 1109.683,256.57C1103.483,253.27 1099.283,251.07 1093.783,248.57C1088.383,246.07 1084.683,244.57 1077.383,241.67C1076.083,240.17 1077.283,236.37 1079.483,236.07L1084.083,237.47C1089.683,239.17 1092.083,237.07 1095.783,230.57C1097.083,228.17 1100.383,222.17 1104.083,214.071L1115.882,188.671C1120.882,177.971 1121.382,175.771 1120.582,172.571C1119.982,170.471 1115.183,166.471 1113.483,165.171L1112.083,163.871C1111.283,162.171 1113.383,158.571 1115.183,158.671C1122.082,162.571 1128.082,165.371 1133.282,167.771C1137.382,169.671 1140.282,170.771 1145.982,172.971C1145.682,178.071 1147.082,184.871 1151.582,198.871L1160.182,224.97C1162.182,230.97 1166.082,241.87 1167.382,244.47C1168.482,243.17 1169.182,241.67 1171.082,237.47L1176.082,226.77C1179.782,218.671 1182.182,212.271 1182.982,209.871C1185.782,202.271 1185.582,199.271 1180.782,196.271L1175.982,193.371C1174.982,191.571 1176.582,188.171 1178.882,188.071C1184.682,191.271 1188.982,193.471 1194.782,196.171C1200.182,198.671 1203.882,200.171 1211.182,203.071C1212.482,204.571 1211.282,208.371 1209.082,208.671L1204.482,207.271C1198.882,205.571 1196.382,207.571 1192.782,214.171C1191.482,216.571 1188.182,222.57 1184.482,230.67L1171.382,258.97ZM1449.879,1221.261C1452.979,1223.061 1455.579,1224.661 1456.479,1223.161C1458.679,1219.461 1458.179,1216.161 1456.479,1210.561L1450.879,1192.261C1450.379,1190.661 1448.179,1185.161 1447.079,1184.561C1446.279,1184.061 1445.579,1184.261 1444.379,1185.661L1442.779,1187.261C1441.179,1188.161 1438.379,1186.261 1438.479,1184.261C1441.279,1180.261 1444.079,1175.861 1446.679,1171.561C1448.979,1167.661 1452.279,1161.861 1453.979,1158.262C1455.279,1157.162 1458.179,1158.862 1458.679,1160.661C1457.479,1163.461 1456.579,1166.461 1455.879,1169.461C1454.779,1174.461 1456.279,1182.061 1458.879,1192.461L1460.779,1200.161C1461.379,1202.661 1462.179,1203.761 1462.779,1204.061C1463.579,1204.561 1464.779,1204.861 1472.379,1204.161C1484.579,1203.061 1500.979,1202.361 1509.279,1200.261C1512.879,1199.161 1516.079,1196.961 1518.279,1193.961L1519.879,1191.961C1521.579,1191.961 1523.879,1193.361 1524.179,1194.961C1521.179,1199.261 1517.979,1204.261 1513.679,1211.561C1510.179,1217.461 1506.779,1223.161 1503.679,1229.261C1502.279,1230.161 1499.179,1228.461 1499.079,1226.761L1499.879,1224.361C1500.879,1221.361 1499.979,1220.261 1498.579,1220.261C1496.679,1220.161 1489.779,1220.661 1486.279,1220.861L1474.379,1221.761C1469.579,1222.061 1463.679,1221.861 1461.779,1224.961C1460.079,1227.761 1460.879,1228.161 1465.679,1231.061L1474.979,1236.561C1485.179,1242.661 1487.779,1243.561 1491.779,1238.261L1493.979,1235.361C1495.679,1234.661 1498.379,1236.761 1498.379,1238.161C1494.779,1243.561 1491.079,1249.361 1487.579,1255.161C1483.879,1261.361 1480.479,1267.26 1478.079,1272.16C1476.779,1272.86 1473.679,1271.46 1473.479,1269.66L1474.479,1267.36C1477.079,1261.161 1475.279,1259.461 1465.079,1253.361L1432.979,1234.161C1422.78,1228.061 1420.18,1227.161 1416.18,1232.461L1414.28,1234.861C1412.48,1235.661 1409.68,1233.761 1410.08,1231.761C1413.28,1227.161 1416.88,1221.361 1420.58,1215.161C1424.08,1209.261 1427.48,1203.361 1430.179,1198.061C1431.579,1197.161 1434.579,1198.761 1434.779,1200.561L1433.379,1203.961C1430.979,1209.661 1432.779,1211.361 1442.979,1217.461L1449.879,1221.261ZM852.485,126.571C852.585,120.971 852.785,120.771 847.785,120.671L841.385,120.571C835.985,120.471 831.285,120.771 827.685,124.271C825.385,126.671 823.885,129.171 821.685,134.071C820.385,135.471 817.085,134.771 816.085,133.171C818.585,125.171 820.585,117.072 822.085,108.872C822.685,107.672 825.785,107.672 826.685,108.972C827.085,112.072 829.685,112.572 836.185,112.672L896.185,113.672C903.185,113.772 905.285,113.572 906.785,109.872C907.784,109.072 910.984,109.072 911.284,110.372C909.784,118.671 908.984,126.971 908.784,135.371C907.884,136.771 904.385,136.971 903.185,135.671C902.685,131.271 901.685,127.371 898.785,124.871C896.385,122.571 891.585,121.471 884.185,121.271L878.785,121.171C875.285,121.071 874.885,121.271 874.785,126.871L873.885,179.671C873.685,193.371 874.185,196.271 881.885,197.171L887.485,197.871C889.085,199.171 888.685,203.071 887.185,203.871C878.285,203.271 870.385,202.971 862.585,202.871C854.285,202.771 846.485,202.771 836.685,203.071C835.285,202.171 834.885,198.271 836.585,197.071L842.985,196.571C850.685,195.871 851.285,192.971 851.585,179.371L852.485,126.571ZM1236.281,262.77C1234.281,265.67 1234.381,265.97 1238.181,268.47L1244.581,272.77C1254.081,279.07 1255.681,279.97 1260.581,275.67L1264.381,272.27C1266.081,271.97 1268.881,274.07 1268.981,275.87C1266.181,279.67 1262.981,283.77 1260.081,288.07C1256.981,292.67 1254.481,297.27 1251.981,301.37C1250.281,301.97 1247.281,300.17 1246.881,298.47L1248.581,293.67C1250.681,287.57 1249.181,286.37 1239.781,280.07L1233.381,275.77C1229.581,273.27 1229.281,273.27 1227.081,276.57L1219.981,287.27C1216.582,292.47 1213.782,297.27 1214.082,300.27C1214.482,303.07 1217.882,306.57 1228.581,313.67C1242.481,322.97 1247.881,321.37 1257.881,314.87C1259.381,315.17 1261.881,316.77 1262.281,318.77C1255.881,324.97 1248.081,332.169 1244.381,334.469C1233.781,326.869 1224.781,320.57 1215.482,314.37L1197.082,302.07C1190.182,297.47 1183.582,293.27 1175.182,288.17C1174.482,286.67 1176.282,283.17 1178.382,283.07L1184.082,286.07C1190.882,289.67 1193.082,287.57 1200.582,276.17L1224.481,240.37C1232.081,228.97 1233.081,226.47 1227.381,221.171L1225.581,219.471C1224.881,217.471 1227.381,214.471 1229.081,214.571C1233.681,218.171 1240.081,222.67 1246.981,227.27L1274.681,245.77C1282.281,250.87 1289.281,255.27 1291.081,255.97C1290.181,258.37 1285.681,267.07 1280.981,275.17C1279.381,276.07 1276.381,274.27 1275.781,272.47C1276.681,269.47 1277.181,266.27 1277.481,263.17C1277.681,258.37 1273.681,254.67 1265.281,249.07L1256.181,242.97C1251.881,240.07 1251.381,240.47 1245.881,248.77L1236.281,262.77ZM1555.778,1046.063C1561.178,1047.563 1566.478,1048.563 1568.978,1047.463C1570.778,1046.463 1572.678,1043.963 1575.278,1034.463C1578.878,1021.263 1578.778,1018.263 1567.678,1009.663C1567.178,1007.863 1567.978,1005.863 1569.678,1004.963C1575.878,1007.363 1584.378,1012.163 1588.078,1015.363C1585.178,1024.863 1582.078,1035.363 1579.778,1043.863L1575.078,1061.262C1573.178,1068.162 1571.578,1074.862 1570.178,1081.162C1569.178,1082.162 1565.778,1081.662 1565.078,1079.962L1565.678,1076.362C1566.778,1069.762 1564.278,1068.562 1552.778,1065.362L1516.679,1055.563C1505.179,1052.463 1502.779,1052.363 1500.179,1058.562L1498.579,1062.462C1497.179,1063.562 1493.979,1062.362 1493.579,1060.962C1495.779,1054.263 1497.779,1047.763 1499.579,1040.763C1501.379,1034.163 1502.979,1027.563 1504.379,1021.163C1505.379,1020.163 1508.779,1020.663 1509.479,1022.363L1508.879,1025.963C1507.779,1032.563 1510.279,1033.763 1521.779,1036.963L1555.778,1046.063ZM253.791,1214.461C262.991,1208.161 265.691,1206.961 262.691,1200.061L261.991,1198.361C261.591,1196.861 264.991,1194.361 266.491,1195.761C273.391,1204.561 279.591,1212.961 286.59,1223.261C293.99,1234.061 298.69,1243.761 300.69,1251.561C304.79,1267.46 299.09,1282.06 285.29,1291.56C272.391,1300.36 258.491,1300.46 244.991,1293.16C236.791,1288.76 229.291,1280.76 221.991,1270.06C217.491,1263.561 213.391,1255.661 210.691,1251.661C208.691,1248.661 204.691,1243.161 200.691,1237.961C200.591,1236.561 203.191,1234.261 204.891,1234.861L207.191,1237.661C211.591,1242.761 214.091,1241.661 223.891,1234.961L253.791,1214.461ZM237.191,1249.261C228.291,1255.361 223.091,1259.561 230.091,1269.76C240.891,1285.56 258.091,1283.56 273.491,1272.96C290.29,1261.461 292.39,1243.861 283.09,1230.261C277.391,1221.961 276.691,1222.161 270.191,1226.661L237.191,1249.261ZM1493.479,1170.961C1471.079,1161.561 1461.079,1137.162 1471.679,1111.962C1483.179,1084.562 1506.979,1078.362 1526.679,1086.662C1549.578,1096.362 1558.478,1120.062 1548.278,1144.262C1536.878,1171.361 1513.879,1179.561 1493.479,1170.961ZM1542.178,1141.162C1546.978,1129.762 1542.378,1117.062 1522.179,1108.462C1502.979,1100.362 1483.879,1100.662 1477.279,1116.262C1473.279,1125.762 1476.579,1140.162 1498.479,1149.462C1515.379,1156.562 1535.478,1157.262 1542.178,1141.162ZM501.688,1465.759C500.188,1468.459 500.288,1468.659 503.688,1470.559L509.488,1473.758C518.088,1478.558 519.688,1479.258 523.488,1475.158L526.488,1471.959C527.988,1471.559 530.588,1473.158 530.688,1474.758C528.488,1478.258 525.988,1482.058 523.788,1485.958C521.388,1490.158 519.588,1494.358 517.688,1498.058C516.288,1498.758 513.488,1497.358 513.088,1495.958L514.288,1491.658C515.688,1486.258 514.288,1485.258 505.688,1480.458L499.888,1477.258C496.388,1475.358 496.188,1475.358 494.488,1478.358L489.089,1488.058C486.489,1492.758 484.389,1497.158 484.889,1499.758C485.389,1502.158 488.589,1504.958 498.388,1510.358C511.088,1517.458 515.588,1515.658 523.888,1509.358C525.288,1509.458 527.488,1510.758 527.988,1512.458C522.888,1518.258 516.588,1525.058 513.588,1527.258C503.888,1521.458 495.588,1516.658 487.089,1511.858L470.289,1502.458C463.989,1498.958 457.889,1495.758 450.389,1491.958C449.689,1490.758 450.989,1487.558 452.789,1487.358L457.889,1489.558C464.089,1492.158 465.789,1490.258 471.489,1479.858L489.689,1447.159C495.488,1436.759 496.188,1434.459 490.888,1430.259L489.189,1428.859C488.489,1427.259 490.388,1424.359 491.888,1424.359C496.088,1427.159 501.988,1430.659 508.288,1434.159L533.588,1448.259C540.488,1452.159 546.888,1455.459 548.488,1455.959C547.888,1458.059 544.588,1465.959 541.088,1473.258C539.788,1474.158 536.988,1472.858 536.388,1471.259C536.888,1468.559 537.188,1465.859 537.288,1463.059C537.188,1458.859 533.388,1455.959 525.688,1451.659L517.388,1447.059C513.488,1444.859 512.988,1445.259 508.788,1452.759L501.688,1465.759ZM1570.078,966.963C1569.578,970.563 1569.578,970.663 1573.078,972.663L1581.178,977.063C1587.078,980.263 1588.378,979.863 1589.478,976.263L1590.578,972.063C1591.778,970.963 1595.178,971.963 1595.678,973.463C1594.478,979.263 1593.678,983.763 1592.978,988.563C1592.378,992.663 1591.978,996.763 1591.778,1000.963C1590.778,1002.663 1587.078,1002.263 1586.578,1000.763L1586.478,997.463C1586.278,990.863 1584.578,990.063 1572.378,982.563L1534.878,959.663C1530.179,956.863 1527.779,955.763 1525.379,955.763C1524.779,951.164 1520.479,944.164 1518.679,942.864C1518.479,942.264 1518.379,941.664 1518.579,941.064C1518.679,940.364 1519.679,939.764 1521.179,939.264C1522.879,938.764 1526.779,938.064 1543.378,933.864L1588.078,922.664C1595.778,920.664 1597.078,919.564 1598.678,913.264L1599.078,911.464C1600.178,910.164 1604.078,910.864 1604.178,912.764C1603.078,918.064 1602.078,923.964 1601.078,931.064C1600.078,937.864 1599.578,943.164 1599.078,948.964C1598.278,950.664 1594.878,950.564 1593.878,948.764L1593.578,945.664C1593.278,942.364 1592.778,941.164 1589.178,941.964L1576.978,944.464C1573.078,945.164 1572.978,945.564 1572.378,950.364L1570.078,966.963ZM1565.078,953.163C1565.878,947.664 1565.778,947.064 1561.578,948.164C1553.478,950.264 1544.078,952.463 1539.678,953.663C1545.678,957.463 1549.878,959.863 1559.978,965.463C1562.678,966.963 1562.978,967.363 1563.678,962.663L1565.078,953.163ZM340.29,319.47C327.59,304.17 325.59,302.07 317.59,307.57L313.99,309.97C312.19,310.07 309.89,307.27 310.49,305.37C321.19,294.97 333.59,283.87 349.19,270.97C364.39,258.47 376.29,250.77 391.389,245.27C416.389,236.47 443.889,242.17 463.489,265.97C478.089,283.67 484.389,309.17 472.889,335.569C466.289,350.669 454.189,363.969 439.589,375.969C429.889,383.969 421.589,389.269 415.689,394.169C409.589,399.169 402.589,405.269 395.789,411.369C393.989,411.769 391.489,409.069 391.689,406.969L394.789,403.569C401.489,396.369 402.589,394.769 388.589,377.869L340.29,319.47ZM401.889,356.369C414.689,371.869 422.689,379.269 439.589,365.269C467.989,341.769 464.189,311.17 441.889,284.17C415.789,252.57 384.79,252.37 358.09,274.37C351.39,279.87 347.29,285.37 346.99,287.27C346.69,289.17 349.29,292.67 355.49,300.17L401.889,356.369ZM1141.982,1483.958C1133.782,1488.058 1133.482,1488.658 1135.582,1492.958L1147.382,1516.658C1155.882,1533.758 1157.482,1533.358 1165.582,1530.558L1170.782,1528.758C1172.482,1529.358 1173.782,1532.258 1172.782,1533.558C1164.282,1537.358 1156.882,1540.858 1149.782,1544.358C1142.682,1547.858 1135.482,1551.658 1129.582,1555.058C1127.982,1555.058 1126.382,1552.258 1126.982,1550.558L1129.082,1549.158C1136.082,1544.258 1137.282,1543.058 1128.782,1525.958L1098.983,1465.959C1090.483,1448.859 1088.783,1449.159 1080.783,1451.959L1076.983,1453.259C1075.483,1453.059 1073.983,1449.759 1074.983,1448.459C1082.183,1445.259 1089.883,1441.659 1096.983,1438.159C1104.083,1434.659 1111.283,1430.859 1117.382,1427.459C1118.982,1427.459 1120.782,1430.559 1119.982,1431.959L1117.482,1433.759C1110.583,1438.859 1109.183,1439.659 1117.682,1456.759L1127.382,1476.258C1129.582,1480.758 1130.282,1480.858 1138.482,1476.758L1176.182,1457.959C1184.382,1453.859 1184.682,1453.259 1182.482,1448.759L1172.782,1429.259C1164.282,1412.159 1162.582,1412.459 1154.582,1415.259L1150.782,1416.559C1149.282,1416.359 1147.782,1413.059 1148.782,1411.759C1156.382,1408.359 1163.682,1404.959 1170.782,1401.459C1177.882,1397.959 1185.082,1394.159 1191.282,1390.659C1192.882,1390.659 1194.682,1393.759 1193.882,1395.159L1191.182,1397.059C1184.282,1402.159 1182.882,1402.959 1191.382,1420.059L1221.181,1480.058C1229.681,1497.158 1231.381,1496.858 1239.381,1494.058L1243.181,1492.758C1244.881,1493.358 1246.181,1496.258 1245.181,1497.558C1237.981,1500.758 1230.581,1504.258 1223.481,1507.758C1216.082,1511.458 1208.882,1515.258 1201.982,1519.058C1200.382,1519.058 1198.782,1516.258 1199.382,1514.558L1202.682,1512.358C1209.782,1507.658 1210.982,1506.458 1202.482,1489.358L1190.682,1465.659C1188.482,1461.259 1187.882,1461.259 1179.682,1465.359L1141.982,1483.958ZM1219.382,1388.159C1216.082,1383.659 1216.682,1377.859 1221.281,1374.459C1225.381,1371.559 1231.081,1372.359 1234.081,1376.359C1237.581,1381.159 1236.781,1386.659 1232.581,1389.759C1228.181,1393.059 1223.181,1392.959 1219.382,1388.159ZM521.788,233.37C523.488,233.77 525.488,235.97 526.788,238.37C528.088,240.37 528.688,242.67 528.488,245.07L488.189,273.77C486.489,273.37 484.389,270.97 483.289,268.97C481.989,266.87 481.389,264.57 481.489,262.17L521.788,233.37ZM648.787,178.271C649.787,181.671 649.987,181.771 654.387,180.471L661.787,178.271C672.687,175.071 674.487,174.371 674.287,167.971L674.087,162.871C674.887,161.371 678.387,160.571 679.787,161.671C680.887,166.271 681.987,171.371 683.487,176.371C685.087,181.771 686.887,186.571 688.487,191.071C687.887,192.771 684.587,193.971 683.087,193.071L680.487,188.671C677.187,183.171 675.287,183.471 664.387,186.671L656.987,188.871C652.587,190.171 652.487,190.371 653.587,194.171L657.187,206.471C658.887,212.471 660.887,217.671 663.287,219.371C665.687,220.871 670.487,220.471 682.787,216.871C698.886,212.171 700.986,206.971 702.486,195.171C703.686,194.171 706.486,193.371 708.286,194.371C708.986,203.271 709.486,213.871 708.786,218.171C696.187,221.471 685.587,224.37 674.887,227.47L653.587,233.67C645.687,235.97 638.187,238.37 628.887,241.57C627.287,241.17 625.787,237.57 626.987,235.87L632.987,233.47C640.087,230.57 639.887,227.57 636.087,214.471L623.987,173.171C620.187,160.071 618.787,157.671 611.087,158.571L608.587,158.871C606.687,158.171 605.987,154.271 607.087,153.071C612.787,151.871 620.387,149.871 628.287,147.471L660.287,138.071C668.987,135.471 676.887,132.971 678.587,132.071C679.887,134.271 683.587,143.371 686.787,152.071C686.487,153.871 683.187,155.071 681.387,154.271C679.587,151.671 677.587,149.171 675.387,146.971C671.887,143.671 666.487,144.371 656.687,147.271L646.187,150.371C641.187,151.871 641.187,152.471 643.987,161.971L648.787,178.271ZM851.9,259.6C1179.075,259.6 1444.7,525.225 1444.7,852.4C1444.7,1179.575 1179.075,1445.2 851.9,1445.2C524.725,1445.2 259.1,1179.575 259.1,852.4C259.1,525.225 524.725,259.6 851.9,259.6ZM851.9,287.6C540.178,287.6 287.1,540.678 287.1,852.4C287.1,1164.122 540.178,1417.2 851.9,1417.2C1163.622,1417.2 1416.7,1164.122 1416.7,852.4C1416.7,540.678 1163.622,287.6 851.9,287.6ZM1123.5,500.2C1157.7,560.4 1174.9,668.6 1174.9,824.7C1174.9,980.8 1157.8,1088.9 1123.5,1148.8C1082.4,1220.9 1003.5,1257 886.8,1257L529,1257L529,1188.2L536.6,1188.2C553.9,1188.2 568.6,1182.1 580.7,1169.9C592.8,1157.7 598.9,1143 598.9,1125.9L598.6,1131.6L598.6,625.6C598.6,608.5 592.6,593.9 580.5,581.9C568.4,569.9 553.8,563.9 536.7,563.9L536.7,501.9L790.9,385.4L804.6,385.4L804.6,398.8C828.9,394.5 856.3,392.3 886.8,392.3C1003.5,392.3 1082.4,428.3 1123.5,500.2ZM958.6,1210.9C966.9,1202.5 970.9,1192.5 970.7,1180.9L970.7,467.7C970.7,456.5 966.6,446.8 958.3,438.7C950.1,430.5 940.2,426.5 928.8,426.5L845.1,426.5C822.7,426.5 809.2,438 804.6,460.8L804.6,1125.2C804.6,1142.4 810.6,1157 822.6,1169.1C834.6,1181.2 849.2,1187.2 866.3,1187.2L899.7,1187.2L899.7,1223.4L928.8,1223.4C940.4,1223.4 950.3,1219.3 958.6,1210.9ZM1004.1,814.3L1140.6,814.3L1140.6,783.5L1003.6,783.5L1004.1,814.3ZM1137.8,958.5C1138.3,951.7 1138.9,941.3 1139.5,927.4L1003.6,927.4L1003.6,958.5L1137.8,958.5ZM568.4,1222.6L568.4,1222.7L720.6,1222.7C710.7,1216.8 700.7,1209.4 690.4,1200.4L600.4,1200.4C588.6,1209.2 578.1,1214.9 569,1217.8L568.4,1222.6ZM634.4,1157.5L656.1,1158C653.6,1154.2 648.8,1144.6 641.8,1129.2C640.7,1139 638.2,1148.4 634.4,1157.5ZM1140.6,886.3L1140.6,855.4L1004.4,855.4L1004.4,886.3L1140.6,886.3ZM1003.6,598.1L1121.3,598.1C1119.6,591.1 1116.7,580.8 1112.7,567.3L1003.6,567.3L1003.6,598.1ZM652.9,502.2C658.8,492.7 664.7,484.5 670.7,477.6L618.4,501.9L652.9,502.2ZM1127.8,1030.5C1129.7,1023.6 1131.9,1013.3 1134.7,999.6L1003.6,999.6L1003.6,1030.5L1127.8,1030.5ZM1003.6,742.4L1140.1,742.4C1139.7,729.9 1139.4,719.5 1139,711.3L1003.6,711.3L1003.6,742.4ZM1003.6,670L1135.5,670C1134.2,657.3 1133,646.9 1131.8,638.9L1003.6,639.2L1003.6,670ZM1002.1,526.2L1093.5,525.9C1086.7,514.5 1079.1,504.2 1070.7,495.1L1001,495.1C1001.3,505.2 1001.7,515.5 1002.1,526.2ZM624.1,569.9C625.4,565.3 628.7,556.5 634.1,543.3L597.8,543.3C608.8,551.2 617.6,560 624.1,569.9ZM1058.4,1174.4C1067.5,1166.8 1076.9,1156.5 1086.7,1143.5L1000.7,1143.5C999.9,1155.9 999.2,1166.2 998.4,1174.4L1058.4,1174.4ZM1109.8,1102.4C1114,1092.5 1117.7,1082.2 1121,1071.6L1003.6,1071.6L1003.6,1102.4L1109.8,1102.4ZM579.188,165.471C582.488,168.771 587.188,175.771 590.988,183.371C590.588,185.571 587.988,187.171 585.988,186.471C577.488,177.071 568.588,174.771 559.488,178.771C551.588,182.271 548.488,189.271 551.488,195.871C554.888,203.471 563.588,204.271 573.288,204.071C588.488,203.671 604.087,205.571 611.187,221.67C618.987,238.77 606.687,253.77 588.288,261.97C577.288,266.87 567.288,268.17 560.288,266.27C555.088,262.27 550.588,254.47 547.388,246.37C547.688,244.47 550.388,242.57 552.488,243.67C560.988,253.67 573.888,259.77 586.588,254.17C594.188,250.77 597.887,243.97 594.787,236.97C590.888,228.07 581.888,225.77 571.088,225.97C556.788,226.47 541.788,223.77 535.788,210.171C528.788,194.471 538.288,179.571 557.388,171.171C566.488,166.971 573.688,166.371 579.188,165.471ZM204.191,1201.261C200.991,1202.861 187.791,1209.161 185.391,1210.761C184.191,1210.261 183.191,1209.461 182.491,1208.361C182.191,1207.861 181.991,1207.261 181.891,1206.661C183.391,1203.961 185.591,1199.261 191.091,1184.661L205.491,1147.362C208.891,1138.762 211.491,1132.462 212.191,1129.762C208.591,1131.062 203.291,1133.662 198.291,1136.062L187.391,1141.262C180.391,1144.662 175.292,1147.662 173.392,1148.762C167.292,1152.262 165.592,1154.562 167.492,1159.762L168.992,1163.661C168.692,1165.461 165.692,1166.861 164.092,1165.561C161.792,1159.862 160.092,1156.062 157.892,1151.362C155.592,1146.662 153.992,1143.662 150.692,1137.662C150.592,1135.862 153.592,1134.062 155.192,1135.062L157.492,1138.562C160.292,1142.762 163.092,1142.662 169.092,1140.362C171.292,1139.462 176.792,1137.262 183.791,1133.862L205.691,1123.362C214.891,1118.862 216.591,1117.762 217.691,1115.162C218.491,1113.362 217.491,1108.062 216.991,1106.262L216.791,1104.562C217.191,1102.962 220.591,1101.762 221.691,1102.762C224.191,1109.162 226.691,1114.362 228.891,1118.862C230.591,1122.462 231.991,1124.762 234.491,1129.362C231.491,1132.662 228.691,1137.962 223.991,1149.862L215.391,1172.161C213.491,1177.261 209.991,1186.761 209.391,1189.261C210.891,1188.961 212.191,1188.361 215.691,1186.661L224.891,1182.161C231.891,1178.761 236.991,1175.761 238.891,1174.661C244.991,1171.161 246.591,1168.961 244.891,1164.361L243.291,1159.762C243.591,1157.962 246.591,1156.562 248.191,1157.862C250.391,1163.161 251.991,1167.061 254.391,1172.061C256.691,1176.761 258.291,1179.761 261.591,1185.761C261.691,1187.561 258.691,1189.361 257.091,1188.361L254.791,1184.861C251.991,1180.661 249.091,1180.561 243.191,1183.061C240.991,1183.961 235.491,1186.161 228.491,1189.561L204.191,1201.261ZM1243.181,1370.359C1239.881,1365.86 1240.481,1360.06 1245.081,1356.66C1249.181,1353.66 1254.881,1354.46 1257.881,1358.56C1261.381,1363.36 1260.781,1368.759 1256.381,1371.959C1251.981,1375.259 1246.981,1375.159 1243.181,1370.359ZM1241.481,1453.159C1226.981,1433.659 1230.681,1407.559 1252.581,1391.259C1276.381,1373.559 1299.981,1380.159 1312.781,1397.359C1327.58,1417.259 1323.281,1442.259 1302.181,1457.959C1278.681,1475.458 1254.681,1470.859 1241.481,1453.159ZM1298.581,1452.159C1308.581,1444.759 1310.981,1431.459 1297.881,1413.859C1285.381,1397.059 1268.781,1387.759 1255.181,1397.859C1246.981,1403.959 1242.481,1418.159 1256.581,1437.159C1267.681,1451.859 1284.581,1462.559 1298.581,1452.159ZM1002.184,1563.458C998.684,1564.258 998.484,1564.358 997.984,1568.358L996.784,1577.457C995.884,1584.157 996.784,1585.257 1000.584,1584.857L1004.884,1584.357C1006.384,1585.157 1006.584,1588.557 1005.384,1589.557C999.484,1590.557 995.084,1591.357 990.384,1592.457C986.284,1593.357 982.284,1594.457 978.384,1595.757C976.484,1595.457 975.484,1591.857 976.684,1590.757L979.684,1589.457C985.784,1586.957 985.884,1585.057 988.484,1570.958L996.384,1527.758C997.384,1522.358 997.484,1519.758 996.584,1517.558C1000.684,1515.358 1005.684,1508.758 1006.284,1506.658C1006.784,1506.258 1007.284,1505.958 1007.984,1505.858C1008.684,1505.658 1009.584,1506.458 1010.584,1507.658C1011.683,1509.058 1013.783,1512.458 1023.683,1526.458L1050.183,1564.058C1054.883,1570.558 1056.283,1571.358 1062.783,1570.558L1064.583,1570.358C1066.183,1570.958 1066.883,1574.758 1065.283,1575.558C1059.983,1576.458 1054.083,1577.557 1047.083,1579.257C1040.383,1580.757 1035.183,1582.157 1029.683,1583.857C1027.783,1583.757 1026.683,1580.457 1027.983,1578.857L1030.783,1577.457C1033.783,1576.058 1034.683,1575.058 1032.683,1572.058L1025.983,1561.558C1023.883,1558.158 1023.583,1558.258 1018.783,1559.358L1002.184,1563.458ZM1013.283,1553.858C1018.683,1552.558 1019.183,1552.258 1016.683,1548.758C1011.783,1541.958 1006.384,1533.958 1003.684,1530.358C1002.384,1537.358 1001.584,1542.158 999.984,1553.558C999.584,1556.558 999.284,1557.058 1003.884,1555.958L1013.283,1553.858ZM580.688,1501.558C579.388,1504.858 578.288,1507.758 579.888,1508.458C583.888,1510.058 587.088,1508.958 592.288,1506.358L609.387,1497.858C610.887,1497.058 615.887,1494.058 616.387,1492.858C616.687,1492.058 616.387,1491.358 614.887,1490.358L613.087,1489.058C611.887,1487.658 613.287,1484.558 615.387,1484.358C619.787,1486.458 624.587,1488.558 629.287,1490.458C633.487,1492.158 639.687,1494.358 643.587,1495.558C644.887,1496.658 643.687,1499.858 641.987,1500.558C638.987,1499.858 635.887,1499.358 632.787,1499.258C627.687,1498.958 620.387,1501.758 610.587,1505.958L603.387,1509.058C601.087,1510.058 600.087,1511.058 599.787,1511.758C599.487,1512.558 599.287,1513.858 601.287,1521.258C604.387,1533.158 607.687,1549.158 611.087,1557.058C612.687,1560.458 615.387,1563.258 618.787,1564.958L620.987,1566.258C621.287,1567.958 620.287,1570.458 618.687,1570.958C613.987,1568.658 608.487,1566.358 600.687,1563.258C594.288,1560.758 588.088,1558.258 581.588,1556.258C580.488,1555.058 581.688,1551.658 583.388,1551.358L585.888,1551.758C588.988,1552.258 589.988,1551.258 589.788,1549.758C589.588,1547.958 587.988,1541.058 587.188,1537.658L584.388,1526.058C583.288,1521.358 582.588,1515.458 579.188,1514.158C576.188,1512.958 575.888,1513.758 573.788,1518.958L569.788,1528.958C565.388,1539.958 564.888,1542.758 570.888,1545.858L574.088,1547.558C574.988,1549.058 573.388,1552.158 571.988,1552.358C566.088,1549.658 559.788,1546.958 553.488,1544.458C546.788,1541.858 540.388,1539.458 535.188,1537.858C534.288,1536.758 535.188,1533.458 536.988,1532.958L539.488,1533.558C545.988,1535.158 547.488,1533.058 551.788,1521.958L565.588,1487.158C569.988,1476.158 570.488,1473.358 564.488,1470.259L561.788,1468.759C560.688,1467.159 562.088,1464.059 564.188,1464.059C569.288,1466.459 575.588,1469.159 582.188,1471.759C588.588,1474.258 594.987,1476.658 600.587,1478.458C601.687,1479.658 600.587,1482.858 598.787,1483.358L595.287,1482.558C589.288,1481.158 587.888,1483.158 583.488,1494.158L580.688,1501.558ZM187.091,1011.063C187.691,1009.363 191.091,1008.663 192.091,1009.663C193.691,1015.963 195.491,1022.563 197.691,1029.463C199.691,1035.963 201.891,1042.463 204.191,1048.563C203.891,1049.963 200.691,1051.363 199.291,1050.263L197.891,1046.963C195.191,1040.863 192.491,1041.063 181.091,1044.663L156.892,1052.263C141.392,1057.062 132.192,1066.162 136.492,1080.062C141.092,1094.862 153.392,1097.262 169.192,1092.262L183.491,1087.862C190.891,1085.562 196.391,1083.262 198.391,1082.462C204.891,1079.862 206.791,1077.962 205.891,1073.162L204.991,1068.362C205.591,1066.662 208.691,1065.662 210.091,1067.162C211.591,1073.062 212.591,1077.162 214.191,1082.062C215.791,1087.062 216.891,1090.262 219.291,1096.662C219.091,1098.462 215.891,1099.762 214.391,1098.562L212.691,1094.762C210.491,1090.162 207.691,1089.762 201.391,1091.262C199.091,1091.762 193.291,1093.162 185.891,1095.562L170.792,1100.262C159.792,1103.662 150.092,1103.462 143.292,1099.562C136.392,1095.662 130.992,1087.362 128.192,1078.262C125.092,1068.462 123.692,1058.562 126.592,1051.863C129.692,1044.163 136.492,1038.263 149.392,1034.163L175.492,1026.063C186.791,1022.563 189.291,1021.163 187.991,1014.663L187.091,1011.063ZM982.084,169.871C989.384,142.871 1015.583,127.671 1045.883,135.771C1078.883,144.671 1089.683,170.671 1083.283,194.471C1075.883,222.07 1050.283,235.97 1021.083,228.07C988.484,219.371 975.484,194.471 982.084,169.871ZM1023.683,220.771C1037.483,224.47 1051.183,217.271 1057.783,192.871C1063.983,169.671 1060.683,147.971 1041.883,142.871C1030.483,139.771 1014.483,145.771 1007.384,172.171C1001.884,192.571 1004.284,215.571 1023.683,220.771ZM133.592,957.763C124.692,959.163 118.392,960.563 115.792,963.763C113.692,966.263 112.692,969.363 114.992,983.563C118.192,1003.263 119.492,1005.963 139.092,1011.263C140.292,1012.863 140.192,1015.863 138.892,1016.963C131.192,1016.763 117.092,1014.963 111.892,1013.663C111.092,1006.163 108.792,990.863 105.592,970.963L102.592,952.463C101.092,943.364 99.492,934.564 97.992,927.164C98.492,925.664 101.992,924.564 103.092,925.964L104.792,931.164C107.592,939.264 107.992,940.864 126.492,937.864L192.591,927.264C211.091,924.264 211.391,922.664 211.291,914.064L211.191,908.964C211.891,907.564 215.391,906.964 216.391,908.464C217.491,917.364 218.591,925.464 219.891,933.564C221.191,941.364 222.591,949.364 224.191,957.163C223.691,958.863 220.191,959.663 219.091,958.363L217.791,954.563C214.991,946.464 214.391,944.864 195.891,947.864L133.592,957.763ZM907.284,1552.858C907.584,1556.458 907.884,1559.458 909.684,1559.358C913.984,1558.958 916.284,1556.558 919.784,1551.858L931.184,1536.458C932.184,1535.058 935.284,1530.058 935.184,1528.858C935.084,1527.958 934.484,1527.458 932.684,1527.258L930.484,1526.958C928.784,1526.258 928.684,1522.758 930.384,1521.758C935.284,1521.658 940.484,1521.358 945.484,1520.858C949.984,1520.458 956.584,1519.658 960.484,1518.858C962.184,1519.258 962.484,1522.658 961.384,1524.058C958.384,1524.758 955.484,1525.758 952.584,1527.058C947.884,1529.158 942.684,1534.858 935.884,1543.158L930.884,1549.258C929.284,1551.258 928.884,1552.558 928.884,1553.258C928.984,1554.158 929.484,1555.358 934.484,1561.058C942.584,1570.258 952.884,1582.957 959.584,1588.457C962.584,1590.757 966.284,1591.957 970.084,1591.957L972.584,1592.057C973.584,1593.357 973.884,1596.057 972.684,1597.257C967.484,1597.357 961.484,1597.757 953.084,1598.557C946.284,1599.257 939.684,1599.857 932.884,1601.057C931.384,1600.457 930.884,1596.957 932.184,1595.857L934.684,1595.057C937.684,1594.057 938.084,1592.757 937.284,1591.557C936.184,1590.057 931.784,1584.657 929.484,1581.957L921.784,1572.958C918.684,1569.258 915.384,1564.358 911.784,1564.658C908.584,1564.958 908.684,1565.858 909.184,1571.458L910.184,1582.257C911.284,1594.057 912.084,1596.757 918.784,1596.757L922.384,1596.757C923.884,1597.657 923.884,1601.157 922.684,1601.957C916.184,1602.257 909.384,1602.657 902.585,1603.357C895.385,1604.057 888.585,1604.857 883.285,1605.757C881.985,1605.157 881.285,1601.757 882.585,1600.557L885.085,1599.957C891.585,1598.457 891.885,1595.857 890.785,1584.057L887.185,1546.758C886.085,1534.958 885.285,1532.258 878.585,1532.258L875.485,1532.158C873.785,1531.258 873.585,1527.858 875.485,1526.958C881.085,1526.758 887.885,1526.258 895.085,1525.658C901.885,1524.958 908.684,1524.158 914.584,1523.258C916.084,1523.858 916.584,1527.258 915.284,1528.458L911.784,1529.358C905.785,1530.858 905.485,1533.258 906.585,1545.058L907.284,1552.858ZM714.886,1573.058C714.086,1576.558 710.686,1590.757 710.386,1593.657C709.286,1594.257 707.986,1594.557 706.686,1594.457C706.086,1594.357 705.486,1594.157 704.986,1593.857C703.786,1590.957 701.586,1586.357 693.687,1572.858L673.787,1538.158C669.287,1530.058 665.987,1524.058 664.387,1521.858C663.187,1525.458 661.787,1531.258 660.487,1536.658L657.687,1548.358C655.887,1555.858 655.087,1561.758 654.687,1563.958C653.587,1570.958 654.187,1573.658 659.487,1575.458L663.387,1576.758C664.587,1578.157 663.787,1581.257 661.787,1581.757C655.887,1579.957 651.887,1578.857 646.887,1577.657C641.887,1576.458 638.487,1575.858 631.687,1574.558C630.287,1573.458 630.687,1570.058 632.587,1569.358L636.787,1569.758C641.887,1570.258 643.487,1568.058 645.487,1561.858C646.187,1559.658 647.887,1553.958 649.687,1546.358L655.287,1522.758C657.687,1512.758 657.787,1510.758 656.487,1508.258C655.587,1506.558 650.887,1503.958 649.187,1503.158L647.687,1502.258C646.687,1500.958 647.887,1497.458 649.387,1497.258C655.887,1499.358 661.487,1500.658 666.387,1501.858C670.287,1502.758 672.887,1503.258 678.087,1504.058C678.687,1508.458 681.087,1514.058 687.287,1525.158L699.186,1545.958C701.986,1550.658 707.086,1559.358 708.686,1561.358C709.386,1560.058 709.686,1558.658 710.586,1554.758L712.986,1544.758C714.786,1537.258 715.586,1531.358 715.986,1529.158C717.086,1522.158 716.386,1519.658 711.786,1517.958L707.186,1516.358C705.986,1514.958 706.786,1511.858 708.786,1511.358C714.286,1513.058 718.286,1514.158 723.686,1515.458C728.786,1516.658 732.086,1517.258 738.886,1518.558C740.286,1519.658 739.886,1523.058 737.986,1523.758L733.786,1523.358C728.686,1522.858 726.886,1525.058 725.086,1531.258C724.386,1533.458 722.686,1539.158 720.886,1546.758L714.886,1573.058ZM856.285,1527.858C857.585,1531.658 858.685,1538.858 858.885,1546.258C857.785,1547.858 855.085,1548.158 853.785,1546.858C850.685,1536.358 844.485,1531.158 835.885,1530.858C828.285,1530.658 823.385,1535.058 823.185,1541.358C822.985,1548.558 829.585,1552.558 837.185,1555.958C849.285,1561.358 860.785,1568.658 860.385,1583.957C860.085,1600.357 844.785,1607.457 827.385,1606.957C816.985,1606.657 808.585,1603.957 803.785,1599.857C801.186,1594.757 800.586,1586.957 801.086,1579.457C801.986,1578.057 804.885,1577.557 806.085,1579.257C808.985,1590.357 816.885,1599.857 828.885,1600.257C836.085,1600.457 841.585,1596.457 841.785,1589.757C841.985,1581.257 835.885,1576.058 827.285,1572.258C815.885,1567.258 805.085,1559.558 805.485,1546.658C805.885,1531.758 818.885,1523.658 837.085,1524.158C845.785,1524.358 851.685,1526.558 856.285,1527.858ZM460.789,1371.859C465.189,1365.76 465.289,1365.36 461.489,1362.56L453.289,1356.66C439.889,1346.96 434.789,1345.66 420.789,1353.56C419.089,1353.66 416.389,1351.06 416.889,1349.16C425.089,1343.06 433.789,1335.66 438.489,1331.26C439.189,1331.06 439.989,1331.36 440.489,1331.86C441.089,1332.16 441.489,1332.86 441.489,1333.46C439.589,1337.66 441.489,1339.26 451.389,1346.46L510.788,1389.559C517.888,1394.759 520.388,1395.859 524.588,1393.759C525.388,1393.859 526.088,1394.059 526.788,1394.459C527.588,1394.959 528.088,1395.659 528.188,1396.559C522.388,1401.459 512.188,1413.159 509.188,1418.159C507.588,1418.759 504.888,1417.259 504.388,1415.359C510.788,1402.659 509.988,1397.859 494.388,1386.559L486.089,1380.559C482.289,1377.759 481.989,1377.959 477.489,1384.159L431.789,1447.059C420.589,1462.459 421.589,1463.859 427.889,1469.559L432.689,1473.958C432.989,1475.758 430.889,1478.258 429.289,1477.958C421.089,1471.559 414.589,1466.659 408.189,1461.959C401.789,1457.259 394.789,1452.459 385.29,1445.959C384.59,1444.559 386.489,1441.559 388.089,1441.559L394.689,1445.259C402.189,1449.359 403.589,1450.159 414.789,1434.759L460.789,1371.859ZM951.984,186.871C950.184,200.371 950.384,203.571 957.884,205.371L961.884,206.371C963.384,207.771 962.384,211.671 960.884,212.271C953.584,210.871 945.784,209.671 937.984,208.571C929.784,207.471 921.984,206.671 914.484,206.071C913.184,205.071 913.284,201.071 915.084,200.071L919.284,200.171C926.984,200.371 927.984,197.371 929.784,183.771L935.484,141.071C937.284,127.571 937.084,124.371 929.584,122.571L925.584,121.571C924.084,120.171 925.084,116.272 926.584,115.672C933.884,117.072 941.684,118.271 949.884,119.371C957.684,120.371 965.484,121.271 972.984,121.771C974.284,122.771 974.184,126.771 972.384,127.771L968.184,127.671C960.484,127.471 959.484,130.471 957.684,144.071L951.984,186.871ZM771.286,1580.357C769.886,1592.157 770.086,1594.857 776.586,1596.457L780.086,1597.257C781.386,1598.457 780.586,1601.857 779.286,1602.457C772.886,1601.357 766.086,1600.357 759.386,1599.457C752.286,1598.557 745.386,1597.957 738.986,1597.557C737.786,1596.657 737.886,1593.257 739.486,1592.357L743.086,1592.457C749.786,1592.557 750.686,1589.957 752.086,1578.157L756.586,1540.958C757.986,1529.158 757.786,1526.458 751.286,1524.858L747.786,1524.058C746.486,1522.858 747.286,1519.458 748.586,1518.858C754.986,1519.958 761.786,1520.958 768.886,1521.858C775.686,1522.658 782.486,1523.358 788.986,1523.758C790.186,1524.658 790.086,1528.058 788.486,1528.958L784.886,1528.858C778.186,1528.758 777.286,1531.358 775.886,1543.158L771.286,1580.357Z"/>
            </g>
        </g>
    </g>
</svg>
