<?xml version="1.0" encoding="UTF-8" standalone="no"?>
<!DOCTYPE svg PUBLIC "-//W3C//DTD SVG 1.1//EN" "http://www.w3.org/Graphics/SVG/1.1/DTD/svg11.dtd">
<svg width="827px" height="827px" version="1.1" xmlns="http://www.w3.org/2000/svg" xmlns:xlink="http://www.w3.org/1999/xlink" xml:space="preserve" xmlns:serif="http://www.serif.com/" style="fill-rule:evenodd;clip-rule:evenodd;stroke-linejoin:round;stroke-miterlimit:2;">
    <g transform="matrix(1,0,0,1,-118.110236,-118.110236)">
        <g transform="matrix(2.657765,0,0,3.786588,-3191.903145,-2100.951278)">
            <g id="Sektionen" transform="matrix(0.186053,0,0,0.130589,1242.455406,583.893877)">
                <g>
                    <g transform="matrix(0.99999,0,-0,0.99999,-0.0068,-0.027375)">
                        <circle cx="851.9" cy="852.4" r="822" style="fill:rgb(242,128,161);"/>
                    </g>
                    <g transform="matrix(0.99999,0,-0,0.99999,-0.0068,-0.027375)">
                        <path d="M851.9,16.4C1313.301,16.4 1687.9,390.999 1687.9,852.4C1687.9,1313.801 1313.301,1688.4 851.9,1688.4C390.499,1688.4 15.9,1313.801 15.9,852.4C15.9,390.999 390.499,16.4 851.9,16.4ZM851.9,44.4C405.953,44.4 43.9,406.453 43.9,852.4C43.9,1298.347 405.953,1660.4 851.9,1660.4C1297.847,1660.4 1659.9,1298.347 1659.9,852.4C1659.9,406.453 1297.847,44.4 851.9,44.4Z"/>
                    </g>
                    <circle cx="851.9" cy="852.4" r="578.8" style="fill:white;"/>
                    <path d="M851.9,259.6C1179.075,259.6 1444.7,525.225 1444.7,852.4C1444.7,1179.575 1179.075,1445.2 851.9,1445.2C524.725,1445.2 259.1,1179.575 259.1,852.4C259.1,525.225 524.725,259.6 851.9,259.6ZM851.9,287.6C540.178,287.6 287.1,540.678 287.1,852.4C287.1,1164.122 540.178,1417.2 851.9,1417.2C1163.622,1417.2 1416.7,1164.122 1416.7,852.4C1416.7,540.678 1163.622,287.6 851.9,287.6Z"/>
                </g>
                <g>
                    <path d="M1123.5,500.2C1082.4,428.3 1003.5,392.3 886.8,392.3C856.3,392.3 828.9,394.5 804.6,398.8L804.6,385.4L790.9,385.4L536.7,501.9L536.7,563.9C553.8,563.9 568.4,569.9 580.5,581.9C592.6,593.9 598.6,608.5 598.6,625.6L598.6,1131.6L598.9,1125.9C598.9,1143 592.8,1157.7 580.7,1169.9C568.6,1182.1 553.9,1188.2 536.6,1188.2L529,1188.2L529,1257L886.8,1257C1003.5,1257 1082.4,1220.9 1123.5,1148.8C1157.8,1088.9 1174.9,980.8 1174.9,824.7C1174.9,668.6 1157.7,560.4 1123.5,500.2ZM958.6,1210.9C950.3,1219.3 940.4,1223.4 928.8,1223.4L899.7,1223.4L899.7,1187.2L866.3,1187.2C849.2,1187.2 834.6,1181.2 822.6,1169.1C810.6,1157 804.6,1142.4 804.6,1125.2L804.6,460.8C809.2,438 822.7,426.5 845.1,426.5L928.8,426.5C940.2,426.5 950.1,430.5 958.3,438.7C966.6,446.8 970.7,456.5 970.7,467.7L970.7,1180.9C970.9,1192.5 966.9,1202.5 958.6,1210.9Z" style="fill-rule:nonzero;"/>
                    <path d="M1002.1,526.2C1001.7,515.5 1001.3,505.2 1001,495.1L1070.7,495.1C1079.1,504.2 1086.7,514.5 1093.5,525.9L1002.1,526.2ZM1003.6,598.1L1003.6,567.3L1112.7,567.3C1116.7,580.8 1119.6,591.1 1121.3,598.1L1003.6,598.1ZM1003.6,670L1003.6,639.2L1131.8,638.9C1133,646.9 1134.2,657.3 1135.5,670L1003.6,670ZM1003.6,742.4L1003.6,711.3L1139,711.3C1139.4,719.5 1139.7,729.9 1140.1,742.4L1003.6,742.4ZM1004.1,814.3L1003.6,783.5L1140.6,783.5L1140.6,814.3L1004.1,814.3ZM1140.6,886.3L1004.4,886.3L1004.4,855.4L1140.6,855.4L1140.6,886.3ZM652.9,502.2L618.4,501.9L670.7,477.6C664.7,484.5 658.8,492.7 652.9,502.2ZM1137.8,958.5L1003.6,958.5L1003.6,927.4L1139.5,927.4C1138.9,941.3 1138.3,951.7 1137.8,958.5ZM624.1,569.9C617.6,560 608.8,551.2 597.8,543.3L634.1,543.3C628.7,556.5 625.4,565.3 624.1,569.9ZM1127.8,1030.5L1003.6,1030.5L1003.6,999.6L1134.7,999.6C1131.9,1013.3 1129.7,1023.6 1127.8,1030.5ZM1109.8,1102.4L1003.6,1102.4L1003.6,1071.6L1121,1071.6C1117.7,1082.2 1114,1092.5 1109.8,1102.4ZM1058.4,1174.4L998.4,1174.4C999.2,1166.2 999.9,1155.9 1000.7,1143.5L1086.7,1143.5C1076.9,1156.5 1067.5,1166.8 1058.4,1174.4ZM634.4,1157.5C638.2,1148.4 640.7,1139 641.8,1129.2C648.8,1144.6 653.6,1154.2 656.1,1158L634.4,1157.5ZM568.4,1222.6L569,1217.8C578.1,1214.9 588.6,1209.2 600.4,1200.4L690.4,1200.4C700.7,1209.4 710.7,1216.8 720.6,1222.7L568.4,1222.7L568.4,1222.6Z" style="fill:rgb(242,128,161);"/>
                </g>
                <g transform="matrix(0.99999,0,0,0.99999,15.893047,16.372467)">
                    <path d="M324.4,303.1C311.7,287.8 309.7,285.7 301.7,291.2L298.1,293.6C296.3,293.7 294,290.9 294.6,289C305.3,278.6 317.7,267.5 333.3,254.6C348.5,242.1 360.4,234.4 375.5,228.9C400.5,220.1 428,225.8 447.6,249.6C462.2,267.3 468.5,292.8 457,319.2C450.4,334.3 438.3,347.6 423.7,359.6C414,367.6 405.7,372.9 399.8,377.8C393.7,382.8 386.7,388.9 379.9,395C378.1,395.4 375.6,392.7 375.8,390.6L378.9,387.2C385.6,380 386.7,378.4 372.7,361.5L324.4,303.1ZM386,340C398.8,355.5 406.8,362.9 423.7,348.9C452.1,325.4 448.3,294.8 426,267.8C399.9,236.2 368.9,236 342.2,258C335.5,263.5 331.4,269 331.1,270.9C330.8,272.8 333.4,276.3 339.6,283.8L386,340ZM505.9,217C507.6,217.4 509.6,219.6 510.9,222C512.2,224 512.8,226.3 512.6,228.7L472.3,257.4C470.6,257 468.5,254.6 467.4,252.6C466.1,250.5 465.5,248.2 465.6,245.8L505.9,217ZM563.3,149.1C566.6,152.4 571.3,159.4 575.1,167C574.7,169.2 572.1,170.8 570.1,170.1C561.6,160.7 552.7,158.4 543.6,162.4C535.7,165.9 532.6,172.9 535.6,179.5C539,187.1 547.7,187.9 557.4,187.7C572.6,187.3 588.2,189.2 595.3,205.3C603.1,222.4 590.8,237.4 572.4,245.6C561.4,250.5 551.4,251.8 544.4,249.9C539.2,245.9 534.7,238.1 531.5,230C531.8,228.1 534.5,226.2 536.6,227.3C545.1,237.3 558,243.4 570.7,237.8C578.3,234.4 582,227.6 578.9,220.6C575,211.7 566,209.4 555.2,209.6C540.9,210.1 525.9,207.4 519.9,193.8C512.9,178.1 522.4,163.2 541.5,154.8C550.6,150.6 557.8,150 563.3,149.1ZM632.9,161.9C633.9,165.3 634.1,165.4 638.5,164.1L645.9,161.9C656.8,158.7 658.6,158 658.4,151.6L658.2,146.5C659,145 662.5,144.2 663.9,145.3C665,149.9 666.1,155 667.6,160C669.2,165.4 671,170.2 672.6,174.7C672,176.4 668.7,177.6 667.2,176.7L664.6,172.3C661.3,166.8 659.4,167.1 648.5,170.3L641.1,172.5C636.7,173.8 636.6,174 637.7,177.8L641.3,190.1C643,196.1 645,201.3 647.4,203C649.8,204.5 654.6,204.1 666.9,200.5C683,195.8 685.1,190.6 686.6,178.8C687.8,177.8 690.6,177 692.4,178C693.1,186.9 693.6,197.5 692.9,201.8C680.3,205.1 669.7,208 659,211.1L637.7,217.3C629.8,219.6 622.3,222 613,225.2C611.4,224.8 609.9,221.2 611.1,219.5L617.1,217.1C624.2,214.2 624,211.2 620.2,198.1L608.1,156.8C604.3,143.7 602.9,141.3 595.2,142.2L592.7,142.5C590.8,141.8 590.1,137.9 591.2,136.7C596.9,135.5 604.5,133.5 612.4,131.1L644.4,121.7C653.1,119.1 661,116.6 662.7,115.7C664,117.9 667.7,127 670.9,135.7C670.6,137.5 667.3,138.7 665.5,137.9C663.7,135.3 661.7,132.8 659.5,130.6C656,127.3 650.6,128 640.8,130.9L630.3,134C625.3,135.5 625.3,136.1 628.1,145.6L632.9,161.9ZM728.7,137.1C729.3,141.2 729.7,144.7 731.8,144.4C736.7,143.7 739.3,140.9 743.1,135.4L755.5,117.2C756.5,115.6 759.9,109.7 759.7,108.3C759.6,107.3 758.9,106.7 756.8,106.6L754.3,106.3C752.3,105.5 752,101.6 753.9,100.3C759.5,100 765.5,99.4 771.2,98.6C776.3,97.9 783.9,96.7 788.3,95.7C790.2,96.1 790.8,100 789.5,101.6C786.1,102.6 782.8,103.8 779.6,105.4C774.3,108 768.5,114.8 761.1,124.6L755.6,131.8C753.8,134.1 753.4,135.6 753.5,136.5C753.6,137.5 754.2,138.9 760.3,145.2C770,155.4 782.4,169.6 790.3,175.6C794.2,178.4 798.1,179.1 802.5,179.2L805.4,179.2C806.6,180.7 807.1,183.8 805.8,185.2C799.8,185.6 793,186.3 783.4,187.6C775.6,188.7 768,189.7 760.3,191.3C758.5,190.7 757.8,186.6 759.3,185.4L762.1,184.4C765.5,183.1 765.9,181.6 764.9,180.3C763.6,178.6 758.2,172.6 755.5,169.7L746.2,159.7C742.5,155.6 738.4,150.1 734.3,150.6C730.6,151.1 730.7,152.1 731.6,158.5L733.3,170.8C735.1,184.3 736.2,187.3 743.9,187.1L748.1,187C749.9,188 750,192 748.7,193C741.3,193.6 733.4,194.4 725.6,195.5C717.4,196.6 709.6,197.9 703.5,199.1C702,198.5 701,194.6 702.5,193.2L705.3,192.4C712.8,190.4 713,187.4 711.2,173.9L705.5,131.2C703.7,117.7 702.6,114.7 694.9,114.9L691.4,115C689.4,114 689.1,110.1 691.2,109C697.6,108.6 705.4,107.7 713.6,106.6C721.4,105.5 729.2,104.3 735.9,103C737.7,103.6 738.4,107.5 736.9,108.9L732.9,110.1C726.1,112.1 725.8,114.8 727.6,128.4L728.7,137.1ZM836.6,110.2C836.7,104.6 836.9,104.4 831.9,104.3L825.5,104.2C820.1,104.1 815.4,104.4 811.8,107.9C809.5,110.3 808,112.8 805.8,117.7C804.5,119.1 801.2,118.4 800.2,116.8C802.7,108.8 804.7,100.7 806.2,92.5C806.8,91.3 809.9,91.3 810.8,92.6C811.2,95.7 813.8,96.2 820.3,96.3L880.3,97.3C887.3,97.4 889.4,97.2 890.9,93.5C891.9,92.7 895.1,92.7 895.4,94C893.9,102.3 893.1,110.6 892.9,119C892,120.4 888.5,120.6 887.3,119.3C886.8,114.9 885.8,111 882.9,108.5C880.5,106.2 875.7,105.1 868.3,104.9L862.9,104.8C859.4,104.7 859,104.9 858.9,110.5L858,163.3C857.8,177 858.3,179.9 866,180.8L871.6,181.5C873.2,182.8 872.8,186.7 871.3,187.5C862.4,186.9 854.5,186.6 846.7,186.5C838.4,186.4 830.6,186.4 820.8,186.7C819.4,185.8 819,181.9 820.7,180.7L827.1,180.2C834.8,179.5 835.4,176.6 835.7,163L836.6,110.2ZM936.1,170.5C934.3,184 934.5,187.2 942,189L946,190C947.5,191.4 946.5,195.3 945,195.9C937.7,194.5 929.9,193.3 922.1,192.2C913.9,191.1 906.1,190.3 898.6,189.7C897.3,188.7 897.4,184.7 899.2,183.7L903.4,183.8C911.1,184 912.1,181 913.9,167.4L919.6,124.7C921.4,111.2 921.2,108 913.7,106.2L909.7,105.2C908.2,103.8 909.2,99.9 910.7,99.3C918,100.7 925.8,101.9 934,103C941.8,104 949.6,104.9 957.1,105.4C958.4,106.4 958.3,110.4 956.5,111.4L952.3,111.3C944.6,111.1 943.6,114.1 941.8,127.7L936.1,170.5ZM966.2,153.5C973.5,126.5 999.7,111.3 1030,119.4C1063,128.3 1073.8,154.3 1067.4,178.1C1060,205.7 1034.4,219.6 1005.2,211.7C972.6,203 959.6,178.1 966.2,153.5ZM1007.8,204.4C1021.6,208.1 1035.3,200.9 1041.9,176.5C1048.1,153.3 1044.8,131.6 1026,126.5C1014.6,123.4 998.6,129.4 991.5,155.8C986,176.2 988.4,199.2 1007.8,204.4ZM1155.5,242.6C1153.8,246.4 1146.7,261.6 1145.7,264.7C1144.3,265.2 1142.8,265.2 1141.3,264.7C1140.7,264.4 1140.1,264.1 1139.5,263.6C1138.8,260.1 1137.4,254.4 1131.6,237.3L1117.2,193.6C1113.9,183.4 1111.7,176 1110.3,173.1C1108.1,176.9 1105.2,183.1 1102.5,188.9L1096.7,201.5C1093,209.6 1090.6,216 1089.8,218.4C1087,226 1087.1,229.2 1092.6,232.5L1096.7,234.9C1097.7,236.7 1096.1,240.1 1093.8,240.2C1087.6,236.9 1083.4,234.7 1077.9,232.2C1072.5,229.7 1068.8,228.2 1061.5,225.3C1060.2,223.8 1061.4,220 1063.6,219.7L1068.2,221.1C1073.8,222.8 1076.2,220.7 1079.9,214.2C1081.2,211.8 1084.5,205.8 1088.2,197.7L1100,172.3C1105,161.6 1105.5,159.4 1104.7,156.2C1104.1,154.1 1099.3,150.1 1097.6,148.8L1096.2,147.5C1095.4,145.8 1097.5,142.2 1099.3,142.3C1106.2,146.2 1112.2,149 1117.4,151.4C1121.5,153.3 1124.4,154.4 1130.1,156.6C1129.8,161.7 1131.2,168.5 1135.7,182.5L1144.3,208.6C1146.3,214.6 1150.2,225.5 1151.5,228.1C1152.6,226.8 1153.3,225.3 1155.2,221.1L1160.2,210.4C1163.9,202.3 1166.3,195.9 1167.1,193.5C1169.9,185.9 1169.7,182.9 1164.9,179.9L1160.1,177C1159.1,175.2 1160.7,171.8 1163,171.7C1168.8,174.9 1173.1,177.1 1178.9,179.8C1184.3,182.3 1188,183.8 1195.3,186.7C1196.6,188.2 1195.4,192 1193.2,192.3L1188.6,190.9C1183,189.2 1180.5,191.2 1176.9,197.8C1175.6,200.2 1172.3,206.2 1168.6,214.3L1155.5,242.6ZM1220.4,246.4C1218.4,249.3 1218.5,249.6 1222.3,252.1L1228.7,256.4C1238.2,262.7 1239.8,263.6 1244.7,259.3L1248.5,255.9C1250.2,255.6 1253,257.7 1253.1,259.5C1250.3,263.3 1247.1,267.4 1244.2,271.7C1241.1,276.3 1238.6,280.9 1236.1,285C1234.4,285.6 1231.4,283.8 1231,282.1L1232.7,277.3C1234.8,271.2 1233.3,270 1223.9,263.7L1217.5,259.4C1213.7,256.9 1213.4,256.9 1211.2,260.2L1204.1,270.9C1200.7,276.1 1197.9,280.9 1198.2,283.9C1198.6,286.7 1202,290.2 1212.7,297.3C1226.6,306.6 1232,305 1242,298.5C1243.5,298.8 1246,300.4 1246.4,302.4C1240,308.6 1232.2,315.8 1228.5,318.1C1217.9,310.5 1208.9,304.2 1199.6,298L1181.2,285.7C1174.3,281.1 1167.7,276.9 1159.3,271.8C1158.6,270.3 1160.4,266.8 1162.5,266.7L1168.2,269.7C1175,273.3 1177.2,271.2 1184.7,259.8L1208.6,224C1216.2,212.6 1217.2,210.1 1211.5,204.8L1209.7,203.1C1209,201.1 1211.5,198.1 1213.2,198.2C1217.8,201.8 1224.2,206.3 1231.1,210.9L1258.8,229.4C1266.4,234.5 1273.4,238.9 1275.2,239.6C1274.3,242 1269.8,250.7 1265.1,258.8C1263.5,259.7 1260.5,257.9 1259.9,256.1C1260.8,253.1 1261.3,249.9 1261.6,246.8C1261.8,242 1257.8,238.3 1249.4,232.7L1240.3,226.6C1236,223.7 1235.5,224.1 1230,232.4L1220.4,246.4ZM1319.8,367.5C1317,370.5 1305.7,382.9 1303.7,385.6C1302.2,385.6 1300.8,385.2 1299.5,384.3C1299,383.8 1298.5,383.3 1298.1,382.7C1298.5,379.2 1298.9,373.3 1298.5,355.3L1298,309.3C1298,298.6 1298.1,290.8 1297.7,287.6C1294.5,290.5 1289.8,295.6 1285.5,300.3L1276.1,310.5C1270.1,317.1 1265.9,322.5 1264.4,324.5C1259.4,330.9 1258.5,334 1262.8,338.8L1266,342.3C1266.4,344.3 1263.9,347.1 1261.6,346.4C1256.7,341.3 1253.3,338 1248.9,333.9C1244.5,329.8 1241.4,327.3 1235.4,322.3C1234.6,320.4 1236.9,317.3 1239.2,317.6L1243.1,320.4C1247.9,323.7 1250.8,322.4 1256.3,317.3C1258.3,315.5 1263.2,310.7 1269.2,304.1L1288.1,283.5C1296.1,274.8 1297.3,272.9 1297.5,269.6C1297.6,267.4 1294.3,262.1 1293,260.4L1292,258.7C1291.8,256.8 1294.9,254 1296.5,254.7C1301.9,260.5 1306.8,265 1311,268.9C1314.4,272 1316.8,273.9 1321.5,277.7C1319.7,282.5 1318.9,289.4 1319,304L1319.3,331.5C1319.4,337.8 1319.8,349.4 1320.2,352.3C1321.6,351.4 1322.7,350.1 1325.8,346.8L1333.8,338.1C1339.8,331.5 1344,326.1 1345.5,324.1C1350.5,317.7 1351.3,314.8 1347.6,310.5L1343.9,306.3C1343.5,304.3 1346,301.5 1348.3,302.2C1352.9,307 1356.3,310.4 1361,314.7C1365.4,318.8 1368.5,321.3 1374.5,326.3C1375.3,328.2 1373,331.3 1370.7,331L1366.8,328.2C1362,324.9 1358.9,326 1353.6,331.3C1351.6,333.1 1346.7,337.9 1340.7,344.5L1319.8,367.5ZM117.7,941.4C108.8,942.8 102.5,944.2 99.9,947.4C97.8,949.9 96.8,953 99.1,967.2C102.3,986.9 103.6,989.6 123.2,994.9C124.4,996.5 124.3,999.5 123,1000.6C115.3,1000.4 101.2,998.6 96,997.3C95.2,989.8 92.9,974.5 89.7,954.6L86.7,936.1C85.2,927 83.6,918.2 82.1,910.8C82.6,909.3 86.1,908.2 87.2,909.6L88.9,914.8C91.7,922.9 92.1,924.5 110.6,921.5L176.7,910.9C195.2,907.9 195.5,906.3 195.4,897.7L195.3,892.6C196,891.2 199.5,890.6 200.5,892.1C201.6,901 202.7,909.1 204,917.2C205.3,925 206.7,933 208.3,940.8C207.8,942.5 204.3,943.3 203.2,942L201.9,938.2C199.1,930.1 198.5,928.5 180,931.5L117.7,941.4ZM171.2,994.7C171.8,993 175.2,992.3 176.2,993.3C177.8,999.6 179.6,1006.2 181.8,1013.1C183.8,1019.6 186,1026.1 188.3,1032.2C188,1033.6 184.8,1035 183.4,1033.9L182,1030.6C179.3,1024.5 176.6,1024.7 165.2,1028.3L141,1035.9C125.5,1040.7 116.3,1049.8 120.6,1063.7C125.2,1078.5 137.5,1080.9 153.3,1075.9L167.6,1071.5C175,1069.2 180.5,1066.9 182.5,1066.1C189,1063.5 190.9,1061.6 190,1056.8L189.1,1052C189.7,1050.3 192.8,1049.3 194.2,1050.8C195.7,1056.7 196.7,1060.8 198.3,1065.7C199.9,1070.7 201,1073.9 203.4,1080.3C203.2,1082.1 200,1083.4 198.5,1082.2L196.8,1078.4C194.6,1073.8 191.8,1073.4 185.5,1074.9C183.2,1075.4 177.4,1076.8 170,1079.2L154.9,1083.9C143.9,1087.3 134.2,1087.1 127.4,1083.2C120.5,1079.3 115.1,1071 112.3,1061.9C109.2,1052.1 107.8,1042.2 110.7,1035.5C113.8,1027.8 120.6,1021.9 133.5,1017.8L159.6,1009.7C170.9,1006.2 173.4,1004.8 172.1,998.3L171.2,994.7ZM188.3,1184.9C185.1,1186.5 171.9,1192.8 169.5,1194.4C168.3,1193.9 167.3,1193.1 166.6,1192C166.3,1191.5 166.1,1190.9 166,1190.3C167.5,1187.6 169.7,1182.9 175.2,1168.3L189.6,1131C193,1122.4 195.6,1116.1 196.3,1113.4C192.7,1114.7 187.4,1117.3 182.4,1119.7L171.5,1124.9C164.5,1128.3 159.4,1131.3 157.5,1132.4C151.4,1135.9 149.7,1138.2 151.6,1143.4L153.1,1147.3C152.8,1149.1 149.8,1150.5 148.2,1149.2C145.9,1143.5 144.2,1139.7 142,1135C139.7,1130.3 138.1,1127.3 134.8,1121.3C134.7,1119.5 137.7,1117.7 139.3,1118.7L141.6,1122.2C144.4,1126.4 147.2,1126.3 153.2,1124C155.4,1123.1 160.9,1120.9 167.9,1117.5L189.8,1107C199,1102.5 200.7,1101.4 201.8,1098.8C202.6,1097 201.6,1091.7 201.1,1089.9L200.9,1088.2C201.3,1086.6 204.7,1085.4 205.8,1086.4C208.3,1092.8 210.8,1098 213,1102.5C214.7,1106.1 216.1,1108.4 218.6,1113C215.6,1116.3 212.8,1121.6 208.1,1133.5L199.5,1155.8C197.6,1160.9 194.1,1170.4 193.5,1172.9C195,1172.6 196.3,1172 199.8,1170.3L209,1165.8C216,1162.4 221.1,1159.4 223,1158.3C229.1,1154.8 230.7,1152.6 229,1148L227.4,1143.4C227.7,1141.6 230.7,1140.2 232.3,1141.5C234.5,1146.8 236.1,1150.7 238.5,1155.7C240.8,1160.4 242.4,1163.4 245.7,1169.4C245.8,1171.2 242.8,1173 241.2,1172L238.9,1168.5C236.1,1164.3 233.2,1164.2 227.3,1166.7C225.1,1167.6 219.6,1169.8 212.6,1173.2L188.3,1184.9ZM237.9,1198.1C247.1,1191.8 249.8,1190.6 246.8,1183.7L246.1,1182C245.7,1180.5 249.1,1178 250.6,1179.4C257.5,1188.2 263.7,1196.6 270.7,1206.9C278.1,1217.7 282.8,1227.4 284.8,1235.2C288.9,1251.1 283.2,1265.7 269.4,1275.2C256.5,1284 242.6,1284.1 229.1,1276.8C220.9,1272.4 213.4,1264.4 206.1,1253.7C201.6,1247.2 197.5,1239.3 194.8,1235.3C192.8,1232.3 188.8,1226.8 184.8,1221.6C184.7,1220.2 187.3,1217.9 189,1218.5L191.3,1221.3C195.7,1226.4 198.2,1225.3 208,1218.6L237.9,1198.1ZM221.3,1232.9C212.4,1239 207.2,1243.2 214.2,1253.4C225,1269.2 242.2,1267.2 257.6,1256.6C274.4,1245.1 276.5,1227.5 267.2,1213.9C261.5,1205.6 260.8,1205.8 254.3,1210.3L221.3,1232.9ZM345.7,1303.1C343.8,1306.7 339.3,1312.4 334.1,1317.6C332.2,1317.9 330.1,1316.1 330.2,1314.3C335.7,1304.8 335.3,1296.7 329.5,1290.3C324.5,1284.7 317.9,1284 313.2,1288.2C307.8,1293 309.5,1300.5 312.2,1308.4C316.6,1320.9 319.2,1334.3 307.8,1344.5C295.7,1355.6 280,1349.3 268.4,1336.3C261.4,1328.5 257.7,1320.5 257.4,1314.3C259.4,1308.9 264.5,1303.1 270.4,1298.3C272.1,1298 274.4,1299.8 274,1301.8C268,1311.5 266.4,1323.8 274.4,1332.8C279.2,1338.2 285.9,1339.4 290.8,1335C297.1,1329.4 296.7,1321.3 293.6,1312.5C289.4,1300.8 287.6,1287.7 297.3,1279C308.4,1269 323.3,1272.9 335.4,1286.5C341,1293 343.5,1298.8 345.7,1303.1ZM444.9,1355.5C449.3,1349.4 449.4,1349 445.6,1346.2L437.4,1340.3C424,1330.6 418.9,1329.3 404.9,1337.2C403.2,1337.3 400.5,1334.7 401,1332.8C409.2,1326.7 417.9,1319.3 422.6,1314.9C423.3,1314.7 424.1,1315 424.6,1315.5C425.2,1315.8 425.6,1316.5 425.6,1317.1C423.7,1321.3 425.6,1322.9 435.5,1330.1L494.9,1373.2C502,1378.4 504.5,1379.5 508.7,1377.4C509.5,1377.5 510.2,1377.7 510.9,1378.1C511.7,1378.6 512.2,1379.3 512.3,1380.2C506.5,1385.1 496.3,1396.8 493.3,1401.8C491.7,1402.4 489,1400.9 488.5,1399C494.9,1386.3 494.1,1381.5 478.5,1370.2L470.2,1364.2C466.4,1361.4 466.1,1361.6 461.6,1367.8L415.9,1430.7C404.7,1446.1 405.7,1447.5 412,1453.2L416.8,1457.6C417.1,1459.4 415,1461.9 413.4,1461.6C405.2,1455.2 398.7,1450.3 392.3,1445.6C385.9,1440.9 378.9,1436.1 369.4,1429.6C368.7,1428.2 370.6,1425.2 372.2,1425.2L378.8,1428.9C386.3,1433 387.7,1433.8 398.9,1418.4L444.9,1355.5ZM485.8,1449.4C484.3,1452.1 484.4,1452.3 487.8,1454.2L493.6,1457.4C502.2,1462.2 503.8,1462.9 507.6,1458.8L510.6,1455.6C512.1,1455.2 514.7,1456.8 514.8,1458.4C512.6,1461.9 510.1,1465.7 507.9,1469.6C505.5,1473.8 503.7,1478 501.8,1481.7C500.4,1482.4 497.6,1481 497.2,1479.6L498.4,1475.3C499.8,1469.9 498.4,1468.9 489.8,1464.1L484,1460.9C480.5,1459 480.3,1459 478.6,1462L473.2,1471.7C470.6,1476.4 468.5,1480.8 469,1483.4C469.5,1485.8 472.7,1488.6 482.5,1494C495.2,1501.1 499.7,1499.3 508,1493C509.4,1493.1 511.6,1494.4 512.1,1496.1C507,1501.9 500.7,1508.7 497.7,1510.9C488,1505.1 479.7,1500.3 471.2,1495.5L454.4,1486.1C448.1,1482.6 442,1479.4 434.5,1475.6C433.8,1474.4 435.1,1471.2 436.9,1471L442,1473.2C448.2,1475.8 449.9,1473.9 455.6,1463.5L473.8,1430.8C479.6,1420.4 480.3,1418.1 475,1413.9L473.3,1412.5C472.6,1410.9 474.5,1408 476,1408C480.2,1410.8 486.1,1414.3 492.4,1417.8L517.7,1431.9C524.6,1435.8 531,1439.1 532.6,1439.6C532,1441.7 528.7,1449.6 525.2,1456.9C523.9,1457.8 521.1,1456.5 520.5,1454.9C521,1452.2 521.3,1449.5 521.4,1446.7C521.3,1442.5 517.5,1439.6 509.8,1435.3L501.5,1430.7C497.6,1428.5 497.1,1428.9 492.9,1436.4L485.8,1449.4ZM564.8,1485.2C563.5,1488.5 562.4,1491.4 564,1492.1C568,1493.7 571.2,1492.6 576.4,1490L593.5,1481.5C595,1480.7 600,1477.7 600.5,1476.5C600.8,1475.7 600.5,1475 599,1474L597.2,1472.7C596,1471.3 597.4,1468.2 599.5,1468C603.9,1470.1 608.7,1472.2 613.4,1474.1C617.6,1475.8 623.8,1478 627.7,1479.2C629,1480.3 627.8,1483.5 626.1,1484.2C623.1,1483.5 620,1483 616.9,1482.9C611.8,1482.6 604.5,1485.4 594.7,1489.6L587.5,1492.7C585.2,1493.7 584.2,1494.7 583.9,1495.4C583.6,1496.2 583.4,1497.5 585.4,1504.9C588.5,1516.8 591.8,1532.8 595.2,1540.7C596.8,1544.1 599.5,1546.9 602.9,1548.6L605.1,1549.9C605.4,1551.6 604.4,1554.1 602.8,1554.6C598.1,1552.3 592.6,1550 584.8,1546.9C578.4,1544.4 572.2,1541.9 565.7,1539.9C564.6,1538.7 565.8,1535.3 567.5,1535L570,1535.4C573.1,1535.9 574.1,1534.9 573.9,1533.4C573.7,1531.6 572.1,1524.7 571.3,1521.3L568.5,1509.7C567.4,1505 566.7,1499.1 563.3,1497.8C560.3,1496.6 560,1497.4 557.9,1502.6L553.9,1512.6C549.5,1523.6 549,1526.4 555,1529.5L558.2,1531.2C559.1,1532.7 557.5,1535.8 556.1,1536C550.2,1533.3 543.9,1530.6 537.6,1528.1C530.9,1525.5 524.5,1523.1 519.3,1521.5C518.4,1520.4 519.3,1517.1 521.1,1516.6L523.6,1517.2C530.1,1518.8 531.6,1516.7 535.9,1505.6L549.7,1470.8C554.1,1459.8 554.6,1457 548.6,1453.9L545.9,1452.4C544.8,1450.8 546.2,1447.7 548.3,1447.7C553.4,1450.1 559.7,1452.8 566.3,1455.4C572.7,1457.9 579.1,1460.3 584.7,1462.1C585.8,1463.3 584.7,1466.5 582.9,1467L579.4,1466.2C573.4,1464.8 572,1466.8 567.6,1477.8L564.8,1485.2ZM699,1556.7C698.2,1560.2 694.8,1574.4 694.5,1577.3C693.4,1577.9 692.1,1578.2 690.8,1578.1C690.2,1578 689.6,1577.8 689.1,1577.5C687.9,1574.6 685.7,1570 677.8,1556.5L657.9,1521.8C653.4,1513.7 650.1,1507.7 648.5,1505.5C647.3,1509.1 645.9,1514.9 644.6,1520.3L641.8,1532C640,1539.5 639.2,1545.4 638.8,1547.6C637.7,1554.6 638.3,1557.3 643.6,1559.1L647.5,1560.4C648.7,1561.8 647.9,1564.9 645.9,1565.4C640,1563.6 636,1562.5 631,1561.3C626,1560.1 622.6,1559.5 615.8,1558.2C614.4,1557.1 614.8,1553.7 616.7,1553L620.9,1553.4C626,1553.9 627.6,1551.7 629.6,1545.5C630.3,1543.3 632,1537.6 633.8,1530L639.4,1506.4C641.8,1496.4 641.9,1494.4 640.6,1491.9C639.7,1490.2 635,1487.6 633.3,1486.8L631.8,1485.9C630.8,1484.6 632,1481.1 633.5,1480.9C640,1483 645.6,1484.3 650.5,1485.5C654.4,1486.4 657,1486.9 662.2,1487.7C662.8,1492.1 665.2,1497.7 671.4,1508.8L683.3,1529.6C686.1,1534.3 691.2,1543 692.8,1545C693.5,1543.7 693.8,1542.3 694.7,1538.4L697.1,1528.4C698.9,1520.9 699.7,1515 700.1,1512.8C701.2,1505.8 700.5,1503.3 695.9,1501.6L691.3,1500C690.1,1498.6 690.9,1495.5 692.9,1495C698.4,1496.7 702.4,1497.8 707.8,1499.1C712.9,1500.3 716.2,1500.9 723,1502.2C724.4,1503.3 724,1506.7 722.1,1507.4L717.9,1507C712.8,1506.5 711,1508.7 709.2,1514.9C708.5,1517.1 706.8,1522.8 705,1530.4L699,1556.7ZM755.4,1564C754,1575.8 754.2,1578.5 760.7,1580.1L764.2,1580.9C765.5,1582.1 764.7,1585.5 763.4,1586.1C757,1585 750.2,1584 743.5,1583.1C736.4,1582.2 729.5,1581.6 723.1,1581.2C721.9,1580.3 722,1576.9 723.6,1576L727.2,1576.1C733.9,1576.2 734.8,1573.6 736.2,1561.8L740.7,1524.6C742.1,1512.8 741.9,1510.1 735.4,1508.5L731.9,1507.7C730.6,1506.5 731.4,1503.1 732.7,1502.5C739.1,1503.6 745.9,1504.6 753,1505.5C759.8,1506.3 766.6,1507 773.1,1507.4C774.3,1508.3 774.2,1511.7 772.6,1512.6L769,1512.5C762.3,1512.4 761.4,1515 760,1526.8L755.4,1564ZM840.4,1511.5C841.7,1515.3 842.8,1522.5 843,1529.9C841.9,1531.5 839.2,1531.8 837.9,1530.5C834.8,1520 828.6,1514.8 820,1514.5C812.4,1514.3 807.5,1518.7 807.3,1525C807.1,1532.2 813.7,1536.2 821.3,1539.6C833.4,1545 844.9,1552.3 844.5,1567.6C844.2,1584 828.9,1591.1 811.5,1590.6C801.1,1590.3 792.7,1587.6 787.9,1583.5C785.3,1578.4 784.7,1570.6 785.2,1563.1C786.1,1561.7 789,1561.2 790.2,1562.9C793.1,1574 801,1583.5 813,1583.9C820.2,1584.1 825.7,1580.1 825.9,1573.4C826.1,1564.9 820,1559.7 811.4,1555.9C800,1550.9 789.2,1543.2 789.6,1530.3C790,1515.4 803,1507.3 821.2,1507.8C829.9,1508 835.8,1510.2 840.4,1511.5ZM891.4,1536.5C891.7,1540.1 892,1543.1 893.8,1543C898.1,1542.6 900.4,1540.2 903.9,1535.5L915.3,1520.1C916.3,1518.7 919.4,1513.7 919.3,1512.5C919.2,1511.6 918.6,1511.1 916.8,1510.9L914.6,1510.6C912.9,1509.9 912.8,1506.4 914.5,1505.4C919.4,1505.3 924.6,1505 929.6,1504.5C934.1,1504.1 940.7,1503.3 944.6,1502.5C946.3,1502.9 946.6,1506.3 945.5,1507.7C942.5,1508.4 939.6,1509.4 936.7,1510.7C932,1512.8 926.8,1518.5 920,1526.8L915,1532.9C913.4,1534.9 913,1536.2 913,1536.9C913.1,1537.8 913.6,1539 918.6,1544.7C926.7,1553.9 937,1566.6 943.7,1572.1C946.7,1574.4 950.4,1575.6 954.2,1575.6L956.7,1575.7C957.7,1577 958,1579.7 956.8,1580.9C951.6,1581 945.6,1581.4 937.2,1582.2C930.4,1582.9 923.8,1583.5 917,1584.7C915.5,1584.1 915,1580.6 916.3,1579.5L918.8,1578.7C921.8,1577.7 922.2,1576.4 921.4,1575.2C920.3,1573.7 915.9,1568.3 913.6,1565.6L905.9,1556.6C902.8,1552.9 899.5,1548 895.9,1548.3C892.7,1548.6 892.8,1549.5 893.3,1555.1L894.3,1565.9C895.4,1577.7 896.2,1580.4 902.9,1580.4L906.5,1580.4C908,1581.3 908,1584.8 906.8,1585.6C900.3,1585.9 893.5,1586.3 886.7,1587C879.5,1587.7 872.7,1588.5 867.4,1589.4C866.1,1588.8 865.4,1585.4 866.7,1584.2L869.2,1583.6C875.7,1582.1 876,1579.5 874.9,1567.7L871.3,1530.4C870.2,1518.6 869.4,1515.9 862.7,1515.9L859.6,1515.8C857.9,1514.9 857.7,1511.5 859.6,1510.6C865.2,1510.4 872,1509.9 879.2,1509.3C886,1508.6 892.8,1507.8 898.7,1506.9C900.2,1507.5 900.7,1510.9 899.4,1512.1L895.9,1513C889.9,1514.5 889.6,1516.9 890.7,1528.7L891.4,1536.5ZM986.3,1547.1C982.8,1547.9 982.6,1548 982.1,1552L980.9,1561.1C980,1567.8 980.9,1568.9 984.7,1568.5L989,1568C990.5,1568.8 990.7,1572.2 989.5,1573.2C983.6,1574.2 979.2,1575 974.5,1576.1C970.4,1577 966.4,1578.1 962.5,1579.4C960.6,1579.1 959.6,1575.5 960.8,1574.4L963.8,1573.1C969.9,1570.6 970,1568.7 972.6,1554.6L980.5,1511.4C981.5,1506 981.6,1503.4 980.7,1501.2C984.8,1499 989.8,1492.4 990.4,1490.3C990.9,1489.9 991.4,1489.6 992.1,1489.5C992.8,1489.3 993.7,1490.1 994.7,1491.3C995.8,1492.7 997.9,1496.1 1007.8,1510.1L1034.3,1547.7C1039,1554.2 1040.4,1555 1046.9,1554.2L1048.7,1554C1050.3,1554.6 1051,1558.4 1049.4,1559.2C1044.1,1560.1 1038.2,1561.2 1031.2,1562.9C1024.5,1564.4 1019.3,1565.8 1013.8,1567.5C1011.9,1567.4 1010.8,1564.1 1012.1,1562.5L1014.9,1561.1C1017.9,1559.7 1018.8,1558.7 1016.8,1555.7L1010.1,1545.2C1008,1541.8 1007.7,1541.9 1002.9,1543L986.3,1547.1ZM997.4,1537.5C1002.8,1536.2 1003.3,1535.9 1000.8,1532.4C995.9,1525.6 990.5,1517.6 987.8,1514C986.5,1521 985.7,1525.8 984.1,1537.2C983.7,1540.2 983.4,1540.7 988,1539.6L997.4,1537.5ZM1126.1,1467.6C1117.9,1471.7 1117.6,1472.3 1119.7,1476.6L1131.5,1500.3C1140,1517.4 1141.6,1517 1149.7,1514.2L1154.9,1512.4C1156.6,1513 1157.9,1515.9 1156.9,1517.2C1148.4,1521 1141,1524.5 1133.9,1528C1126.8,1531.5 1119.6,1535.3 1113.7,1538.7C1112.1,1538.7 1110.5,1535.9 1111.1,1534.2L1113.2,1532.8C1120.2,1527.9 1121.4,1526.7 1112.9,1509.6L1083.1,1449.6C1074.6,1432.5 1072.9,1432.8 1064.9,1435.6L1061.1,1436.9C1059.6,1436.7 1058.1,1433.4 1059.1,1432.1C1066.3,1428.9 1074,1425.3 1081.1,1421.8C1088.2,1418.3 1095.4,1414.5 1101.5,1411.1C1103.1,1411.1 1104.9,1414.2 1104.1,1415.6L1101.6,1417.4C1094.7,1422.5 1093.3,1423.3 1101.8,1440.4L1111.5,1459.9C1113.7,1464.4 1114.4,1464.5 1122.6,1460.4L1160.3,1441.6C1168.5,1437.5 1168.8,1436.9 1166.6,1432.4L1156.9,1412.9C1148.4,1395.8 1146.7,1396.1 1138.7,1398.9L1134.9,1400.2C1133.4,1400 1131.9,1396.7 1132.9,1395.4C1140.5,1392 1147.8,1388.6 1154.9,1385.1C1162,1381.6 1169.2,1377.8 1175.4,1374.3C1177,1374.3 1178.8,1377.4 1178,1378.8L1175.3,1380.7C1168.4,1385.8 1167,1386.6 1175.5,1403.7L1205.3,1463.7C1213.8,1480.8 1215.5,1480.5 1223.5,1477.7L1227.3,1476.4C1229,1477 1230.3,1479.9 1229.3,1481.2C1222.1,1484.4 1214.7,1487.9 1207.6,1491.4C1200.2,1495.1 1193,1498.9 1186.1,1502.7C1184.5,1502.7 1182.9,1499.9 1183.5,1498.2L1186.8,1496C1193.9,1491.3 1195.1,1490.1 1186.6,1473L1174.8,1449.3C1172.6,1444.9 1172,1444.9 1163.8,1449L1126.1,1467.6ZM1203.5,1371.8C1200.2,1367.3 1200.8,1361.5 1205.4,1358.1C1209.5,1355.2 1215.2,1356 1218.2,1360C1221.7,1364.8 1220.9,1370.3 1216.7,1373.4C1212.3,1376.7 1207.3,1376.6 1203.5,1371.8ZM1225.6,1436.8C1211.1,1417.3 1214.8,1391.2 1236.7,1374.9C1260.5,1357.2 1284.1,1363.8 1296.9,1381C1311.7,1400.9 1307.4,1425.9 1286.3,1441.6C1262.8,1459.1 1238.8,1454.5 1225.6,1436.8ZM1282.7,1435.8C1292.7,1428.4 1295.1,1415.1 1282,1397.5C1269.5,1380.7 1252.9,1371.4 1239.3,1381.5C1231.1,1387.6 1226.6,1401.8 1240.7,1420.8C1251.8,1435.5 1268.7,1446.2 1282.7,1435.8ZM1227.3,1354C1224,1349.5 1224.6,1343.7 1229.2,1340.3C1233.3,1337.3 1239,1338.1 1242,1342.2C1245.5,1347 1244.9,1352.4 1240.5,1355.6C1236.1,1358.9 1231.1,1358.8 1227.3,1354ZM1384.2,1334.1C1387.4,1337.3 1388.8,1338.4 1391.8,1336.4C1392.9,1336.8 1393.7,1337.8 1393.8,1338.9C1389.1,1346.4 1381.2,1357.9 1374.2,1364.9C1363.3,1375.9 1350.9,1382.4 1338.3,1382.8C1328.1,1383.1 1317.8,1378.4 1310.8,1371.4C1303.9,1364.5 1298.6,1354.9 1298.5,1342.9C1298.5,1331.2 1304.5,1317.1 1316.1,1305.3C1324.1,1297.3 1334.8,1290.9 1337.8,1289.1C1342.8,1293.8 1348.1,1298.2 1353.6,1302.3C1354.2,1303.7 1352.2,1306.2 1350.4,1306.2C1338.3,1300 1328.9,1302 1319.9,1311.1C1307.4,1323.6 1311,1340.9 1324.4,1354.2C1340.3,1370.1 1358.9,1370.3 1370.4,1358.9C1375.5,1353.8 1375.6,1352.4 1371.9,1348.7L1366.5,1343.4C1361.7,1338.6 1360.4,1337.8 1353.9,1342.5L1350.2,1345.2C1348.5,1345.6 1346.1,1342.9 1346.9,1341.1C1352,1336.5 1356.9,1332.1 1362.7,1326.3C1366.9,1322.1 1370.3,1318.1 1374.4,1313.6C1376.2,1312.8 1378.9,1315.2 1378.3,1317L1376.8,1319.3C1373.9,1323.8 1374.6,1324.8 1379.6,1329.7L1384.2,1334.1ZM1383.7,1231.1C1387.6,1232.3 1394,1235.7 1400,1240C1400.6,1241.8 1399.2,1244.2 1397.5,1244.4C1387.2,1240.7 1379.3,1242.5 1374,1249.3C1369.3,1255.3 1369.9,1261.9 1374.9,1265.7C1380.6,1270.1 1387.7,1267.2 1395,1263.1C1406.5,1256.6 1419.2,1251.7 1431.3,1261.1C1444.3,1271 1441,1287.6 1430.2,1301.4C1423.8,1309.6 1416.6,1314.7 1410.5,1316.1C1404.9,1315.1 1398.2,1311.1 1392.5,1306.1C1391.9,1304.5 1393.3,1301.9 1395.3,1301.9C1405.9,1306.1 1418.3,1305.5 1425.7,1296C1430.1,1290.3 1430.2,1283.5 1424.9,1279.4C1418.2,1274.2 1410.4,1276.1 1402.2,1280.6C1391.4,1286.8 1378.8,1290.9 1368.6,1282.9C1356.8,1273.7 1358,1258.4 1369.2,1244.1C1374.6,1237.5 1379.8,1234 1383.7,1231.1ZM1434,1204.9C1437.1,1206.7 1439.7,1208.3 1440.6,1206.8C1442.8,1203.1 1442.3,1199.8 1440.6,1194.2L1435,1175.9C1434.5,1174.3 1432.3,1168.8 1431.2,1168.2C1430.4,1167.7 1429.7,1167.9 1428.5,1169.3L1426.9,1170.9C1425.3,1171.8 1422.5,1169.9 1422.6,1167.9C1425.4,1163.9 1428.2,1159.5 1430.8,1155.2C1433.1,1151.3 1436.4,1145.5 1438.1,1141.9C1439.4,1140.8 1442.3,1142.5 1442.8,1144.3C1441.6,1147.1 1440.7,1150.1 1440,1153.1C1438.9,1158.1 1440.4,1165.7 1443,1176.1L1444.9,1183.8C1445.5,1186.3 1446.3,1187.4 1446.9,1187.7C1447.7,1188.2 1448.9,1188.5 1456.5,1187.8C1468.7,1186.7 1485.1,1186 1493.4,1183.9C1497,1182.8 1500.2,1180.6 1502.4,1177.6L1504,1175.6C1505.7,1175.6 1508,1177 1508.3,1178.6C1505.3,1182.9 1502.1,1187.9 1497.8,1195.2C1494.3,1201.1 1490.9,1206.8 1487.8,1212.9C1486.4,1213.8 1483.3,1212.1 1483.2,1210.4L1484,1208C1485,1205 1484.1,1203.9 1482.7,1203.9C1480.8,1203.8 1473.9,1204.3 1470.4,1204.5L1458.5,1205.4C1453.7,1205.7 1447.8,1205.5 1445.9,1208.6C1444.2,1211.4 1445,1211.8 1449.8,1214.7L1459.1,1220.2C1469.3,1226.3 1471.9,1227.2 1475.9,1221.9L1478.1,1219C1479.8,1218.3 1482.5,1220.4 1482.5,1221.8C1478.9,1227.2 1475.2,1233 1471.7,1238.8C1468,1245 1464.6,1250.9 1462.2,1255.8C1460.9,1256.5 1457.8,1255.1 1457.6,1253.3L1458.6,1251C1461.2,1244.8 1459.4,1243.1 1449.2,1237L1417.1,1217.8C1406.9,1211.7 1404.3,1210.8 1400.3,1216.1L1398.4,1218.5C1396.6,1219.3 1393.8,1217.4 1394.2,1215.4C1397.4,1210.8 1401,1205 1404.7,1198.8C1408.2,1192.9 1411.6,1187 1414.3,1181.7C1415.7,1180.8 1418.7,1182.4 1418.9,1184.2L1417.5,1187.6C1415.1,1193.3 1416.9,1195 1427.1,1201.1L1434,1204.9ZM1477.6,1154.6C1455.2,1145.2 1445.2,1120.8 1455.8,1095.6C1467.3,1068.2 1491.1,1062 1510.8,1070.3C1533.7,1080 1542.6,1103.7 1532.4,1127.9C1521,1155 1498,1163.2 1477.6,1154.6ZM1526.3,1124.8C1531.1,1113.4 1526.5,1100.7 1506.3,1092.1C1487.1,1084 1468,1084.3 1461.4,1099.9C1457.4,1109.4 1460.7,1123.8 1482.6,1133.1C1499.5,1140.2 1519.6,1140.9 1526.3,1124.8ZM1539.9,1029.7C1545.3,1031.2 1550.6,1032.2 1553.1,1031.1C1554.9,1030.1 1556.8,1027.6 1559.4,1018.1C1563,1004.9 1562.9,1001.9 1551.8,993.3C1551.3,991.5 1552.1,989.5 1553.8,988.6C1560,991 1568.5,995.8 1572.2,999C1569.3,1008.5 1566.2,1019 1563.9,1027.5L1559.2,1044.9C1557.3,1051.8 1555.7,1058.5 1554.3,1064.8C1553.3,1065.8 1549.9,1065.3 1549.2,1063.6L1549.8,1060C1550.9,1053.4 1548.4,1052.2 1536.9,1049L1500.8,1039.2C1489.3,1036.1 1486.9,1036 1484.3,1042.2L1482.7,1046.1C1481.3,1047.2 1478.1,1046 1477.7,1044.6C1479.9,1037.9 1481.9,1031.4 1483.7,1024.4C1485.5,1017.8 1487.1,1011.2 1488.5,1004.8C1489.5,1003.8 1492.9,1004.3 1493.6,1006L1493,1009.6C1491.9,1016.2 1494.4,1017.4 1505.9,1020.6L1539.9,1029.7ZM1554.2,950.6C1553.7,954.2 1553.7,954.3 1557.2,956.3L1565.3,960.7C1571.2,963.9 1572.5,963.5 1573.6,959.9L1574.7,955.7C1575.9,954.6 1579.3,955.6 1579.8,957.1C1578.6,962.9 1577.8,967.4 1577.1,972.2C1576.5,976.3 1576.1,980.4 1575.9,984.6C1574.9,986.3 1571.2,985.9 1570.7,984.4L1570.6,981.1C1570.4,974.5 1568.7,973.7 1556.5,966.2L1519,943.3C1514.3,940.5 1511.9,939.4 1509.5,939.4C1508.9,934.8 1504.6,927.8 1502.8,926.5C1502.6,925.9 1502.5,925.3 1502.7,924.7C1502.8,924 1503.8,923.4 1505.3,922.9C1507,922.4 1510.9,921.7 1527.5,917.5L1572.2,906.3C1579.9,904.3 1581.2,903.2 1582.8,896.9L1583.2,895.1C1584.3,893.8 1588.2,894.5 1588.3,896.4C1587.2,901.7 1586.2,907.6 1585.2,914.7C1584.2,921.5 1583.7,926.8 1583.2,932.6C1582.4,934.3 1579,934.2 1578,932.4L1577.7,929.3C1577.4,926 1576.9,924.8 1573.3,925.6L1561.1,928.1C1557.2,928.8 1557.1,929.2 1556.5,934L1554.2,950.6ZM1549.2,936.8C1550,931.3 1549.9,930.7 1545.7,931.8C1537.6,933.9 1528.2,936.1 1523.8,937.3C1529.8,941.1 1534,943.5 1544.1,949.1C1546.8,950.6 1547.1,951 1547.8,946.3L1549.2,936.8Z"/>
                </g>
            </g>
        </g>
    </g>
</svg>
