<?xml version="1.0" encoding="UTF-8" standalone="no"?>
<!DOCTYPE svg PUBLIC "-//W3C//DTD SVG 1.1//EN" "http://www.w3.org/Graphics/SVG/1.1/DTD/svg11.dtd">
<svg width="827px" height="827px" version="1.1" xmlns="http://www.w3.org/2000/svg" xmlns:xlink="http://www.w3.org/1999/xlink" xml:space="preserve" xmlns:serif="http://www.serif.com/" style="fill-rule:evenodd;clip-rule:evenodd;stroke-linejoin:round;stroke-miterlimit:2;">
    <g transform="matrix(1,0,0,1,-1062.992126,-118.110236)">
        <g transform="matrix(2.657765,0,0,3.786588,-3191.903145,-2100.951278)">
            <g id="D" transform="matrix(0.186053,0,0,0.130589,1597.972875,583.893877)">
                <g>
                    <g transform="matrix(0.99999,0,-0,0.99999,-0.0068,-0.027375)">
                        <circle cx="851.9" cy="852.4" r="822" style="fill:rgb(242,128,161);"/>
                    </g>
                    <g transform="matrix(0.99999,0,-0,0.99999,-0.0068,-0.027375)">
                        <path d="M851.9,16.4C1313.301,16.4 1687.9,390.999 1687.9,852.4C1687.9,1313.801 1313.301,1688.4 851.9,1688.4C390.499,1688.4 15.9,1313.801 15.9,852.4C15.9,390.999 390.499,16.4 851.9,16.4ZM851.9,44.4C405.953,44.4 43.9,406.453 43.9,852.4C43.9,1298.347 405.953,1660.4 851.9,1660.4C1297.847,1660.4 1659.9,1298.347 1659.9,852.4C1659.9,406.453 1297.847,44.4 851.9,44.4Z"/>
                    </g>
                    <circle cx="851.9" cy="852.4" r="578.8" style="fill:white;"/>
                    <path d="M851.9,259.6C1179.075,259.6 1444.7,525.225 1444.7,852.4C1444.7,1179.575 1179.075,1445.2 851.9,1445.2C524.725,1445.2 259.1,1179.575 259.1,852.4C259.1,525.225 524.725,259.6 851.9,259.6ZM851.9,287.6C540.178,287.6 287.1,540.678 287.1,852.4C287.1,1164.122 540.178,1417.2 851.9,1417.2C1163.622,1417.2 1416.7,1164.122 1416.7,852.4C1416.7,540.678 1163.622,287.6 851.9,287.6Z"/>
                </g>
                <g>
                    <path d="M1123.5,500.2C1082.4,428.3 1003.5,392.3 886.8,392.3C856.3,392.3 828.9,394.5 804.6,398.8L804.6,385.4L790.9,385.4L536.7,501.9L536.7,563.9C553.8,563.9 568.4,569.9 580.5,581.9C592.6,593.9 598.6,608.5 598.6,625.6L598.6,1131.6L598.9,1125.9C598.9,1143 592.8,1157.7 580.7,1169.9C568.6,1182.1 553.9,1188.2 536.6,1188.2L529,1188.2L529,1257L886.8,1257C1003.5,1257 1082.4,1220.9 1123.5,1148.8C1157.8,1088.9 1174.9,980.8 1174.9,824.7C1174.9,668.6 1157.7,560.4 1123.5,500.2ZM958.6,1210.9C950.3,1219.3 940.4,1223.4 928.8,1223.4L899.7,1223.4L899.7,1187.2L866.3,1187.2C849.2,1187.2 834.6,1181.2 822.6,1169.1C810.6,1157 804.6,1142.4 804.6,1125.2L804.6,460.8C809.2,438 822.7,426.5 845.1,426.5L928.8,426.5C940.2,426.5 950.1,430.5 958.3,438.7C966.6,446.8 970.7,456.5 970.7,467.7L970.7,1180.9C970.9,1192.5 966.9,1202.5 958.6,1210.9Z" style="fill-rule:nonzero;"/>
                    <path d="M1002.1,526.2C1001.7,515.5 1001.3,505.2 1001,495.1L1070.7,495.1C1079.1,504.2 1086.7,514.5 1093.5,525.9L1002.1,526.2ZM1003.6,598.1L1003.6,567.3L1112.7,567.3C1116.7,580.8 1119.6,591.1 1121.3,598.1L1003.6,598.1ZM1003.6,670L1003.6,639.2L1131.8,638.9C1133,646.9 1134.2,657.3 1135.5,670L1003.6,670ZM1003.6,742.4L1003.6,711.3L1139,711.3C1139.4,719.5 1139.7,729.9 1140.1,742.4L1003.6,742.4ZM1004.1,814.3L1003.6,783.5L1140.6,783.5L1140.6,814.3L1004.1,814.3ZM1140.6,886.3L1004.4,886.3L1004.4,855.4L1140.6,855.4L1140.6,886.3ZM652.9,502.2L618.4,501.9L670.7,477.6C664.7,484.5 658.8,492.7 652.9,502.2ZM1137.8,958.5L1003.6,958.5L1003.6,927.4L1139.5,927.4C1138.9,941.3 1138.3,951.7 1137.8,958.5ZM624.1,569.9C617.6,560 608.8,551.2 597.8,543.3L634.1,543.3C628.7,556.5 625.4,565.3 624.1,569.9ZM1127.8,1030.5L1003.6,1030.5L1003.6,999.6L1134.7,999.6C1131.9,1013.3 1129.7,1023.6 1127.8,1030.5ZM1109.8,1102.4L1003.6,1102.4L1003.6,1071.6L1121,1071.6C1117.7,1082.2 1114,1092.5 1109.8,1102.4ZM1058.4,1174.4L998.4,1174.4C999.2,1166.2 999.9,1155.9 1000.7,1143.5L1086.7,1143.5C1076.9,1156.5 1067.5,1166.8 1058.4,1174.4ZM634.4,1157.5C638.2,1148.4 640.7,1139 641.8,1129.2C648.8,1144.6 653.6,1154.2 656.1,1158L634.4,1157.5ZM568.4,1222.6L569,1217.8C578.1,1214.9 588.6,1209.2 600.4,1200.4L690.4,1200.4C700.7,1209.4 710.7,1216.8 720.6,1222.7L568.4,1222.7L568.4,1222.6Z" style="fill:rgb(242,128,161);"/>
                </g>
                <path d="M840.1,79.5C836.5,95.2 838.8,110.9 838.2,126.6C845.2,130.2 852.9,123.5 859.3,128.5C852.7,133.9 849.6,145.9 839.1,143.9L837.2,145.8L837.2,207.3L846.8,216.9C842.4,221.9 840.7,231.4 832.4,231.3C827,227.5 820.7,224 817,217.8L817,149.6C812,143.5 802.9,148.9 795.9,148.6L794,146.7C799.7,139.7 804.9,129.3 815.1,129.4L817,126.5C822.1,107.4 807.8,74.4 838.1,71.7L840.1,79.5ZM632.5,113.1C639.1,126.7 642.7,141.6 646.9,156.3C656.8,153.7 666.2,149.8 676.7,148.6C675.7,155.6 674.4,167.4 665.2,169.7C660.5,170.1 656.7,172.5 652.7,174.5C651.1,186 659.1,193.5 659.4,204.3C663.5,217.8 666.3,231.8 671.9,244.7C675.7,247.6 687.2,245.1 683.4,253.3C677.3,255.4 679.8,262.8 673.8,265.8C667.5,266.4 662.2,264.5 657.5,261C646.6,236.2 640,209.7 633.5,183.2C627.1,177.7 620.3,188.6 614.3,184.2C616.4,176.9 617.3,166.6 626.8,165C628.3,150 611.3,136.8 623,123.7C628.1,121 626.8,114.7 632.5,113.1ZM914.1,221.7C919,220.4 923,217.2 927.4,214.9L928.4,215.9L902.5,239C891.1,237.3 882.5,224.5 875.6,215.9C883.5,187.8 863.9,142.4 903.5,133.3C911.3,130.8 917.3,124.2 925.6,122.7C930.7,133.4 940.9,142 943.9,153.5C928,168.6 910.2,181.3 894.9,195.8C892.8,208.8 908.7,212.7 914.1,221.7ZM900.6,141C899.6,156.3 898.7,173.7 897.7,187.1L921.7,167.9C928.6,156.5 913,147.2 910.2,136.2C906.5,136.6 903.7,139 900.6,141ZM1041.9,173.6C1035.2,178.5 1027.4,180.3 1020.9,185.2C1022,195.6 1034.3,202.7 1030.5,214C1026.7,224.7 1020.7,238.7 1030.5,248.6C1028,254 1021.4,257.9 1015.1,258.2C998.3,245.8 1010.3,227.5 1012.2,212.1C1006.1,205.7 1004.9,187.6 992,193.8C981,193.1 982,205.2 979.5,212.1C972.3,224.1 996.7,233.7 978.5,242.9C976.2,243 975,246.4 972.7,246.7C965.4,242.8 963.1,235.2 958.3,229.4C965.2,187.8 974.9,147.4 983.3,106.4C988.4,97.4 977.8,91.6 981.4,83.3C988.9,80.3 1005.8,63.2 1007.4,83.3C1005.7,105.7 995.5,127 993.9,150.6C1004.8,151 1014.6,142.5 1025.6,140C1032.5,149.7 1041.5,160.3 1041.9,173.6ZM986.1,190C997.9,187.6 1009.1,183.7 1019.8,178.5C1019.2,168.7 1014.7,160.5 1012.1,151.6C1005.4,151.8 999.9,154.8 993.8,156.4C990.1,167.1 987.8,178.4 986.1,190ZM773.7,220.7C776.1,225.8 789.7,229.8 780.4,235.8L770.8,246.4C762.5,244.6 756,229 746.8,237.8C737.9,243.7 729.9,263.7 718.9,248.4L709.3,239.8L700.6,179.3C709,164.3 723.3,153.3 736.2,140.9C748,144.6 766,145.7 767.9,161.1C771.3,180.4 768.9,202.1 773.7,220.7ZM740.1,234.2C744.8,237.4 747.8,231 751.7,229.4C751.5,209.7 749.2,188.5 745.9,168.9C743.1,162.3 734.7,164.5 730.5,159.3C726.4,156.5 722.6,159.8 719.9,163.1C719.1,168.3 721.1,174.6 721.8,180.4C727.9,198.4 715.3,229.1 740.1,234.2ZM1216.8,178.4C1211.7,183.4 1204.7,183.8 1198.5,186.1C1196.3,178.4 1185.3,166.6 1200.4,163C1205.3,163.5 1211.3,156.3 1213.9,164C1213.8,169.2 1217.8,172.8 1216.8,178.4ZM1095.7,174.6L1094.7,181.3C1109.2,180.7 1124.1,175.3 1138.9,172.7C1143.9,185.3 1161.8,197.2 1149.5,212.1C1143.6,220.7 1145.7,232.7 1138.9,240.9C1135.4,256.7 1122.9,269.9 1125.4,287C1120.5,291.9 1113.5,291.7 1108.1,295.6C1102.5,292.6 1106.9,285.4 1104.3,281.2C1102.6,270.1 1110.8,260.6 1112,249.5C1112.2,226.2 1145.2,203.4 1118.7,182.2C1109,182.6 1099.9,184.5 1091.8,188.9C1083,208.4 1078.7,229.8 1072.6,250.4C1077.7,256.6 1076.3,265.2 1067.8,267.7C1064.8,268.6 1063.1,272.6 1060.1,273.5C1033.4,256.8 1061.3,232.5 1062,212C1063.9,199.2 1078.8,186.9 1067.8,173.6C1066.9,163.5 1078.5,166.9 1083.2,162.1C1090.2,160.9 1093,169.9 1095.7,174.6ZM1206.2,202.5C1211.8,218.9 1196.2,229 1192.7,242.9C1186.3,257 1178.6,272.4 1171.6,287.1C1165,293.3 1172.8,300.5 1166.8,306.3C1161,307.9 1155.8,310.9 1149.5,311.1C1140,298.3 1152.7,288.3 1155.3,276.5C1164.9,256.6 1174.5,236.8 1184.1,216.9L1183.1,203.4C1190.4,202.1 1201.5,193.4 1206.2,202.5ZM625.7,253.4C629.1,258.4 636,258.9 640.1,263.9C635.8,269.8 634.8,278 628.6,282.2C620.3,283.9 609.8,269.6 606.5,285.1C604.9,289.3 603.9,294.6 598.8,296.6C588.6,297.8 580.2,294.6 570.9,293.7C559,273.6 553.2,251 545,229.3L569,181.3C576.1,175.5 584.9,183.3 592.1,186.1C597.5,190.9 605.8,192.8 608.4,200.5C613.7,218.4 616.7,237.2 625.7,253.4ZM603.6,278.4C606.6,275.2 610.6,272.6 609.5,267.9C604.9,252.8 597.4,239 596,222.7C593.9,207.7 576.3,206 565.2,200.6C562.9,204.3 557.2,208.5 559.4,215C566.9,234.8 571,256.1 581.5,274.6L603.6,278.4ZM537.3,268.8C545.8,302 527.6,329 506.5,352.4C484.7,371.5 453.8,380.5 424.8,370.7C400.9,358.6 387.2,333.7 380.6,310.2C375.5,283.4 380.4,256 391.2,233.3C388.1,226 392.3,219.3 395,213.1C409,231.1 424.6,204.6 440.2,202.5C452.5,196.4 467.5,201.2 479.6,204.4C507.8,214.6 526.6,242.9 537.3,268.8ZM400.9,328.4C413.5,343.7 433,355.6 453.7,350.6L451.8,341.9C430.1,313.6 401.5,290 385.5,260.2C379.6,285.1 386.2,309.6 400.9,328.4ZM525.8,318.7C529.5,292.7 517.3,270.8 506.6,249.5C492.6,231.3 473.5,217.3 448.9,220.7C430,223.3 415,240.7 397,240.9C403.5,256.3 418.1,268.5 428.7,282.2L431.6,282.2C431,277.6 432.8,274.1 432.6,269.7C436.3,264.4 443.9,268.2 448.9,265.9C458.6,267.5 454,276.6 454.7,283.2C453.9,290.8 445.6,292.4 439.3,292.8C445.6,313 470.2,325.6 467.2,349.5C490.2,347.7 511,336.2 525.8,318.7ZM1285,273.6C1290.1,278.8 1283.7,286.4 1283.2,292.9C1281.7,297.5 1282.8,303.1 1278.4,306.4L1260.1,305.4C1257.2,311.8 1261.5,318.7 1260.1,324.6C1251.1,336.7 1236.4,347.6 1240.9,364C1237.4,367.5 1231.3,365.2 1226.5,365.9C1209.6,343.1 1250.2,333.5 1240.9,310.2C1243.1,302.2 1234.1,302.8 1229.4,301.6C1215.4,293.1 1212.9,312 1206.3,317.9C1205.3,324.3 1208.7,332.5 1203.4,337.1C1197,336 1189.5,343.3 1185.1,335.2C1179.5,317.3 1197.4,306.7 1204.3,292.9C1217.6,262 1242,235.8 1256.2,205.4C1258.8,199.6 1255.5,193.9 1255.2,188.1C1260.4,185.5 1266.7,185.5 1272.5,184.3C1275.3,184.7 1277.1,187.1 1279.2,189.1C1283.8,206.4 1267.3,217.5 1262.9,232.3C1253.4,240.1 1251,253.5 1240.8,261.1C1237,269.8 1246.7,266.8 1250.4,268.8L1285,273.6ZM1261,300.5C1264.3,292.4 1266.3,283.8 1266.8,274.6L1238.9,271.7C1230.7,278.8 1227.6,288 1223.5,296.7C1234.9,300.8 1247.9,300.7 1261,300.5ZM211.6,787.7C226,797.9 233.3,813.7 229.9,830.9C225.3,840.4 215.4,849.4 204.9,851.1C191,850.6 180.5,841.8 169.3,834.8C173,830.6 176.6,838.3 180.8,838.6C193.9,838.3 208.3,837.3 214.4,824.2C212.5,815 222.1,809.4 217.3,800.2C196.4,782.9 166.1,797.3 140.4,791.5C134.2,791.8 129.9,787.4 124.1,786.7C126.3,801.3 117.1,813.6 113.5,827.1C105.3,840.6 100,859 110.6,873.2C103.8,876 101.7,866.2 97.1,862.6C89.4,836.6 106.2,815.8 108.6,791.5C107.4,784.9 115,779.3 109.6,773.2L111.5,768.4C139.9,790.8 183,764 211.6,787.7ZM195.2,898.2C192.8,909.3 180.9,909.6 172.1,911.7L127.9,915.5C122.9,925.2 118,934.8 117.3,946.3C122.2,950.6 128.2,946.3 133.6,946.3C149,947.6 167.3,947.5 182.6,943.4C185.8,940.8 187.2,932.9 192.2,935.7C195.1,941.2 207.9,944.9 200.8,952L190.2,962.6C169.3,964.2 148.6,965.8 127.7,967.4C124.7,971.3 122.2,975.5 118.1,978.9C112.9,976.4 106.7,974.3 103.7,968.3C106.2,961.8 111.8,956.5 114.3,950C110.1,943 97.6,936.5 102.8,926C106.7,916.8 107,904.4 116.3,899.1C135.8,897.5 156.6,898.8 174.9,894.3C180.1,880.5 191.2,892 195.2,898.2ZM202.9,990.5C201.9,997.4 198.1,1005.8 191.4,1007.8L191.4,1012.6C196.9,1021.9 214.9,1029.7 203.9,1042.4C200.1,1047.2 200.5,1056.3 192.4,1056.8C173.9,1061.3 154.1,1062.9 136.7,1070.3C132.6,1073.5 131.7,1086.3 124.2,1079.9C118.7,1075.5 114.1,1069.5 117.5,1062.6C119.3,1058.7 120,1051.6 126.1,1052C144.7,1046.4 166.4,1048 183.8,1039.5C186.4,1033.1 192,1028 191.5,1020.3C185.6,999.4 165.6,1015.7 153.1,1014.5L133.9,1020.3C129.4,1026.4 127.6,1033.7 122.4,1039.5C116.1,1038.1 111.2,1030.9 107,1026C109.7,989.7 152.2,1000.5 176.2,991.4C180.8,988.7 181.6,982.7 185.8,978.9C192.1,981 197.4,986.1 202.9,990.5ZM230.8,1098.1C225.7,1099.3 220.5,1094.9 215.4,1093.3C200,1098.4 184.1,1102.1 169.3,1108.7C169.8,1119.5 155.1,1135.3 171.2,1141.4C195.1,1136.8 218.2,1130.3 239.4,1119.3L256.7,1079.9C262.1,1076.5 266.3,1081.8 271.1,1082.8C278.2,1092.6 265.5,1099 264.4,1107.8C264.1,1147.1 218.9,1139.2 196.2,1154.9C177.8,1154.1 163.3,1138.5 146.2,1131.8C140.9,1120.7 149.1,1110.4 149.1,1099.1C151.6,1086.5 166.4,1087.6 175,1081.8C185.2,1079.7 195.3,1071.6 205.8,1076C214.7,1082 225.1,1088.6 230.8,1098.1ZM267.3,1176.9C272.8,1182 282.1,1183.8 283.6,1192.3C283.8,1204 282.3,1218.8 289.4,1228.8C273.8,1223.4 263.3,1205.9 262.5,1189.4C256.3,1183.8 246.5,1183.9 238.5,1185.6C234.9,1188.5 231.1,1190.3 227.9,1194.2C243.6,1204.9 256.5,1221.6 258.7,1240.3C258.1,1259.9 242.9,1276.9 225.1,1283.5L208.8,1272.9C203.5,1246.2 203.2,1214.1 176.1,1199.9C190,1202.3 204.7,1210.9 214.5,1223.9L226,1252.7C230.2,1250.2 236.2,1247.5 237.5,1242.1C238.3,1219.1 225.4,1198.5 204.8,1190.2C203.3,1188.7 200.4,1186.5 202.9,1184.4C219.5,1164.5 246,1173.8 267.3,1176.9ZM1616.1,919.4C1593.6,919.6 1492.6,904.2 1485.4,902.2C1473,896.1 1465.4,921.1 1454.7,903.8C1454.3,901.5 1450.9,900.7 1450.4,898.4C1453.8,890.8 1461.1,887.9 1466.5,882.6C1508.6,886 1549.6,892.4 1591.2,897.3C1600.5,901.7 1605.5,890.6 1614,893.5C1617.5,900.7 1636,916.1 1616.1,919.4ZM1588.3,788.3C1593.5,786.3 1598.3,772.9 1604.1,782.4L1614.1,792.6C1611.8,800.9 1595.7,806.4 1604,816.1C1609.3,825.3 1628.7,834.6 1612.8,844.6L1603.6,853.7L1542.6,858.6C1528,849.4 1518,834.4 1506.4,820.8C1510.8,809.2 1513,791.4 1528.5,790.4C1548,788.2 1569.4,792 1588.3,788.3ZM1599.7,822.7C1603.2,818.2 1597,814.8 1595.6,810.9C1575.9,809.8 1554.6,810.8 1534.8,812.9C1528,815.3 1529.7,823.8 1524.3,827.7C1521.3,831.6 1524.4,835.6 1527.5,838.5C1532.7,839.5 1539.1,837.9 1544.9,837.6C1563.2,832.7 1593.1,847.1 1599.7,822.7ZM1498.7,1054.8C1502.9,1048.8 1511.5,1053.7 1517.9,1053.2C1522.6,1053.9 1528,1051.8 1532,1055.5L1534.4,1073.6C1541.3,1075.3 1547.3,1069.8 1553.3,1070.1C1566.9,1076.8 1580.3,1089.3 1595.6,1081.8C1599.7,1084.6 1598.6,1091 1600.1,1095.6C1580.8,1116.5 1563.9,1078.3 1542.7,1091.7C1534.3,1091 1536.6,1099.8 1536.3,1104.6C1530.6,1119.9 1549.6,1118.9 1556.6,1124.3C1563.1,1124.1 1570.5,1119.3 1576,1123.6C1576.1,1130 1584.6,1136.1 1577.5,1141.9C1560.9,1150.7 1547.3,1135.1 1532.4,1130.8C1499.6,1123.4 1469.4,1104.2 1436.9,1095.8C1430.8,1094.3 1425.7,1098.6 1420.1,1099.9C1416.5,1095.3 1415.4,1089 1413.1,1083.6C1413,1080.8 1415,1078.5 1416.6,1076.1C1432.8,1068.3 1446.7,1082.6 1462.1,1084.2C1471.6,1092.1 1485.2,1092 1494.5,1100.6C1503.7,1102.7 1499,1093.8 1500.3,1089.7L1498.7,1054.8ZM1529.6,1073.5C1521.1,1071.6 1512.2,1071.3 1503,1072.6L1505.3,1100.5C1513.8,1107.2 1523.3,1108.5 1532.7,1111C1534.7,1099.1 1532.2,1086.3 1529.6,1073.5ZM1481,1306.7C1488.5,1314.2 1483.2,1325.8 1481.9,1334.5C1474.5,1337.6 1468.7,1344.9 1460.8,1347C1449.1,1355.7 1450.1,1369.7 1443.5,1380.6C1443.2,1382.6 1444.2,1385.1 1442.5,1386.4C1437.6,1378.9 1441.2,1368.7 1441.5,1359.5C1448.1,1347.4 1456.3,1335.2 1467.4,1325.9L1467.4,1322.1C1461,1317 1455,1310.7 1448.2,1306.7C1443.9,1318 1445.4,1331.6 1439.6,1342.3L1409.8,1348.1C1392,1335.8 1378.2,1317.5 1361.8,1303.9L1359.9,1298.1L1365.7,1246.2C1376.6,1240.4 1390,1237.5 1402.2,1237.5C1407,1245.1 1415.5,1246.1 1420.5,1251L1481,1306.7ZM1438.8,1322C1455.5,1292.1 1414.4,1282.3 1403.2,1263.4C1395.8,1260.5 1385.4,1264.8 1377.3,1263.4C1363.2,1260.6 1372.2,1277.5 1369.6,1284.5C1384.7,1298.2 1398.8,1312.4 1414.8,1325.8C1422.2,1328.9 1431.4,1324.7 1438.8,1322ZM1310.9,1314.3C1307.3,1319.1 1307.2,1327.8 1300.3,1328.7C1294.2,1326.4 1287.1,1326 1282,1321C1284.1,1313 1284.7,1303.6 1292.6,1298.9C1297.9,1306.1 1316,1301.6 1310.9,1314.3ZM1285,1346.1C1282.4,1354.8 1282.8,1364.6 1277.3,1372C1270.6,1369.1 1261.3,1370.6 1257.1,1363.3C1259,1354.7 1260.6,1345.2 1266.7,1339.3C1273.4,1340.1 1280.1,1341 1285,1346.1ZM1360.9,1354.7C1369.3,1365.9 1387,1373.5 1385.8,1388.4C1385.9,1409.3 1374.7,1425.4 1374.3,1446.1C1366.9,1458.6 1350.5,1453.8 1338.7,1457.6L1332,1456.6L1288.8,1406.6C1285.5,1396.8 1290.7,1386.1 1291.7,1375.8C1301.3,1361.9 1293.5,1329.8 1321.5,1334.5C1342.5,1326.3 1346.2,1347.7 1360.9,1354.7ZM1371.5,1422.9L1376.4,1404.7C1364.5,1391.4 1351.4,1380.9 1338.9,1369.1L1328.3,1356.6C1319.2,1358.7 1309.3,1358.8 1300.4,1361.4L1295.6,1383.5L1305.2,1397C1316,1409.2 1327.2,1420.4 1338.8,1430.6L1371.5,1422.9ZM1554.2,939.8C1567.1,945.2 1586.2,942.7 1592.9,956C1603.6,973.9 1602.1,993.5 1612.3,1011.5C1612.3,1026 1595.8,1030.2 1587.6,1039.5L1581.3,1042.1L1518.6,1021.1C1510.7,1014.5 1509.8,1002.5 1505.4,993.2C1506.6,976.3 1483.5,952.7 1510,942.5C1523.9,924.7 1538,941.2 1554.2,939.8ZM1598,993.1L1592.9,974.9C1575.9,969.6 1559.3,967.2 1542.5,963.4L1527,958C1520.3,964.4 1511.9,969.5 1505.5,976.3L1512.6,997.8L1527.7,1004.5C1543.3,1009.4 1558.6,1013.4 1573.8,1016.3L1598,993.1ZM1220.6,1378.7C1217,1384.8 1216.5,1392.9 1210,1397C1193.6,1393.7 1171.5,1375.5 1157.1,1396C1150.4,1419.4 1139.3,1450.7 1162.9,1470L1167.7,1464.2C1177,1446.9 1183.4,1428.4 1195.6,1412.3C1213.6,1410.8 1234.9,1400.1 1251.3,1412.3C1269.8,1429.5 1277,1451.4 1289.7,1470.9C1290.2,1488.4 1282,1502.3 1278.2,1518L1276.3,1519.9C1276.5,1508.7 1276.6,1495 1272.5,1484.3C1262.7,1466.6 1252.7,1448.8 1239.8,1432.4C1225,1430 1209.6,1429 1193.7,1429.5C1183.2,1444.1 1175.8,1460 1167.8,1475.6C1172.8,1491.7 1184.5,1505.1 1190.9,1520.8C1196.4,1529 1207.9,1526.7 1216.8,1528.5C1221.2,1534.2 1216.1,1540.7 1215.8,1546.8C1210.6,1559.6 1196,1550.8 1187,1550.6C1173.5,1540.5 1170.1,1524.6 1160.1,1512.2C1147.4,1492.1 1129.7,1472.9 1134.2,1446.9C1139.2,1425.5 1147,1405.3 1153.4,1384.4C1164.7,1371.9 1181.4,1362.6 1198.6,1368.1C1206.3,1370.8 1213.7,1374.1 1220.6,1378.7ZM1452.3,1147.9C1460.1,1155.3 1463.6,1168.6 1459.3,1178.6C1457.1,1188 1447,1189 1442.7,1196.4C1446.5,1204.5 1452.5,1210.4 1460.9,1214.3C1475.8,1197.6 1448.8,1170.4 1475.4,1159.6C1497.4,1155.3 1523,1168.7 1536.5,1185.5C1538.9,1193.1 1547.6,1196.8 1546.2,1205.8C1526.7,1215.7 1504.2,1227.1 1506,1251.8C1505.2,1258.5 1509,1265.6 1507.1,1272.4C1498.2,1267.4 1490.3,1255.5 1490.7,1243.7C1485.2,1218.1 1509.1,1201.8 1527.7,1190.9C1531.3,1187.8 1526.2,1186.6 1525.3,1184.5C1511.5,1179.2 1497.3,1167.4 1483.8,1178.1C1478.4,1191.7 1480.9,1205.6 1481.7,1219.4C1481.2,1226.2 1476.2,1232.4 1469.2,1232.7C1447.1,1225.3 1440.4,1200.7 1430.9,1180.2C1442.4,1174.1 1447.3,1157.7 1452.3,1147.9ZM428.7,1319.1C443.7,1335.3 460.8,1350.8 480.6,1357.5C463.3,1363.3 442.4,1360.4 428.7,1348.9C425.5,1345.1 423.3,1340.8 419.1,1337.4C400.7,1353 386.2,1373.4 369.1,1391.2C357.8,1395.4 345.3,1399.8 332.6,1397.9C350.5,1389.4 360.2,1369.1 373.9,1354.7C373.2,1346.9 366.1,1340 359.5,1336.4C363.7,1332.6 370.4,1331.6 375.8,1333.5C380.4,1334.1 383.3,1341.6 388.3,1338.3C392.1,1328.4 417.4,1320.1 399.8,1308.5C386.1,1300.5 379.2,1273.5 360.4,1286.4C338.1,1294.8 320.9,1317.3 312.4,1338.3C305.2,1371.3 314.7,1402 340.3,1423.8C363.3,1441.3 396.6,1450.9 424.9,1438.2L425.9,1439.2C414.5,1456.7 391.9,1453.9 373,1452.7C340.7,1447.9 309.3,1422.4 298,1391.2C287.7,1365.8 299.2,1337.6 310.5,1315.3C324.8,1295.9 345.4,1287.5 365.3,1279.7C365,1274.3 357.4,1274.5 353.8,1271C351.2,1266.2 345.5,1268.6 342.3,1265.2C356.4,1257.5 371,1262.8 384.6,1268.1C403.6,1280.9 418.1,1300.5 428.7,1319.1ZM512.4,1463.3C513.9,1479.6 495.1,1471.5 487.3,1477.6C474.3,1480.9 452.6,1472.9 450.8,1493C453.6,1501.5 456,1510.2 460.4,1518C468.4,1520.2 477.3,1515.9 484.4,1516.1L479.6,1520.9L439.2,1525.7L435.4,1521.9C431.2,1510.9 428,1498.1 428.7,1486.3L459.5,1435.4C472.2,1427.7 490.2,1430.1 504.7,1429.6L507.6,1432.5C508.4,1443.2 509.7,1453.5 512.4,1463.3ZM465.3,1474.8C475,1474.1 484.3,1472.7 493.1,1470C491.9,1458.8 492,1447.1 489.3,1436.4C486.8,1436.4 483.4,1436 482.6,1438.3C475.4,1449.9 465.3,1462.3 465.3,1474.8ZM752.6,1499.8C750.2,1503.9 758.8,1504.7 754.5,1508.5C749.3,1513.9 743.1,1516.8 736.2,1518.1C732.3,1512.7 725.5,1507.4 727.6,1500.8C735.2,1498.8 749.5,1480.8 752.6,1499.8ZM608.5,1503.7C609.7,1509.3 611.1,1515.6 603.7,1517.3L581.6,1524C582.8,1539.5 596.2,1555.4 583.5,1570.1C581.1,1572.7 580.1,1576 580.6,1579.7C583,1582 584,1584.8 583.5,1588.3C578.3,1594.2 571.6,1596 564.3,1596.9C561.4,1590.4 553.8,1583.5 559.5,1575.8C563.5,1567.8 571.8,1560.4 567.2,1549.9C566.2,1542.7 561.5,1537 560.5,1529.7C555.3,1527.6 550,1531.1 545.1,1532.6C538.6,1542 533.4,1555.5 538.4,1566.2C532.4,1571 525.2,1572.6 518.2,1574.9C515,1567.9 507.8,1561.5 511.5,1552.8C529.8,1513.4 551.1,1475.3 566.3,1434.6C567.2,1428.3 560.9,1423.8 562.5,1418.3C569.4,1415 576,1408.4 583.6,1409.6L590.3,1421.1C586.1,1448 567.8,1468.9 559.5,1494.1C572.1,1492.8 584.5,1485.2 597.9,1482.6C605.1,1487.3 604.6,1496.8 608.5,1503.7ZM547.9,1523.8C562,1523.6 574.2,1516.9 587.3,1516.1L580.6,1494C575.1,1494 571.1,1497.5 566.2,1498.8C551.5,1498.5 553,1515.1 547.9,1523.8ZM657.5,1516.2L657.5,1521C667.2,1520.2 677.4,1515 688.3,1514.3C693.8,1525.2 708.2,1533.5 704.6,1547C699.5,1566.2 691.4,1584.2 689.2,1604.7C692.2,1608.4 695.1,1612.2 695,1617.2C691.7,1622.8 686.4,1624.6 681.5,1627.8C672.3,1629.2 669.8,1620.3 666.1,1614.3C668.1,1593.4 676.5,1575.3 681.5,1555.7C685.6,1545 674.7,1538.2 672.9,1528.8C667.4,1522.7 659.4,1527.7 653.7,1529.8C648,1549.1 642.3,1568.4 633.5,1586.5C630.4,1593.6 639.6,1595.7 636.4,1602.8C631.2,1608.9 624.2,1610.4 618.1,1614.3C613.2,1607.2 603.8,1600.7 607.5,1591.2L633.4,1525.9C631.8,1519.8 628.8,1514.3 628.6,1507.6C634.8,1502.9 641.2,1499 648.8,1498L657.5,1516.2ZM1038,1569C1034.9,1583 1047.4,1589.7 1054.4,1597.8C1050.9,1604 1050.5,1613.3 1042.9,1616.1C1035.5,1614.9 1026.8,1597.7 1020.8,1612.3C1019.2,1618.9 1014.1,1624.9 1010.2,1629.6C1006.7,1624.6 999.4,1628.8 995.8,1623.8C988.9,1622.1 982.2,1620.1 976.6,1615.2C970.4,1591.8 961.6,1569.6 958.3,1545C964.9,1527.8 985.7,1518.1 994.8,1502.7C1005.5,1506.4 1013.7,1515.8 1024.6,1519L1028.4,1523.8C1032.6,1538.4 1030.7,1555.6 1038,1569ZM993.8,1597.8C1003.9,1596 1018.4,1614.6 1021.6,1597.8C1018.5,1577.1 1012.6,1557.5 1008.1,1537.3C999.3,1534.5 992.9,1525.7 984.1,1522.9C979,1525.1 977.1,1529.5 975.5,1534.4C979.5,1556.4 986.2,1577.2 993.8,1597.8ZM756.4,1536.3C755.2,1563.2 743.7,1588.3 743.9,1617C745.5,1621.5 750.1,1624.7 748.7,1630.5C742.8,1633.3 739.5,1642.2 732.4,1642C725.5,1635.3 716.7,1628.1 720.9,1618C726.3,1594.8 729.6,1570.7 733.4,1546.9C731.1,1544.4 727,1541.5 729.6,1538.3C735.4,1533.8 740.7,1528.3 746.9,1524.8L756.4,1536.3ZM854.5,1535.4C851,1545.6 840.4,1554.3 829.5,1554.6C820,1556.5 814.9,1547.8 806.4,1546.9C800.6,1553.7 797.8,1561.7 797.8,1570.9C819.2,1577.4 832.7,1541.6 853.5,1561.3C866.6,1579.5 865.1,1608.4 855.4,1627.6C849.5,1633 849.7,1642.4 841,1644.9C823.9,1631.4 804.1,1615.7 782.4,1627.6C776,1629.7 771.1,1636.1 764.1,1637.2C764.9,1627 772.5,1614.9 783.3,1610.3C804.3,1594.6 829,1609.5 846.7,1621.8C851,1623.8 850,1618.6 851.5,1617C850.5,1602.3 855.3,1584.4 840,1576.6C825.4,1577.4 813.8,1585.4 801.6,1592C795.3,1594.4 787.5,1592.5 784.3,1586.2C781.8,1563 801.4,1546.7 816,1529.5C826.5,1537.3 843.4,1534.9 854.5,1535.4ZM956.3,1627.6C959.5,1636.9 947.5,1639.7 945.6,1646.8C939.2,1643 932.5,1640.2 926.4,1635.3C922.7,1616.4 932.3,1593.9 910.1,1584.4C905.9,1586.9 899.9,1589.6 898.6,1595C901.6,1606.4 895.3,1621.7 909.2,1628.6C908.4,1636 903.1,1641.5 899.6,1647.8C892.4,1651.3 888,1642.4 882.3,1639.2L880.4,1636.3C878.1,1594.3 881.2,1551.1 877.5,1508.5C874.5,1503.4 865.8,1498.5 871.7,1492.2C876.7,1489.1 877.3,1482.6 882.3,1478.7C911.1,1489.4 891,1523.6 899.6,1546C907.1,1544.2 913.3,1533.4 920.7,1528.7C928.3,1535.6 941.2,1544.9 940.9,1555.6L926.5,1571.9L942.8,1591.1C943.2,1604.9 939.8,1622.1 956.3,1627.6ZM919.8,1568L919.8,1564.2C915.4,1559.2 913.5,1551.4 907.3,1548.8C896.5,1555.6 899.9,1572.4 900.6,1582.4L919.8,1568Z"/>
            </g>
        </g>
    </g>
</svg>
