<?xml version="1.0" encoding="UTF-8" standalone="no"?>
<!DOCTYPE svg PUBLIC "-//W3C//DTD SVG 1.1//EN" "http://www.w3.org/Graphics/SVG/1.1/DTD/svg11.dtd">
<svg width="1139px" height="237px" version="1.1" xmlns="http://www.w3.org/2000/svg" xmlns:xlink="http://www.w3.org/1999/xlink" xml:space="preserve" xmlns:serif="http://www.serif.com/" style="fill-rule:evenodd;clip-rule:evenodd;stroke-linejoin:round;stroke-miterlimit:2;">
    <g transform="matrix(1,0,0,1,-1181.102362,-2125.984252)">
        <g transform="matrix(2.657765,0,0,3.786588,-3191.903145,-2100.951278)">
            <g id="wordmark_data" transform="matrix(3.174263,0,0,2.227981,-8161.228934,-1094.146279)">
                <path d="M3158.854,996.186C3158.294,998.574 3158.652,1000.962 3158.558,1003.35C3159.647,1003.898 3160.844,1002.879 3161.84,1003.639C3160.813,1004.461 3160.331,1006.286 3158.698,1005.982L3158.403,1006.271L3158.403,1015.625L3159.896,1017.086C3159.211,1017.846 3158.947,1019.291 3157.656,1019.276C3156.817,1018.698 3155.837,1018.166 3155.261,1017.223L3155.261,1006.849C3154.484,1005.921 3153.069,1006.742 3151.98,1006.697L3151.685,1006.408C3152.571,1005.343 3153.38,1003.761 3154.966,1003.776L3155.261,1003.335C3156.054,1000.43 3153.831,995.41 3158.543,994.999L3158.854,996.186ZM3134.863,995.241C3135.244,997.511 3135.119,999.839 3135.093,1002.164C3136.684,1002.215 3138.258,1002.054 3139.877,1002.335C3139.417,1003.312 3138.7,1004.976 3137.227,1004.912C3136.508,1004.766 3135.835,1004.951 3135.15,1005.069C3134.402,1006.677 3135.262,1008.117 3134.827,1009.705C3134.839,1011.851 3134.636,1014.013 3134.898,1016.137C3135.336,1016.725 3137.161,1016.859 3136.231,1017.89C3135.228,1017.931 3135.273,1019.119 3134.245,1019.296C3133.28,1019.11 3132.574,1018.603 3132.029,1017.889C3131.504,1013.8 3131.696,1009.65 3131.903,1005.505C3131.193,1004.425 3129.696,1005.719 3128.997,1004.817C3129.633,1003.844 3130.225,1002.382 3131.712,1002.561C3132.601,1000.439 3130.652,997.777 3132.977,996.375C3133.857,996.202 3133.943,995.227 3134.863,995.241ZM3168.868,1016.586C3167.971,1015.252 3165.476,1014.76 3165.718,1012.771C3168.002,1010.47 3170.685,1008.428 3173.058,1006.032C3172.518,1004.304 3170.877,1003.061 3170.016,1001.467C3168.736,1001.747 3167.846,1002.788 3166.651,1003.218C3160.556,1004.851 3163.895,1011.627 3162.849,1015.947C3163.977,1017.211 3165.395,1019.102 3167.178,1019.288L3171.053,1015.614L3170.891,1015.468C3170.222,1015.845 3169.621,1016.357 3168.868,1016.586ZM3166.25,1004.406C3166.718,1004.083 3167.138,1003.7 3167.71,1003.616C3168.216,1005.27 3170.7,1006.585 3169.702,1008.361L3166.097,1011.431C3166.166,1009.388 3166.193,1006.738 3166.25,1004.406ZM3186.127,1006.194C3185.621,1004.231 3183.899,1002.951 3182.527,1001.737C3180.94,1002.468 3179.736,1004.052 3178.068,1004.349C3177.52,1000.791 3178.356,997.293 3177.864,993.91C3176.948,990.977 3174.954,994.071 3173.916,994.762C3173.647,996.113 3175.451,996.627 3174.978,998.131C3175.075,1004.496 3174.955,1010.815 3175.3,1017.22C3176.223,1017.925 3176.827,1018.978 3178.066,1019.319C3178.405,1019.199 3178.473,1018.654 3178.819,1018.564C3181.275,1016.601 3177.248,1015.975 3177.94,1013.956C3178.089,1012.849 3177.532,1011.085 3179.226,1010.829C3180.977,1009.485 3181.765,1012.134 3182.906,1012.885C3183.133,1015.235 3181.923,1018.346 3184.89,1019.638C3185.837,1019.387 3186.708,1018.592 3186.907,1017.708C3185.088,1016.558 3185.53,1014.282 3185.749,1012.568C3185.947,1010.765 3183.842,1010.113 3183.326,1008.605C3184.149,1007.664 3185.274,1007.141 3186.127,1006.194ZM3178.202,1010.457C3178.072,1008.679 3178.043,1006.925 3178.247,1005.214C3179.119,1004.777 3179.854,1004.151 3180.865,1003.902C3181.558,1005.139 3182.516,1006.209 3182.935,1007.645C3181.484,1008.768 3179.914,1009.714 3178.202,1010.457ZM3149.262,1015.506C3148.961,1012.599 3149.84,1009.391 3149.771,1006.411C3149.841,1004.052 3147.1,1003.472 3145.373,1002.645C3143.099,1004.212 3140.642,1005.538 3138.998,1007.6L3138.913,1016.897L3140.186,1018.411C3141.518,1020.964 3143.218,1018.141 3144.725,1017.458C3146.346,1016.347 3146.978,1018.842 3148.212,1019.303L3149.937,1017.93C3151.508,1017.242 3149.511,1016.328 3149.262,1015.506ZM3143.779,1016.763C3140.087,1015.426 3142.746,1011.1 3142.231,1008.253C3142.26,1007.365 3142.1,1006.371 3142.346,1005.608C3142.838,1005.174 3143.5,1004.765 3144.064,1005.28C3144.588,1006.159 3145.931,1006.021 3146.206,1007.078C3146.253,1010.101 3146.108,1013.341 3145.675,1016.308C3145.038,1016.459 3144.427,1017.352 3143.779,1016.763ZM3208.606,996.716C3208.221,997.735 3207.263,998.245 3206.544,998.964C3205.723,998.047 3203.393,997.138 3205.278,995.663C3206,995.413 3206.366,994.033 3207.243,994.924C3207.574,995.645 3208.375,995.881 3208.606,996.716ZM3192.695,1003.344L3192.888,1004.357C3194.989,1003.551 3196.905,1002.035 3198.949,1000.926C3200.323,1002.49 3203.559,1003.312 3202.507,1006.065C3202.076,1007.594 3202.994,1009.215 3202.41,1010.732C3202.698,1013.178 3201.53,1015.696 3202.766,1018.031C3202.294,1018.978 3201.255,1019.297 3200.659,1020.126C3199.684,1019.973 3199.965,1018.719 3199.37,1018.244C3198.557,1016.733 3199.28,1014.96 3198.893,1013.304C3197.74,1009.944 3201.433,1005.028 3196.462,1003.295C3195.056,1003.834 3193.815,1004.559 3192.848,1005.594C3192.544,1008.834 3192.998,1012.125 3193.147,1015.39C3194.211,1016.028 3194.442,1017.334 3193.319,1018.115C3192.924,1018.394 3192.877,1019.053 3192.482,1019.331C3187.71,1018.256 3190.577,1013.377 3189.64,1010.395C3189.27,1008.46 3190.835,1005.952 3188.543,1004.586C3187.899,1003.178 3189.776,1003.091 3190.223,1002.168C3191.191,1001.647 3192.06,1002.802 3192.695,1003.344ZM3208.715,1000.72C3210.591,1002.612 3209.068,1005.014 3209.498,1007.153C3209.534,1009.508 3209.473,1012.127 3209.465,1014.603C3208.948,1015.885 3210.523,1016.369 3210.064,1017.556C3209.355,1018.153 3208.822,1018.903 3207.95,1019.34C3205.764,1018.196 3206.886,1015.995 3206.469,1014.203C3206.498,1010.843 3206.534,1007.496 3206.563,1004.135L3205.526,1002.343C3206.467,1001.69 3207.45,999.773 3208.715,1000.72ZM3127.78,1015.038C3127.36,1012.25 3127.955,1009.413 3128.167,1006.581C3128.211,1005.345 3127.107,1004.629 3126.585,1003.656C3125.691,1002.871 3124.839,1001.289 3123.487,1001.733L3117.361,1007.276C3117.363,1010.805 3116.966,1014.332 3117.595,1017.832C3118.899,1018.459 3119.945,1019.366 3121.495,1019.742C3122.347,1019.732 3122.783,1019.031 3123.247,1018.519C3124.578,1016.49 3125.321,1019.089 3126.622,1019.293C3127.754,1019.028 3128.35,1017.915 3129.299,1017.306C3128.977,1016.374 3128.001,1015.932 3127.78,1015.038ZM3123.193,1017.41L3120.185,1015.683C3119.673,1012.486 3120.246,1009.234 3120.241,1006.014C3120.278,1004.971 3121.338,1004.679 3121.875,1004.276C3123.194,1005.64 3125.662,1006.827 3125.144,1009.075C3124.453,1011.47 3124.787,1013.836 3124.627,1016.232C3124.529,1016.96 3123.805,1017.116 3123.193,1017.41ZM3114.047,1011.958C3115.155,1007.836 3115.486,1002.678 3112.951,998.849C3111.752,997.349 3110.345,995.388 3108.248,994.997C3106.117,993.817 3101.694,995.594 3101.651,992.126C3100.734,992.629 3099.584,993.055 3099.282,994.225C3095.81,995.983 3092.628,998.853 3090.741,1002.569C3089.35,1006.024 3088.707,1010.301 3090.531,1013.964C3093.203,1017.818 3097.877,1019.568 3102.373,1019.258C3107.187,1018.362 3111.979,1016.763 3114.047,1011.958ZM3091.545,1006.641C3091.491,1003.011 3092.976,999.436 3096.047,996.961C3095.229,1002.043 3096.554,1007.532 3096.583,1012.956L3096.001,1014.185C3092.966,1012.888 3091.668,1009.654 3091.545,1006.641ZM3107.932,1016.948C3104.453,1017.708 3100.795,1017.19 3097.777,1015.293C3100.395,1012.673 3098.531,1008.884 3099.649,1005.857C3100.467,1006.388 3101.646,1006.957 3102.459,1006.109C3102.993,1005.245 3104.418,1004.565 3103.367,1003.48C3102.531,1003.299 3101.947,1002.14 3100.99,1002.442C3100.601,1002.993 3100.049,1003.252 3099.691,1003.865L3099.332,1003.598C3099.306,1000.963 3098.644,998.143 3099.286,995.679C3101.535,997.309 3105.029,996.58 3107.615,998.002C3110.982,999.852 3112.033,1003.304 3112.057,1006.797C3111.381,1010.362 3110.834,1014.137 3107.932,1016.948ZM3222.508,1003.163L3217.54,1005.314C3216.887,1005.351 3215.851,1006.516 3215.641,1005.087C3216.367,1003.287 3215.587,1001.362 3216.204,999.592C3215.574,997.326 3216.846,994.569 3214.821,992.701C3214.38,992.61 3213.945,992.444 3213.542,992.617C3212.874,993.236 3212.041,993.741 3211.566,994.494C3212.081,995.22 3212.984,995.692 3213.115,996.651C3213.727,1001.719 3212.647,1007.062 3213.419,1012.123C3213.637,1014.46 3212.139,1017.264 3214.345,1019.13C3215.59,1019.825 3215.984,1018.281 3216.92,1017.91C3217.244,1016.891 3216.123,1016.103 3215.731,1015.195C3216.12,1013.904 3214.903,1011.259 3217.45,1011.237C3218.17,1011.016 3219.31,1010.217 3219.675,1011.428C3222.812,1013.696 3218.231,1018.189 3222.332,1019.784C3222.91,1019.309 3223.904,1019.118 3224.081,1018.385C3222.143,1016.625 3223.193,1014.038 3223.392,1011.752C3223.094,1010.877 3221.961,1010.329 3221.82,1009.269L3224.321,1007.933C3224.633,1007.154 3224.029,1006.518 3223.85,1005.803C3223.384,1004.922 3223.608,1003.427 3222.508,1003.163ZM3221.538,1008.564C3219.822,1009.639 3218.112,1010.693 3216.269,1011.076C3216.098,1009.623 3215.755,1008.185 3216.258,1006.61L3220.184,1004.75C3220.871,1005.98 3221.311,1007.252 3221.538,1008.564Z" style="fill-rule:nonzero;"/>
            </g>
        </g>
    </g>
</svg>
